<svg xmlns="http://www.w3.org/2000/svg" width="30" height="30" viewBox="0 0 30 30" fill="none">
    <rect width="30" height="30" rx="15" fill="white" fill-opacity="0.06"/>
    <path d="M15 23.5018C14.8254 23.5018 14.6507 23.4375 14.5129 23.2996L8.93383 17.7206C8.66728 17.454 8.66728 17.0128 8.93383 16.7463C9.20037 16.4798 9.64155 16.4798 9.90809 16.7463L15 21.8382L20.0919 16.7463C20.3585 16.4798 20.7996 16.4798 21.0662 16.7463C21.3327 17.0128 21.3327 17.454 21.0662 17.7206L15.4871 23.2996C15.3493 23.4375 15.1746 23.5018 15 23.5018Z" fill="white"/>
    <path d="M15 23.3455C14.6232 23.3455 14.3107 23.033 14.3107 22.6561V7.18739C14.3107 6.81055 14.6232 6.49805 15 6.49805C15.3768 6.49805 15.6893 6.81055 15.6893 7.18739V22.6561C15.6893 23.033 15.3768 23.3455 15 23.3455Z" fill="white"/>
</svg>