<svg xmlns="http://www.w3.org/2000/svg" width="22" height="22" viewBox="0 0 22 22" fill="none">
    <path opacity="0.4" d="M10.0467 1.88831L5.00498 3.77664C4.04248 4.1433 3.25415 5.27997 3.25415 6.3158V13.7408C3.25415 14.4833 3.73998 15.4641 4.33582 15.9041L9.37748 19.6716C10.2667 20.3408 11.7242 20.3408 12.6133 19.6716L17.655 15.9041C18.2508 15.455 18.7367 14.4833 18.7367 13.7408V6.3158C18.7367 5.28914 17.9483 4.14331 16.9858 3.78581L11.9441 1.89747C11.4308 1.69581 10.5692 1.69581 10.0467 1.88831Z" fill="white"/>
    <path d="M9.77164 13.0442C9.59747 13.0442 9.4233 12.98 9.2858 12.8425L7.80997 11.3667C7.54414 11.1008 7.54414 10.6608 7.80997 10.395C8.0758 10.1292 8.5158 10.1292 8.78164 10.395L9.77164 11.385L13.2275 7.92917C13.4933 7.66334 13.9333 7.66334 14.1991 7.92917C14.465 8.19501 14.465 8.63501 14.1991 8.90084L10.2575 12.8425C10.12 12.98 9.9458 13.0442 9.77164 13.0442Z" fill="white"/>
</svg>