<svg xmlns="http://www.w3.org/2000/svg" width="24" height="24" viewBox="0 0 24 24" fill="none">
    <rect width="24" height="24" rx="12" fill="white" fill-opacity="0.12"/>
    <path d="M7.18047 7.35708C7.18162 9.79592 7.18621 12.2353 7.17761 14.6742C7.17646 14.9443 7.26362 15.0951 7.5033 15.2302C9.01937 16.0857 10.5268 16.9553 12.0337 17.8272C12.235 17.9436 12.4064 17.9646 12.6197 17.8487C14.2128 16.9841 15.9235 16.2515 17.344 15.1143C17.418 15.055 17.4661 14.9211 17.4661 14.8216C17.4644 13.0044 17.4524 11.1866 17.446 9.36929C17.446 9.20373 17.395 9.09523 17.2385 9.00708C15.6972 8.13801 14.1582 7.26384 12.6243 6.38121C12.4179 6.26254 12.2642 6.25746 12.0527 6.38121C11.231 6.86095 10.3955 7.31753 9.56467 7.78145C9.41742 7.86422 9.24299 7.99355 9.24299 7.74754C9.23898 7.12597 9.23153 6.50439 9.24643 5.88338C9.24873 5.78562 9.33531 5.65227 9.42247 5.60085C10.333 5.06573 11.2482 4.53852 12.1725 4.02713C12.266 3.97514 12.4517 4.00396 12.5555 4.06216C14.7676 5.3094 16.9326 6.70392 19.2087 7.83456C19.4237 7.9408 19.5017 8.08319 19.5 8.32222C19.4827 10.8269 19.4712 13.3319 19.461 15.8365C19.4604 16.0162 19.3841 16.1213 19.2207 16.2123C16.9891 17.4538 14.8039 18.7739 12.5257 19.9338C12.3319 20.0321 12.1943 20.0288 11.9936 19.8705C9.7321 18.559 7.61116 17.4735 5.57725 16.3485C5.30718 16.1993 5.21257 16.0235 5.21429 15.7229C5.22633 13.2462 5.22575 10.7695 5.22059 8.29284C5.22059 8.07698 5.2894 7.9504 5.48436 7.84643C5.96315 7.59158 6.42932 7.31357 6.9018 7.04686C7.24358 6.85361 7.18047 7.03636 7.18047 7.35708Z" fill="#00D395"/>
    <path d="M9.22295 10.5645C9.22869 10.4413 9.32273 10.2751 9.42766 10.2113C10.3216 9.66826 11.2293 9.14783 12.1278 8.61158C12.2797 8.52117 12.3961 8.52682 12.5452 8.61384C13.4323 9.13145 14.3228 9.6434 15.2161 10.1503C15.383 10.2452 15.4575 10.3565 15.4541 10.5537C15.4369 11.542 15.4294 12.5303 15.4294 13.5186C15.4294 13.7221 15.3646 13.8639 15.18 13.9515C14.246 14.3932 13.4278 14.9927 12.5148 15.4647C12.4179 15.515 12.2425 15.5082 12.145 15.454C11.2127 14.9392 10.286 14.4137 9.36745 13.8758C9.27915 13.8238 9.21263 13.6673 9.20862 13.5565C9.17544 12.5621 9.2099 11.5594 9.22295 10.5645Z" fill="#00D395"/>
</svg>