<svg
        xmlns="http://www.w3.org/2000/svg"
        width="22"
        height="22"
        viewBox="0 0 22 22"
        fill="none"
      >
        <path
          d="M20.1665 7.79171C20.1665 11.0825 17.499 13.75 14.2081 13.75C14.0523 13.75 13.8873 13.7409 13.7315 13.7317C13.5023 10.8259 11.174 8.49754 8.26814 8.26838C8.25897 8.11254 8.24982 7.94754 8.24982 7.79171C8.24982 4.50087 10.9173 1.83337 14.2081 1.83337C17.499 1.83337 20.1665 4.50087 20.1665 7.79171Z"
          fill="white"
        />
        <path
          opacity="0.4"
          d="M13.7496 14.2083C13.7496 17.4992 11.0821 20.1667 7.79128 20.1667C4.50045 20.1667 1.83295 17.4992 1.83295 14.2083C1.83295 10.9175 4.50045 8.25 7.79128 8.25C7.94711 8.25 8.1121 8.25917 8.26794 8.26834C11.1738 8.4975 13.5021 10.8258 13.7313 13.7317C13.7405 13.8875 13.7496 14.0525 13.7496 14.2083Z"
          fill="white"
        />
        <path
          d="M6.98481 13.4019L7.79148 11.9169L8.59815 13.4019L10.0831 14.2085L8.59815 15.0152L7.79148 16.5002L6.98481 15.0152L5.49982 14.2085L6.98481 13.4019Z"
          fill="white"
        />
      </svg>