<svg width="199" height="207" viewBox="0 0 199 207" fill="none" xmlns="http://www.w3.org/2000/svg" xmlns:xlink="http://www.w3.org/1999/xlink">
<g filter="url(#filter0_bi_175_7226)">
<path d="M0 18.5116C0 8.28794 8.28794 0 18.5116 0H42.6388C47.1523 0 51.4405 1.97229 54.3779 5.39922C57.3153 8.82616 61.6035 10.7984 66.117 10.7984H132.883C137.397 10.7984 141.685 8.82616 144.622 5.39922C147.559 1.97229 151.848 0 156.361 0H180.488C190.712 0 199 8.28794 199 18.5116V43.2052C199 47.3957 197.335 51.4147 194.372 54.3779C191.409 57.3411 189.744 61.3601 189.744 65.5507V133.449C189.744 137.64 191.409 141.659 194.372 144.622C197.335 147.585 199 151.604 199 155.795V180.488C199 190.712 190.712 199 180.488 199H155.795C151.604 199 147.585 197.335 144.622 194.372C141.659 191.409 137.64 189.744 133.449 189.744H65.5507C61.3601 189.744 57.3411 191.409 54.3779 194.372C51.4147 197.335 47.3957 199 43.2052 199H18.5116C8.28794 199 0 190.712 0 180.488V155.795C0 151.604 1.66471 147.585 4.62791 144.622C7.5911 141.659 9.25581 137.64 9.25581 133.449V65.5507C9.25581 61.3601 7.5911 57.3411 4.62791 54.3779C1.66471 51.4147 0 47.3957 0 43.2052V18.5116Z" fill="url(#paint0_linear_175_7226)" fill-opacity="0.24"/>
<path d="M0.5 18.5116C0.5 8.56408 8.56408 0.5 18.5116 0.5H42.6388C47.0064 0.5 51.1559 2.40851 53.9983 5.72462C57.0306 9.26238 61.4575 11.2984 66.117 11.2984H132.883C137.543 11.2984 141.969 9.26238 145.002 5.72462C147.844 2.40851 151.994 0.5 156.361 0.5H180.488C190.436 0.5 198.5 8.56408 198.5 18.5116V43.2052C198.5 47.2631 196.888 51.1549 194.019 54.0244C190.962 57.0813 189.244 61.2275 189.244 65.5507V133.449C189.244 137.773 190.962 141.919 194.019 144.976C196.888 147.845 198.5 151.737 198.5 155.795V180.488C198.5 190.436 190.436 198.5 180.488 198.5H155.795C151.737 198.5 147.845 196.888 144.976 194.019C141.919 190.962 137.773 189.244 133.449 189.244H65.5507C61.2275 189.244 57.0813 190.962 54.0244 194.019C51.1549 196.888 47.2631 198.5 43.2052 198.5H18.5116C8.56408 198.5 0.5 190.436 0.5 180.488V155.795C0.5 151.737 2.11203 147.845 4.98146 144.976C8.03843 141.919 9.75581 137.773 9.75581 133.449V65.5507C9.75581 61.2275 8.03843 57.0813 4.98146 54.0244C2.11203 51.1549 0.5 47.2631 0.5 43.2052V18.5116Z" stroke="url(#paint1_linear_175_7226)"/>
</g>
<mask id="mask0_175_7226" style="mask-type:alpha" maskUnits="userSpaceOnUse" x="0" y="0" width="199" height="199">
<path d="M0.5 18.5116C0.5 8.56408 8.56408 0.5 18.5116 0.5H42.6388C47.0064 0.5 51.1559 2.40851 53.9983 5.72462C57.0306 9.26238 61.4575 11.2984 66.117 11.2984H132.883C137.543 11.2984 141.969 9.26238 145.002 5.72462C147.844 2.40851 151.994 0.5 156.361 0.5H180.488C190.436 0.5 198.5 8.56408 198.5 18.5116V43.2052C198.5 47.2631 196.888 51.1549 194.019 54.0244C190.962 57.0813 189.244 61.2275 189.244 65.5507V133.449C189.244 137.773 190.962 141.919 194.019 144.976C196.888 147.845 198.5 151.737 198.5 155.795V180.488C198.5 190.436 190.436 198.5 180.488 198.5H155.795C151.737 198.5 147.845 196.888 144.976 194.019C141.919 190.962 137.773 189.244 133.449 189.244H65.5507C61.2275 189.244 57.0813 190.962 54.0244 194.019C51.1549 196.888 47.2631 198.5 43.2052 198.5H18.5116C8.56408 198.5 0.5 190.436 0.5 180.488V155.795C0.5 151.737 2.11203 147.845 4.98146 144.976C8.03843 141.919 9.75581 137.773 9.75581 133.449V65.5507C9.75581 61.2275 8.03843 57.0813 4.98146 54.0244C2.11203 51.1549 0.5 47.2631 0.5 43.2052V18.5116Z" fill="url(#paint2_linear_175_7226)" fill-opacity="0.24" stroke="url(#paint3_linear_175_7226)"/>
</mask>
<path d="M31.5 51H42L86 80H112.5L156.5 51H167M167 67H156.5L112.5 84.5H86L42 67H31.5M31.5 82H42L86 89H112.5L156.5 82H167M167 97.5H31.5M167 113L156.5 111.5H112.5H86H42L31.5 113M31.5 128.5H42L86 120H112.5L156.5 128.5H167M167 143.5H156.5L112.5 125.5H86L42 143.5H31.5" stroke="#6A56F6" stroke-width="0.6" stroke-linecap="round"/>
<path d="M63.6291 149.32H63.9811L66.3811 155H65.9491L65.1571 153.128H62.4451L61.6531 155H61.2131L63.6291 149.32ZM65.0451 152.792L63.8051 149.816L62.5411 152.792H65.0451ZM67.4035 155V149.32H67.8115V155H67.4035ZM69.254 153.008V152.64H71.558V153.008H69.254ZM74.909 155.08C74.5516 155.08 74.2316 154.987 73.949 154.8C73.6716 154.608 73.4476 154.376 73.277 154.104V156.704H72.877V150.84H73.245V151.672C73.4156 151.405 73.6423 151.189 73.925 151.024C74.2076 150.853 74.5063 150.768 74.821 150.768C75.1143 150.768 75.381 150.829 75.621 150.952C75.861 151.069 76.069 151.232 76.245 151.44C76.4263 151.643 76.565 151.872 76.661 152.128C76.7623 152.384 76.813 152.651 76.813 152.928C76.813 153.312 76.733 153.669 76.573 154C76.413 154.325 76.189 154.587 75.901 154.784C75.6183 154.981 75.2876 155.08 74.909 155.08ZM74.813 154.72C75.0583 154.72 75.277 154.669 75.469 154.568C75.6663 154.467 75.8343 154.331 75.973 154.16C76.1116 153.989 76.2183 153.797 76.293 153.584C76.3676 153.371 76.405 153.152 76.405 152.928C76.405 152.688 76.3623 152.461 76.277 152.248C76.1916 152.029 76.0716 151.837 75.917 151.672C75.7676 151.507 75.5916 151.376 75.389 151.28C75.1916 151.179 74.9756 151.128 74.741 151.128C74.597 151.128 74.4423 151.157 74.277 151.216C74.117 151.275 73.9623 151.357 73.813 151.464C73.669 151.571 73.549 151.693 73.453 151.832C73.357 151.965 73.2983 152.104 73.277 152.248V153.616C73.373 153.819 73.4956 154.005 73.645 154.176C73.7996 154.341 73.9783 154.475 74.181 154.576C74.3836 154.672 74.5943 154.72 74.813 154.72ZM79.6794 155.08C79.3861 155.08 79.1141 155.024 78.8634 154.912C78.6181 154.8 78.4047 154.645 78.2234 154.448C78.0421 154.245 77.9007 154.013 77.7994 153.752C77.6981 153.491 77.6474 153.216 77.6474 152.928C77.6474 152.635 77.6981 152.36 77.7994 152.104C77.9007 151.843 78.0421 151.613 78.2234 151.416C78.4101 151.213 78.6261 151.056 78.8714 150.944C79.1221 150.827 79.3914 150.768 79.6794 150.768C79.9674 150.768 80.2341 150.827 80.4794 150.944C80.7247 151.056 80.9407 151.213 81.1274 151.416C81.3141 151.613 81.4581 151.843 81.5594 152.104C81.6607 152.36 81.7114 152.635 81.7114 152.928C81.7114 153.216 81.6607 153.491 81.5594 153.752C81.4581 154.013 81.3141 154.245 81.1274 154.448C80.9461 154.645 80.7301 154.8 80.4794 154.912C80.2341 155.024 79.9674 155.08 79.6794 155.08ZM78.0474 152.944C78.0474 153.269 78.1194 153.568 78.2634 153.84C78.4127 154.107 78.6101 154.32 78.8554 154.48C79.1007 154.64 79.3727 154.72 79.6714 154.72C79.9701 154.72 80.2421 154.64 80.4874 154.48C80.7381 154.315 80.9354 154.096 81.0794 153.824C81.2287 153.547 81.3034 153.245 81.3034 152.92C81.3034 152.595 81.2287 152.296 81.0794 152.024C80.9354 151.752 80.7381 151.536 80.4874 151.376C80.2421 151.211 79.9727 151.128 79.6794 151.128C79.3807 151.128 79.1087 151.211 78.8634 151.376C78.6181 151.541 78.4207 151.76 78.2714 152.032C78.1221 152.304 78.0474 152.608 78.0474 152.944ZM87.9533 150.84H88.3533L86.5533 155H86.2013L85.2813 152.832L84.3613 155H84.0093L82.2093 150.84H82.6013L84.1933 154.56L85.0493 152.528L84.3533 150.848H84.7133L85.2813 152.216L85.8413 150.848H86.2093L85.5133 152.528L86.3693 154.56L87.9533 150.84ZM90.9062 155.08C90.6129 155.08 90.3409 155.024 90.0902 154.912C89.8396 154.795 89.6209 154.637 89.4342 154.44C89.2529 154.237 89.1089 154.005 89.0022 153.744C88.9009 153.477 88.8502 153.197 88.8502 152.904C88.8502 152.509 88.9382 152.152 89.1142 151.832C89.2902 151.512 89.5329 151.256 89.8422 151.064C90.1516 150.867 90.4982 150.768 90.8822 150.768C91.2769 150.768 91.6262 150.867 91.9302 151.064C92.2342 151.261 92.4742 151.523 92.6502 151.848C92.8316 152.168 92.9222 152.52 92.9222 152.904C92.9222 152.936 92.9222 152.968 92.9222 153C92.9222 153.032 92.9196 153.059 92.9142 153.08H89.2662C89.2876 153.395 89.3756 153.68 89.5302 153.936C89.6849 154.192 89.8822 154.395 90.1222 154.544C90.3676 154.688 90.6342 154.76 90.9222 154.76C91.2102 154.76 91.4822 154.685 91.7382 154.536C91.9942 154.387 92.1729 154.195 92.2742 153.96L92.6262 154.056C92.5462 154.253 92.4182 154.429 92.2422 154.584C92.0716 154.739 91.8689 154.861 91.6342 154.952C91.4049 155.037 91.1622 155.08 90.9062 155.08ZM89.2502 152.768H92.5382C92.5169 152.443 92.4316 152.155 92.2822 151.904C92.1329 151.653 91.9356 151.456 91.6902 151.312C91.4502 151.168 91.1836 151.096 90.8902 151.096C90.5969 151.096 90.3302 151.168 90.0902 151.312C89.8502 151.456 89.6556 151.653 89.5062 151.904C89.3569 152.155 89.2716 152.443 89.2502 152.768ZM95.9303 151.2C95.5569 151.211 95.2289 151.323 94.9463 151.536C94.6689 151.744 94.4743 152.032 94.3623 152.4V155H93.9623V150.84H94.3463V151.864C94.4903 151.571 94.6823 151.333 94.9223 151.152C95.1623 150.965 95.4156 150.859 95.6823 150.832C95.7356 150.827 95.7836 150.824 95.8263 150.824C95.8689 150.824 95.9036 150.824 95.9303 150.824V151.2ZM98.4528 155.08C98.1594 155.08 97.8874 155.024 97.6368 154.912C97.3861 154.795 97.1674 154.637 96.9808 154.44C96.7994 154.237 96.6554 154.005 96.5488 153.744C96.4474 153.477 96.3968 153.197 96.3968 152.904C96.3968 152.509 96.4848 152.152 96.6608 151.832C96.8368 151.512 97.0794 151.256 97.3888 151.064C97.6981 150.867 98.0448 150.768 98.4288 150.768C98.8234 150.768 99.1728 150.867 99.4768 151.064C99.7808 151.261 100.021 151.523 100.197 151.848C100.378 152.168 100.469 152.52 100.469 152.904C100.469 152.936 100.469 152.968 100.469 153C100.469 153.032 100.466 153.059 100.461 153.08H96.8128C96.8341 153.395 96.9221 153.68 97.0768 153.936C97.2314 154.192 97.4288 154.395 97.6688 154.544C97.9141 154.688 98.1808 154.76 98.4688 154.76C98.7568 154.76 99.0288 154.685 99.2848 154.536C99.5408 154.387 99.7194 154.195 99.8208 153.96L100.173 154.056C100.093 154.253 99.9648 154.429 99.7888 154.584C99.6181 154.739 99.4154 154.861 99.1808 154.952C98.9514 155.037 98.7088 155.08 98.4528 155.08ZM96.7968 152.768H100.085C100.063 152.443 99.9781 152.155 99.8288 151.904C99.6794 151.653 99.4821 151.456 99.2368 151.312C98.9968 151.168 98.7301 151.096 98.4368 151.096C98.1434 151.096 97.8768 151.168 97.6368 151.312C97.3968 151.456 97.2021 151.653 97.0528 151.904C96.9034 152.155 96.8181 152.443 96.7968 152.768ZM101.221 152.928C101.221 152.539 101.304 152.181 101.469 151.856C101.634 151.531 101.861 151.269 102.149 151.072C102.437 150.869 102.765 150.768 103.133 150.768C103.496 150.768 103.816 150.864 104.093 151.056C104.376 151.248 104.597 151.477 104.757 151.744V149.16H105.157V154.472C105.157 154.536 105.17 154.584 105.197 154.616C105.229 154.648 105.272 154.667 105.325 154.672V155C105.24 155.011 105.176 155.013 105.133 155.008C105.037 154.992 104.957 154.947 104.893 154.872C104.829 154.797 104.797 154.717 104.797 154.632V154.168C104.626 154.445 104.397 154.667 104.109 154.832C103.821 154.997 103.525 155.08 103.221 155.08C102.933 155.08 102.666 155.021 102.421 154.904C102.176 154.781 101.962 154.619 101.781 154.416C101.605 154.213 101.466 153.984 101.365 153.728C101.269 153.472 101.221 153.205 101.221 152.928ZM104.757 153.6V152.232C104.682 152.029 104.562 151.845 104.397 151.68C104.232 151.509 104.045 151.376 103.837 151.28C103.629 151.179 103.424 151.128 103.221 151.128C102.981 151.128 102.762 151.179 102.565 151.28C102.373 151.381 102.205 151.517 102.061 151.688C101.922 151.859 101.816 152.053 101.741 152.272C101.666 152.485 101.629 152.707 101.629 152.936C101.629 153.171 101.672 153.397 101.757 153.616C101.842 153.829 101.96 154.021 102.109 154.192C102.264 154.357 102.44 154.488 102.637 154.584C102.84 154.675 103.058 154.72 103.293 154.72C103.437 154.72 103.589 154.691 103.749 154.632C103.914 154.573 104.069 154.493 104.213 154.392C104.362 154.285 104.485 154.165 104.581 154.032C104.682 153.893 104.741 153.749 104.757 153.6ZM108.837 149.16H109.245V154.176C109.245 154.368 109.285 154.501 109.365 154.576C109.445 154.645 109.549 154.68 109.677 154.68C109.763 154.68 109.851 154.672 109.941 154.656C110.032 154.64 110.112 154.619 110.181 154.592L110.261 154.92C110.171 154.952 110.059 154.981 109.925 155.008C109.792 155.035 109.677 155.048 109.581 155.048C109.357 155.048 109.176 154.981 109.037 154.848C108.904 154.709 108.837 154.525 108.837 154.296V149.16ZM111.036 155V150.84H111.436V155H111.036ZM111.036 149.896V149.16H111.436V149.896H111.036ZM114.468 155.08C114.18 155.08 113.919 155.021 113.684 154.904C113.455 154.781 113.255 154.619 113.084 154.416C112.919 154.213 112.791 153.984 112.7 153.728C112.609 153.472 112.564 153.205 112.564 152.928C112.564 152.64 112.615 152.365 112.716 152.104C112.823 151.843 112.964 151.613 113.14 151.416C113.321 151.219 113.532 151.061 113.772 150.944C114.017 150.827 114.279 150.768 114.556 150.768C114.881 150.768 115.185 150.856 115.468 151.032C115.751 151.203 115.972 151.419 116.132 151.68V150.84H116.5V156.704H116.1V154.104C115.663 154.755 115.119 155.08 114.468 155.08ZM114.572 154.72C114.807 154.72 115.02 154.672 115.212 154.576C115.409 154.475 115.58 154.344 115.724 154.184C115.873 154.024 115.999 153.845 116.1 153.648V152.288C116.079 152.133 116.02 151.987 115.924 151.848C115.828 151.709 115.708 151.587 115.564 151.48C115.425 151.368 115.273 151.283 115.108 151.224C114.943 151.16 114.78 151.128 114.62 151.128C114.375 151.128 114.151 151.181 113.948 151.288C113.751 151.389 113.577 151.525 113.428 151.696C113.284 151.867 113.172 152.061 113.092 152.28C113.012 152.493 112.972 152.712 112.972 152.936C112.972 153.251 113.041 153.544 113.18 153.816C113.319 154.088 113.508 154.307 113.748 154.472C113.988 154.637 114.263 154.72 114.572 154.72ZM117.87 153.24V150.84H118.27V153.184C118.27 153.701 118.356 154.088 118.526 154.344C118.702 154.595 118.966 154.72 119.318 154.72C119.553 154.72 119.777 154.669 119.99 154.568C120.209 154.461 120.401 154.315 120.566 154.128C120.732 153.936 120.854 153.715 120.934 153.464V150.84H121.334V154.472C121.334 154.536 121.348 154.584 121.374 154.616C121.406 154.648 121.449 154.667 121.502 154.672V155C121.449 155.005 121.406 155.008 121.374 155.008C121.348 155.008 121.324 155.005 121.302 155C121.212 154.989 121.137 154.952 121.078 154.888C121.02 154.819 120.988 154.736 120.982 154.64L120.974 154.016C120.793 154.347 120.542 154.608 120.222 154.8C119.908 154.987 119.566 155.08 119.198 155.08C118.761 155.08 118.43 154.925 118.206 154.616C117.982 154.307 117.87 153.848 117.87 153.24ZM122.766 155V150.84H123.166V155H122.766ZM122.766 149.896V149.16H123.166V149.896H122.766ZM124.294 152.928C124.294 152.539 124.377 152.181 124.542 151.856C124.707 151.531 124.934 151.269 125.222 151.072C125.51 150.869 125.838 150.768 126.206 150.768C126.569 150.768 126.889 150.864 127.166 151.056C127.449 151.248 127.67 151.477 127.83 151.744V149.16H128.23V154.472C128.23 154.536 128.243 154.584 128.27 154.616C128.302 154.648 128.345 154.667 128.398 154.672V155C128.313 155.011 128.249 155.013 128.206 155.008C128.11 154.992 128.03 154.947 127.966 154.872C127.902 154.797 127.87 154.717 127.87 154.632V154.168C127.699 154.445 127.47 154.667 127.182 154.832C126.894 154.997 126.598 155.08 126.294 155.08C126.006 155.08 125.739 155.021 125.494 154.904C125.249 154.781 125.035 154.619 124.854 154.416C124.678 154.213 124.539 153.984 124.438 153.728C124.342 153.472 124.294 153.205 124.294 152.928ZM127.83 153.6V152.232C127.755 152.029 127.635 151.845 127.47 151.68C127.305 151.509 127.118 151.376 126.91 151.28C126.702 151.179 126.497 151.128 126.294 151.128C126.054 151.128 125.835 151.179 125.638 151.28C125.446 151.381 125.278 151.517 125.134 151.688C124.995 151.859 124.889 152.053 124.814 152.272C124.739 152.485 124.702 152.707 124.702 152.936C124.702 153.171 124.745 153.397 124.83 153.616C124.915 153.829 125.033 154.021 125.182 154.192C125.337 154.357 125.513 154.488 125.71 154.584C125.913 154.675 126.131 154.72 126.366 154.72C126.51 154.72 126.662 154.691 126.822 154.632C126.987 154.573 127.142 154.493 127.286 154.392C127.435 154.285 127.558 154.165 127.654 154.032C127.755 153.893 127.814 153.749 127.83 153.6ZM129.664 155V150.84H130.064V155H129.664ZM129.664 149.896V149.16H130.064V149.896H129.664ZM133.336 154.8C133.309 154.811 133.256 154.837 133.176 154.88C133.096 154.923 132.995 154.963 132.872 155C132.749 155.032 132.613 155.048 132.464 155.048C132.32 155.048 132.184 155.021 132.056 154.968C131.933 154.909 131.835 154.824 131.76 154.712C131.685 154.6 131.648 154.464 131.648 154.304V151.168H131.064V150.84H131.648V149.416H132.048V150.84H133.016V151.168H132.048V154.208C132.059 154.363 132.115 154.48 132.216 154.56C132.317 154.635 132.435 154.672 132.568 154.672C132.733 154.672 132.877 154.645 133 154.592C133.123 154.533 133.195 154.496 133.216 154.48L133.336 154.8ZM134.483 156.408C134.568 156.413 134.643 156.413 134.707 156.408C134.776 156.408 134.827 156.397 134.859 156.376C134.907 156.36 134.955 156.317 135.003 156.248C135.056 156.184 135.125 156.053 135.211 155.856C135.296 155.664 135.416 155.379 135.571 155L133.715 150.84H134.139L135.787 154.576L137.315 150.84H137.723L135.443 156.312C135.411 156.397 135.365 156.472 135.307 156.536C135.253 156.605 135.187 156.659 135.107 156.696C135.027 156.739 134.931 156.763 134.819 156.768C134.771 156.773 134.72 156.776 134.667 156.776C134.613 156.781 134.552 156.781 134.483 156.776V156.408ZM64.5882 164.08C64.2948 164.08 64.0228 164.024 63.7722 163.912C63.5268 163.8 63.3135 163.645 63.1322 163.448C62.9508 163.245 62.8095 163.013 62.7082 162.752C62.6068 162.491 62.5562 162.216 62.5562 161.928C62.5562 161.635 62.6068 161.36 62.7082 161.104C62.8095 160.843 62.9508 160.613 63.1322 160.416C63.3188 160.213 63.5348 160.056 63.7802 159.944C64.0308 159.827 64.3002 159.768 64.5882 159.768C64.8762 159.768 65.1428 159.827 65.3882 159.944C65.6335 160.056 65.8495 160.213 66.0362 160.416C66.2228 160.613 66.3668 160.843 66.4682 161.104C66.5695 161.36 66.6202 161.635 66.6202 161.928C66.6202 162.216 66.5695 162.491 66.4682 162.752C66.3668 163.013 66.2228 163.245 66.0362 163.448C65.8548 163.645 65.6388 163.8 65.3882 163.912C65.1428 164.024 64.8762 164.08 64.5882 164.08ZM62.9562 161.944C62.9562 162.269 63.0282 162.568 63.1722 162.84C63.3215 163.107 63.5188 163.32 63.7642 163.48C64.0095 163.64 64.2815 163.72 64.5802 163.72C64.8788 163.72 65.1508 163.64 65.3962 163.48C65.6468 163.315 65.8442 163.096 65.9882 162.824C66.1375 162.547 66.2122 162.245 66.2122 161.92C66.2122 161.595 66.1375 161.296 65.9882 161.024C65.8442 160.752 65.6468 160.536 65.3962 160.376C65.1508 160.211 64.8815 160.128 64.5882 160.128C64.2895 160.128 64.0175 160.211 63.7722 160.376C63.5268 160.541 63.3295 160.76 63.1802 161.032C63.0308 161.304 62.9562 161.608 62.9562 161.944ZM69.7705 164.08C69.4132 164.08 69.0932 163.987 68.8105 163.8C68.5332 163.608 68.3092 163.376 68.1385 163.104V165.704H67.7385V159.84H68.1065V160.672C68.2772 160.405 68.5039 160.189 68.7865 160.024C69.0692 159.853 69.3679 159.768 69.6825 159.768C69.9759 159.768 70.2425 159.829 70.4825 159.952C70.7225 160.069 70.9305 160.232 71.1065 160.44C71.2879 160.643 71.4265 160.872 71.5225 161.128C71.6239 161.384 71.6745 161.651 71.6745 161.928C71.6745 162.312 71.5945 162.669 71.4345 163C71.2745 163.325 71.0505 163.587 70.7625 163.784C70.4799 163.981 70.1492 164.08 69.7705 164.08ZM69.6745 163.72C69.9199 163.72 70.1385 163.669 70.3305 163.568C70.5279 163.467 70.6959 163.331 70.8345 163.16C70.9732 162.989 71.0799 162.797 71.1545 162.584C71.2292 162.371 71.2665 162.152 71.2665 161.928C71.2665 161.688 71.2239 161.461 71.1385 161.248C71.0532 161.029 70.9332 160.837 70.7785 160.672C70.6292 160.507 70.4532 160.376 70.2505 160.28C70.0532 160.179 69.8372 160.128 69.6025 160.128C69.4585 160.128 69.3039 160.157 69.1385 160.216C68.9785 160.275 68.8239 160.357 68.6745 160.464C68.5305 160.571 68.4105 160.693 68.3145 160.832C68.2185 160.965 68.1599 161.104 68.1385 161.248V162.616C68.2345 162.819 68.3572 163.005 68.5065 163.176C68.6612 163.341 68.8399 163.475 69.0425 163.576C69.2452 163.672 69.4559 163.72 69.6745 163.72ZM74.5983 163.8C74.5716 163.811 74.5183 163.837 74.4383 163.88C74.3583 163.923 74.2569 163.963 74.1343 164C74.0116 164.032 73.8756 164.048 73.7263 164.048C73.5823 164.048 73.4463 164.021 73.3183 163.968C73.1956 163.909 73.0969 163.824 73.0223 163.712C72.9476 163.6 72.9103 163.464 72.9103 163.304V160.168H72.3263V159.84H72.9103V158.416H73.3103V159.84H74.2783V160.168H73.3103V163.208C73.3209 163.363 73.3769 163.48 73.4783 163.56C73.5796 163.635 73.6969 163.672 73.8303 163.672C73.9956 163.672 74.1396 163.645 74.2623 163.592C74.3849 163.533 74.4569 163.496 74.4783 163.48L74.5983 163.8ZM75.4648 164V159.84H75.8648V164H75.4648ZM75.4648 158.896V158.16H75.8648V158.896H75.4648ZM83.393 164H82.993V161.68C82.993 161.152 82.9104 160.763 82.745 160.512C82.585 160.261 82.337 160.136 82.001 160.136C81.6597 160.136 81.3557 160.259 81.089 160.504C80.8277 160.744 80.6437 161.053 80.537 161.432V164H80.137V161.68C80.137 161.147 80.057 160.757 79.897 160.512C79.737 160.261 79.489 160.136 79.153 160.136C78.8117 160.136 78.5077 160.256 78.241 160.496C77.9797 160.731 77.793 161.04 77.681 161.424V164H77.281V159.84H77.657V160.832C77.833 160.491 78.0597 160.229 78.337 160.048C78.6144 159.861 78.9184 159.768 79.249 159.768C79.5957 159.768 79.8784 159.872 80.097 160.08C80.321 160.283 80.4544 160.555 80.497 160.896C80.6944 160.523 80.929 160.243 81.201 160.056C81.473 159.864 81.7824 159.768 82.129 159.768C82.3584 159.768 82.5504 159.811 82.705 159.896C82.865 159.976 82.9957 160.096 83.097 160.256C83.2037 160.411 83.2784 160.603 83.321 160.832C83.369 161.061 83.393 161.32 83.393 161.608V164ZM84.7613 164V159.84H85.1613V164H84.7613ZM84.7613 158.896V158.16H85.1613V158.896H84.7613ZM86.2096 163.712L89.1376 160.152H86.2576V159.84H89.6016V160.128L86.6816 163.688H89.5856V164H86.2096V163.712ZM90.3155 162.8C90.3155 162.549 90.3901 162.333 90.5395 162.152C90.6888 161.965 90.8941 161.821 91.1555 161.72C91.4168 161.613 91.7181 161.56 92.0595 161.56C92.2728 161.56 92.4941 161.579 92.7235 161.616C92.9528 161.653 93.1581 161.704 93.3395 161.768V161.376C93.3395 160.992 93.2275 160.685 93.0035 160.456C92.7848 160.227 92.4808 160.112 92.0915 160.112C91.8835 160.112 91.6675 160.155 91.4435 160.24C91.2195 160.325 90.9901 160.448 90.7555 160.608L90.5875 160.32C90.8595 160.139 91.1208 160.003 91.3715 159.912C91.6275 159.816 91.8808 159.768 92.1315 159.768C92.6275 159.768 93.0195 159.915 93.3075 160.208C93.5955 160.501 93.7395 160.901 93.7395 161.408V163.472C93.7395 163.536 93.7528 163.584 93.7795 163.616C93.8115 163.648 93.8568 163.667 93.9155 163.672V164C93.8675 164.005 93.8275 164.008 93.7955 164.008C93.7635 164.008 93.7368 164.008 93.7155 164.008C93.6141 163.992 93.5341 163.949 93.4755 163.88C93.4221 163.811 93.3928 163.733 93.3875 163.648V163.32C93.1955 163.56 92.9475 163.747 92.6435 163.88C92.3448 164.013 92.0301 164.08 91.6995 164.08C91.4381 164.08 91.2008 164.024 90.9875 163.912C90.7795 163.8 90.6141 163.648 90.4915 163.456C90.3741 163.259 90.3155 163.04 90.3155 162.8ZM93.1795 163.144C93.2328 163.075 93.2728 163.008 93.2995 162.944C93.3261 162.88 93.3395 162.821 93.3395 162.768V162.08C93.1475 162.005 92.9475 161.949 92.7395 161.912C92.5315 161.875 92.3181 161.856 92.0995 161.856C91.6835 161.856 91.3448 161.939 91.0835 162.104C90.8275 162.269 90.6995 162.493 90.6995 162.776C90.6995 162.952 90.7448 163.115 90.8355 163.264C90.9261 163.413 91.0515 163.533 91.2115 163.624C91.3768 163.715 91.5661 163.76 91.7795 163.76C92.0781 163.76 92.3528 163.704 92.6035 163.592C92.8595 163.475 93.0515 163.325 93.1795 163.144ZM96.9411 163.8C96.9144 163.811 96.8611 163.837 96.7811 163.88C96.7011 163.923 96.5998 163.963 96.4771 164C96.3544 164.032 96.2184 164.048 96.0691 164.048C95.9251 164.048 95.7891 164.021 95.6611 163.968C95.5384 163.909 95.4398 163.824 95.3651 163.712C95.2904 163.6 95.2531 163.464 95.2531 163.304V160.168H94.6691V159.84H95.2531V158.416H95.6531V159.84H96.6211V160.168H95.6531V163.208C95.6638 163.363 95.7198 163.48 95.8211 163.56C95.9224 163.635 96.0398 163.672 96.1731 163.672C96.3384 163.672 96.4824 163.645 96.6051 163.592C96.7278 163.533 96.7998 163.496 96.8211 163.48L96.9411 163.8ZM97.8076 164V159.84H98.2076V164H97.8076ZM97.8076 158.896V158.16H98.2076V158.896H97.8076ZM101.368 164.08C101.075 164.08 100.803 164.024 100.552 163.912C100.307 163.8 100.093 163.645 99.9118 163.448C99.7305 163.245 99.5892 163.013 99.4878 162.752C99.3865 162.491 99.3358 162.216 99.3358 161.928C99.3358 161.635 99.3865 161.36 99.4878 161.104C99.5892 160.843 99.7305 160.613 99.9118 160.416C100.099 160.213 100.315 160.056 100.56 159.944C100.811 159.827 101.08 159.768 101.368 159.768C101.656 159.768 101.923 159.827 102.168 159.944C102.413 160.056 102.629 160.213 102.816 160.416C103.003 160.613 103.147 160.843 103.248 161.104C103.349 161.36 103.4 161.635 103.4 161.928C103.4 162.216 103.349 162.491 103.248 162.752C103.147 163.013 103.003 163.245 102.816 163.448C102.635 163.645 102.419 163.8 102.168 163.912C101.923 164.024 101.656 164.08 101.368 164.08ZM99.7358 161.944C99.7358 162.269 99.8078 162.568 99.9518 162.84C100.101 163.107 100.299 163.32 100.544 163.48C100.789 163.64 101.061 163.72 101.36 163.72C101.659 163.72 101.931 163.64 102.176 163.48C102.427 163.315 102.624 163.096 102.768 162.824C102.917 162.547 102.992 162.245 102.992 161.92C102.992 161.595 102.917 161.296 102.768 161.024C102.624 160.752 102.427 160.536 102.176 160.376C101.931 160.211 101.661 160.128 101.368 160.128C101.069 160.128 100.797 160.211 100.552 160.376C100.307 160.541 100.109 160.76 99.9598 161.032C99.8105 161.304 99.7358 161.608 99.7358 161.944ZM107.918 164H107.518V161.68C107.518 161.147 107.441 160.757 107.286 160.512C107.137 160.261 106.897 160.136 106.566 160.136C106.332 160.136 106.1 160.192 105.87 160.304C105.646 160.416 105.449 160.571 105.278 160.768C105.113 160.96 104.993 161.179 104.918 161.424V164H104.518V159.84H104.894V160.832C105.006 160.619 105.156 160.435 105.342 160.28C105.529 160.12 105.737 159.995 105.966 159.904C106.196 159.813 106.433 159.768 106.678 159.768C106.908 159.768 107.1 159.811 107.254 159.896C107.414 159.976 107.542 160.093 107.638 160.248C107.74 160.403 107.812 160.595 107.854 160.824C107.897 161.053 107.918 161.315 107.918 161.608V164ZM113.27 164.08C112.977 164.08 112.705 164.024 112.454 163.912C112.204 163.795 111.985 163.637 111.798 163.44C111.617 163.237 111.473 163.005 111.366 162.744C111.265 162.477 111.214 162.197 111.214 161.904C111.214 161.509 111.302 161.152 111.478 160.832C111.654 160.512 111.897 160.256 112.206 160.064C112.516 159.867 112.862 159.768 113.246 159.768C113.641 159.768 113.99 159.867 114.294 160.064C114.598 160.261 114.838 160.523 115.014 160.848C115.196 161.168 115.286 161.52 115.286 161.904C115.286 161.936 115.286 161.968 115.286 162C115.286 162.032 115.284 162.059 115.278 162.08H111.63C111.652 162.395 111.74 162.68 111.894 162.936C112.049 163.192 112.246 163.395 112.486 163.544C112.732 163.688 112.998 163.76 113.286 163.76C113.574 163.76 113.846 163.685 114.102 163.536C114.358 163.387 114.537 163.195 114.638 162.96L114.99 163.056C114.91 163.253 114.782 163.429 114.606 163.584C114.436 163.739 114.233 163.861 113.998 163.952C113.769 164.037 113.526 164.08 113.27 164.08ZM111.614 161.768H114.902C114.881 161.443 114.796 161.155 114.646 160.904C114.497 160.653 114.3 160.456 114.054 160.312C113.814 160.168 113.548 160.096 113.254 160.096C112.961 160.096 112.694 160.168 112.454 160.312C112.214 160.456 112.02 160.653 111.87 160.904C111.721 161.155 111.636 161.443 111.614 161.768ZM119.726 164H119.326V161.68C119.326 161.147 119.249 160.757 119.094 160.512C118.945 160.261 118.705 160.136 118.374 160.136C118.14 160.136 117.908 160.192 117.678 160.304C117.454 160.416 117.257 160.571 117.086 160.768C116.921 160.96 116.801 161.179 116.726 161.424V164H116.326V159.84H116.702V160.832C116.814 160.619 116.964 160.435 117.15 160.28C117.337 160.12 117.545 159.995 117.774 159.904C118.004 159.813 118.241 159.768 118.486 159.768C118.716 159.768 118.908 159.811 119.062 159.896C119.222 159.976 119.35 160.093 119.446 160.248C119.548 160.403 119.62 160.595 119.662 160.824C119.705 161.053 119.726 161.315 119.726 161.608V164ZM122.776 164.064C122.493 164.064 122.229 164.005 121.984 163.888C121.744 163.771 121.536 163.611 121.36 163.408C121.189 163.2 121.053 162.971 120.952 162.72C120.856 162.464 120.808 162.2 120.808 161.928C120.808 161.645 120.853 161.373 120.944 161.112C121.04 160.851 121.173 160.621 121.344 160.424C121.52 160.221 121.725 160.061 121.96 159.944C122.194 159.827 122.456 159.768 122.744 159.768C123.106 159.768 123.421 159.864 123.688 160.056C123.96 160.243 124.189 160.472 124.376 160.744V159.84H124.744V164.08C124.744 164.453 124.653 164.768 124.472 165.024C124.29 165.28 124.05 165.469 123.752 165.592C123.453 165.72 123.13 165.784 122.784 165.784C122.298 165.784 121.912 165.696 121.624 165.52C121.341 165.344 121.112 165.112 120.936 164.824L121.208 164.64C121.373 164.917 121.597 165.123 121.88 165.256C122.162 165.389 122.464 165.456 122.784 165.456C123.066 165.456 123.325 165.403 123.56 165.296C123.8 165.195 123.989 165.04 124.128 164.832C124.272 164.629 124.344 164.379 124.344 164.08V163.168C124.178 163.44 123.952 163.659 123.664 163.824C123.381 163.984 123.085 164.064 122.776 164.064ZM122.872 163.72C123.048 163.72 123.218 163.688 123.384 163.624C123.549 163.56 123.701 163.475 123.84 163.368C123.978 163.256 124.093 163.133 124.184 163C124.274 162.867 124.328 162.733 124.344 162.6V161.232C124.264 161.019 124.141 160.829 123.976 160.664C123.816 160.493 123.634 160.363 123.432 160.272C123.229 160.176 123.021 160.128 122.808 160.128C122.557 160.128 122.333 160.181 122.136 160.288C121.938 160.395 121.77 160.536 121.632 160.712C121.498 160.883 121.394 161.077 121.32 161.296C121.25 161.509 121.216 161.723 121.216 161.936C121.216 162.176 121.258 162.403 121.344 162.616C121.429 162.829 121.546 163.021 121.696 163.192C121.85 163.357 122.026 163.488 122.224 163.584C122.426 163.675 122.642 163.72 122.872 163.72ZM126.154 164V159.84H126.554V164H126.154ZM126.154 158.896V158.16H126.554V158.896H126.154ZM131.37 164H130.97V161.68C130.97 161.147 130.893 160.757 130.738 160.512C130.589 160.261 130.349 160.136 130.018 160.136C129.784 160.136 129.552 160.192 129.322 160.304C129.098 160.416 128.901 160.571 128.73 160.768C128.565 160.96 128.445 161.179 128.37 161.424V164H127.97V159.84H128.346V160.832C128.458 160.619 128.608 160.435 128.794 160.28C128.981 160.12 129.189 159.995 129.418 159.904C129.648 159.813 129.885 159.768 130.13 159.768C130.36 159.768 130.552 159.811 130.706 159.896C130.866 159.976 130.994 160.093 131.09 160.248C131.192 160.403 131.264 160.595 131.306 160.824C131.349 161.053 131.37 161.315 131.37 161.608V164ZM134.508 164.08C134.214 164.08 133.942 164.024 133.692 163.912C133.441 163.795 133.222 163.637 133.036 163.44C132.854 163.237 132.71 163.005 132.604 162.744C132.502 162.477 132.452 162.197 132.452 161.904C132.452 161.509 132.54 161.152 132.716 160.832C132.892 160.512 133.134 160.256 133.444 160.064C133.753 159.867 134.1 159.768 134.484 159.768C134.878 159.768 135.228 159.867 135.532 160.064C135.836 160.261 136.076 160.523 136.252 160.848C136.433 161.168 136.524 161.52 136.524 161.904C136.524 161.936 136.524 161.968 136.524 162C136.524 162.032 136.521 162.059 136.516 162.08H132.868C132.889 162.395 132.977 162.68 133.132 162.936C133.286 163.192 133.484 163.395 133.724 163.544C133.969 163.688 134.236 163.76 134.524 163.76C134.812 163.76 135.084 163.685 135.34 163.536C135.596 163.387 135.774 163.195 135.876 162.96L136.228 163.056C136.148 163.253 136.02 163.429 135.844 163.584C135.673 163.739 135.47 163.861 135.236 163.952C135.006 164.037 134.764 164.08 134.508 164.08ZM132.852 161.768H136.14C136.118 161.443 136.033 161.155 135.884 160.904C135.734 160.653 135.537 160.456 135.292 160.312C135.052 160.168 134.785 160.096 134.492 160.096C134.198 160.096 133.932 160.168 133.692 160.312C133.452 160.456 133.257 160.653 133.108 160.904C132.958 161.155 132.873 161.443 132.852 161.768Z" fill="white" fill-opacity="0.42"/>
<path fill-rule="evenodd" clip-rule="evenodd" d="M168 147C167.448 147 167 146.552 167 146L167 141.832C167 141.28 167.448 140.832 168 140.832L178 140.832C178.552 140.832 179 141.28 179 141.832L179 146C179 146.552 178.552 147 178 147L168 147ZM168 131.581C167.448 131.581 167 131.133 167 130.581L167 126.414C167 125.861 167.448 125.414 168 125.414L178 125.414C178.552 125.414 179 125.861 179 126.414L179 130.581C179 131.133 178.552 131.581 178 131.581L168 131.581ZM167 115.162C167 115.714 167.448 116.162 168 116.162L178 116.162C178.552 116.162 179 115.714 179 115.162L179 110.994C179 110.442 178.552 109.994 178 109.994L168 109.994C167.448 109.994 167 110.442 167 110.994L167 115.162ZM168 100.743C167.448 100.743 167 100.295 167 99.743L167 95.5754C167 95.0232 167.448 94.5754 168 94.5754L178 94.5754C178.552 94.5754 179 95.0232 179 95.5754L179 99.743C179 100.295 178.552 100.743 178 100.743L168 100.743ZM167 84.3242C167 84.8765 167.448 85.3242 168 85.3242L178 85.3242C178.552 85.3242 179 84.8765 179 84.3242L179 80.1566C179 79.6043 178.552 79.1566 178 79.1566L168 79.1566C167.448 79.1566 167 79.6043 167 80.1566L167 84.3242ZM168 69.9053C167.448 69.9053 167 69.4576 167 68.9053L167 64.7378C167 64.1855 167.448 63.7378 168 63.7378L178 63.7378C178.552 63.7378 179 64.1855 179 64.7378L179 68.9053C179 69.4576 178.552 69.9053 178 69.9053L168 69.9053ZM167 53.4865C167 54.0388 167.448 54.4865 168 54.4865L178 54.4865C178.552 54.4865 179 54.0388 179 53.4865L179 49.319C179 48.7667 178.552 48.319 178 48.319L168 48.319C167.448 48.319 167 48.7667 167 49.3189L167 53.4865Z" fill="#6A56F6"/>
<path fill-rule="evenodd" clip-rule="evenodd" d="M21 147C20.4477 147 20 146.552 20 146L20 141.832C20 141.28 20.4477 140.832 21 140.832L31 140.832C31.5523 140.832 32 141.28 32 141.832L32 146C32 146.552 31.5523 147 31 147L21 147ZM21 131.581C20.4477 131.581 20 131.133 20 130.581L20 126.414C20 125.861 20.4477 125.414 21 125.414L31 125.414C31.5523 125.414 32 125.861 32 126.414L32 130.581C32 131.133 31.5523 131.581 31 131.581L21 131.581ZM20 115.162C20 115.714 20.4477 116.162 21 116.162L31 116.162C31.5523 116.162 32 115.714 32 115.162L32 110.994C32 110.442 31.5523 109.994 31 109.994L21 109.994C20.4477 109.994 20 110.442 20 110.994L20 115.162ZM21 100.743C20.4477 100.743 20 100.295 20 99.743L20 95.5754C20 95.0232 20.4477 94.5754 21 94.5754L31 94.5754C31.5523 94.5754 32 95.0232 32 95.5754L32 99.743C32 100.295 31.5523 100.743 31 100.743L21 100.743ZM20 84.3242C20 84.8765 20.4477 85.3242 21 85.3242L31 85.3242C31.5523 85.3242 32 84.8765 32 84.3242L32 80.1566C32 79.6043 31.5523 79.1566 31 79.1566L21 79.1566C20.4477 79.1566 20 79.6043 20 80.1566L20 84.3242ZM21 69.9053C20.4477 69.9053 20 69.4576 20 68.9053L20 64.7378C20 64.1855 20.4477 63.7378 21 63.7378L31 63.7378C31.5523 63.7378 32 64.1855 32 64.7378L32 68.9053C32 69.4576 31.5523 69.9053 31 69.9053L21 69.9053ZM20 53.4865C20 54.0388 20.4477 54.4865 21 54.4865L31 54.4865C31.5523 54.4865 32 54.0388 32 53.4865L32 49.319C32 48.7667 31.5523 48.319 31 48.319L21 48.319C20.4477 48.319 20 48.7667 20 49.3189L20 53.4865Z" fill="#6A56F6"/>
<g filter="url(#filter1_ddddd_175_7226)">
<rect x="57" y="55" width="84" height="84" rx="10" fill="url(#paint4_linear_175_7226)"/>
<rect x="57.75" y="55.75" width="82.5" height="82.5" rx="9.25" stroke="url(#paint5_linear_175_7226)" stroke-width="1.5"/>
<path d="M69.244 76C68.948 76 68.676 75.928 68.428 75.784C68.188 75.64 67.996 75.444 67.852 75.196C67.708 74.948 67.636 74.676 67.636 74.38V73.804H69.076V74.332C69.076 74.396 69.096 74.448 69.136 74.488C69.176 74.528 69.228 74.548 69.292 74.548H74.596C74.66 74.548 74.712 74.528 74.752 74.488C74.8 74.448 74.824 74.396 74.824 74.332V72.616C74.824 72.56 74.8 72.512 74.752 72.472C74.712 72.424 74.66 72.4 74.596 72.4H69.244C68.948 72.4 68.676 72.328 68.428 72.184C68.188 72.04 67.996 71.848 67.852 71.608C67.708 71.36 67.636 71.088 67.636 70.792V68.98C67.636 68.684 67.708 68.412 67.852 68.164C67.996 67.916 68.188 67.72 68.428 67.576C68.676 67.432 68.948 67.36 69.244 67.36H74.656C74.952 67.36 75.22 67.432 75.46 67.576C75.708 67.72 75.904 67.916 76.048 68.164C76.2 68.412 76.276 68.684 76.276 68.98V69.556H74.824V69.028C74.824 68.964 74.8 68.912 74.752 68.872C74.712 68.832 74.66 68.812 74.596 68.812H69.292C69.228 68.812 69.176 68.832 69.136 68.872C69.096 68.912 69.076 68.964 69.076 69.028V70.744C69.076 70.8 69.096 70.852 69.136 70.9C69.176 70.94 69.228 70.96 69.292 70.96H74.656C74.952 70.96 75.22 71.032 75.46 71.176C75.708 71.32 75.904 71.516 76.048 71.764C76.2 72.004 76.276 72.272 76.276 72.568V74.38C76.276 74.676 76.2 74.948 76.048 75.196C75.904 75.444 75.708 75.64 75.46 75.784C75.22 75.928 74.952 76 74.656 76H69.244ZM79.4103 76C79.1143 76 78.8423 75.928 78.5943 75.784C78.3463 75.64 78.1503 75.444 78.0063 75.196C77.8623 74.948 77.7903 74.676 77.7903 74.38V68.98C77.7903 68.684 77.8623 68.412 78.0063 68.164C78.1503 67.916 78.3463 67.72 78.5943 67.576C78.8423 67.432 79.1143 67.36 79.4103 67.36H84.8103C85.1063 67.36 85.3743 67.432 85.6143 67.576C85.8623 67.72 86.0583 67.916 86.2023 68.164C86.3543 68.412 86.4303 68.684 86.4303 68.98V74.38C86.4303 74.676 86.3543 74.948 86.2023 75.196C86.0583 75.444 85.8623 75.64 85.6143 75.784C85.3743 75.928 85.1063 76 84.8103 76H79.4103ZM79.4463 74.548H84.7623C84.8183 74.548 84.8663 74.528 84.9063 74.488C84.9543 74.448 84.9783 74.396 84.9783 74.332V69.028C84.9783 68.964 84.9543 68.912 84.9063 68.872C84.8663 68.832 84.8183 68.812 84.7623 68.812H79.4463C79.3903 68.812 79.3383 68.832 79.2903 68.872C79.2503 68.912 79.2303 68.964 79.2303 69.028V74.332C79.2303 74.396 79.2503 74.448 79.2903 74.488C79.3383 74.528 79.3903 74.548 79.4463 74.548ZM88.0038 76V67.348H89.4438V74.548H96.6438V76H88.0038ZM101.422 76V67.36H108.442C108.738 67.36 109.006 67.432 109.246 67.576C109.494 67.72 109.69 67.916 109.834 68.164C109.986 68.412 110.062 68.684 110.062 68.98V74.38C110.062 74.676 109.986 74.948 109.834 75.196C109.69 75.444 109.494 75.64 109.246 75.784C109.006 75.928 108.738 76 108.442 76H101.422ZM103.078 74.548H108.394C108.45 74.548 108.498 74.528 108.538 74.488C108.586 74.448 108.61 74.396 108.61 74.332V69.028C108.61 68.964 108.586 68.912 108.538 68.872C108.498 68.832 108.45 68.812 108.394 68.812H103.078C103.014 68.812 102.958 68.832 102.91 68.872C102.87 68.912 102.85 68.964 102.85 69.028V74.332C102.85 74.396 102.87 74.448 102.91 74.488C102.958 74.528 103.014 74.548 103.078 74.548ZM111.669 76V67.36H119.601V68.812H113.121V70.96H118.341V72.4H113.121V74.548H119.601V76H111.669ZM120.953 76V75.664L124.289 71.68L120.953 67.696V67.36H122.561L125.249 70.54L127.925 67.36H129.533V67.696L126.185 71.68L129.533 75.652V76H127.925L125.237 72.82L122.561 76H120.953ZM69.292 88C68.996 88 68.724 87.928 68.476 87.784C68.228 87.64 68.032 87.444 67.888 87.196C67.744 86.948 67.672 86.676 67.672 86.38V80.98C67.672 80.684 67.744 80.412 67.888 80.164C68.032 79.916 68.228 79.72 68.476 79.576C68.724 79.432 68.996 79.36 69.292 79.36H76.288V80.812H69.544C69.416 80.812 69.312 80.852 69.232 80.932C69.152 81.004 69.112 81.104 69.112 81.232V86.128C69.112 86.256 69.152 86.36 69.232 86.44C69.312 86.512 69.416 86.548 69.544 86.548H76.288V88H69.292ZM77.7552 88V78.76H79.1832V81.04H83.2272C83.5152 81.04 83.7792 81.116 84.0192 81.268C84.2672 81.412 84.4632 81.604 84.6072 81.844C84.7512 82.084 84.8232 82.352 84.8232 82.648V88H83.3952V82.696C83.3952 82.632 83.3712 82.58 83.3232 82.54C83.2832 82.492 83.2352 82.468 83.1792 82.468H79.4112C79.3552 82.468 79.3032 82.492 79.2552 82.54C79.2072 82.58 79.1832 82.632 79.1832 82.696V88H77.7552ZM86.0102 88V81.04H87.4382V88H86.0102ZM86.0102 80.2V78.76H87.4382V80.2H86.0102ZM88.8758 90.76V81.04H94.3478C94.6358 81.04 94.8998 81.116 95.1398 81.268C95.3878 81.412 95.5838 81.604 95.7278 81.844C95.8718 82.084 95.9438 82.352 95.9438 82.648V86.392C95.9438 86.688 95.8718 86.956 95.7278 87.196C95.5838 87.436 95.3878 87.632 95.1398 87.784C94.8998 87.928 94.6358 88 94.3478 88H90.3038V90.76H88.8758ZM90.5318 86.572H94.2998C94.3558 86.572 94.4038 86.552 94.4438 86.512C94.4918 86.464 94.5158 86.408 94.5158 86.344V82.696C94.5158 82.632 94.4918 82.58 94.4438 82.54C94.4038 82.492 94.3558 82.468 94.2998 82.468H90.5318C90.4758 82.468 90.4238 82.492 90.3758 82.54C90.3278 82.58 90.3038 82.632 90.3038 82.696V86.344C90.3038 86.408 90.3278 86.464 90.3758 86.512C90.4238 86.552 90.4758 86.572 90.5318 86.572Z" fill="#6A56F6"/>
<g clip-path="url(#clip0_175_7226)">
<path d="M67.8321 52.859L-62.4399 232.163" stroke="white" stroke-opacity="0.24" stroke-width="3"/>
<path d="M72.3067 55.4424L-57.9653 234.746" stroke="white" stroke-opacity="0.24" stroke-width="3"/>
<path d="M76.7814 58.0258L-53.4907 237.33" stroke="white" stroke-opacity="0.24" stroke-width="3"/>
<path d="M81.256 60.6093L-49.016 239.913" stroke="white" stroke-opacity="0.24" stroke-width="3"/>
<path d="M85.7306 63.1927L-44.5414 242.497" stroke="white" stroke-opacity="0.24" stroke-width="3"/>
<path d="M90.2052 65.7761L-40.0668 245.08" stroke="white" stroke-opacity="0.24" stroke-width="3"/>
<path d="M94.6798 68.3595L-35.5922 247.664" stroke="white" stroke-opacity="0.24" stroke-width="3"/>
<path d="M99.1545 70.943L-31.1176 250.247" stroke="white" stroke-opacity="0.24" stroke-width="3"/>
<path d="M103.629 73.5264L-26.6429 252.83" stroke="white" stroke-opacity="0.24" stroke-width="3"/>
<path d="M108.104 76.1098L-22.1683 255.414" stroke="white" stroke-opacity="0.24" stroke-width="3"/>
<path d="M112.578 78.6932L-17.6937 257.997" stroke="white" stroke-opacity="0.24" stroke-width="3"/>
<path d="M117.053 81.2766L-13.2191 260.581" stroke="white" stroke-opacity="0.24" stroke-width="3"/>
<path d="M121.528 83.86L-8.74448 263.164" stroke="white" stroke-opacity="0.24" stroke-width="3"/>
<path d="M126.002 86.4435L-4.26987 265.748" stroke="white" stroke-opacity="0.24" stroke-width="3"/>
<path d="M130.477 89.0269L0.204746 268.331" stroke="white" stroke-opacity="0.24" stroke-width="3"/>
<path d="M134.951 91.6103L4.67936 270.914" stroke="white" stroke-opacity="0.24" stroke-width="3"/>
<path d="M139.426 94.1937L9.15397 273.498" stroke="white" stroke-opacity="0.24" stroke-width="3"/>
<path d="M143.901 96.7772L13.6286 276.081" stroke="white" stroke-opacity="0.24" stroke-width="3"/>
<path d="M148.375 99.3606L18.1032 278.665" stroke="white" stroke-opacity="0.24" stroke-width="3"/>
<path d="M152.85 101.944L22.5778 281.248" stroke="white" stroke-opacity="0.24" stroke-width="3"/>
<path d="M157.324 104.527L27.0524 283.831" stroke="white" stroke-opacity="0.24" stroke-width="3"/>
<path d="M161.799 107.111L31.5271 286.415" stroke="white" stroke-opacity="0.24" stroke-width="3"/>
<path d="M166.274 109.694L36.0017 288.998" stroke="white" stroke-opacity="0.24" stroke-width="3"/>
<path d="M170.748 112.278L40.4763 291.582" stroke="white" stroke-opacity="0.24" stroke-width="3"/>
<path d="M175.223 114.861L44.9509 294.165" stroke="white" stroke-opacity="0.24" stroke-width="3"/>
<path d="M179.698 117.445L49.4255 296.749" stroke="white" stroke-opacity="0.24" stroke-width="3"/>
<path d="M184.172 120.028L53.9001 299.332" stroke="white" stroke-opacity="0.24" stroke-width="3"/>
<path d="M188.647 122.611L58.3748 301.915" stroke="white" stroke-opacity="0.24" stroke-width="3"/>
<path d="M193.121 125.195L62.8493 304.499" stroke="white" stroke-opacity="0.24" stroke-width="3"/>
<path d="M197.596 127.778L67.324 307.082" stroke="white" stroke-opacity="0.24" stroke-width="3"/>
<path d="M202.071 130.362L71.7986 309.666" stroke="white" stroke-opacity="0.24" stroke-width="3"/>
</g>
</g>
<path d="M18.5 12H35.1043C37.9426 12 40.6889 13.006 42.8556 14.8394L49.1444 20.1606C51.3111 21.994 54.0574 23 56.8957 23H92.5M183 12H162.896C160.057 12 157.311 13.006 155.144 14.8394L148.856 20.1606C146.689 21.994 143.943 23 141.104 23H108" stroke="white" stroke-opacity="0.24" stroke-width="0.5" stroke-linecap="round"/>
<rect x="97" y="20" width="6" height="6" rx="1" fill="white" fill-opacity="0.24"/>
<rect x="15" y="9" width="6" height="6" rx="1" fill="white" fill-opacity="0.24"/>
<rect x="180" y="9" width="6" height="6" rx="1" fill="white" fill-opacity="0.24"/>
<path d="M18.5 187H35.1043C37.9426 187 40.6889 185.994 42.8556 184.161L49.1444 178.839C51.3111 177.006 54.0574 176 56.8957 176H92.5M183 187H162.896C160.057 187 157.311 185.994 155.144 184.161L148.856 178.839C146.689 177.006 143.943 176 141.104 176H108" stroke="white" stroke-opacity="0.24" stroke-width="0.5" stroke-linecap="round"/>
<rect width="6" height="6" rx="1" transform="matrix(1 0 0 -1 97 179)" fill="white" fill-opacity="0.24"/>
<rect width="6" height="6" rx="1" transform="matrix(1 0 0 -1 180 190)" fill="white" fill-opacity="0.24"/>
<rect width="6" height="6" rx="1" transform="matrix(1 0 0 -1 15 190)" fill="white" fill-opacity="0.24"/>
<defs>
<filter id="filter0_bi_175_7226" x="-32" y="-32" width="263" height="263" filterUnits="userSpaceOnUse" color-interpolation-filters="sRGB">
<feFlood flood-opacity="0" result="BackgroundImageFix"/>
<feGaussianBlur in="BackgroundImageFix" stdDeviation="16"/>
<feComposite in2="SourceAlpha" operator="in" result="effect1_backgroundBlur_175_7226"/>
<feBlend mode="normal" in="SourceGraphic" in2="effect1_backgroundBlur_175_7226" result="shape"/>
<feColorMatrix in="SourceAlpha" type="matrix" values="0 0 0 0 0 0 0 0 0 0 0 0 0 0 0 0 0 0 127 0" result="hardAlpha"/>
<feOffset dy="16"/>
<feGaussianBlur stdDeviation="21"/>
<feComposite in2="hardAlpha" operator="arithmetic" k2="-1" k3="1"/>
<feColorMatrix type="matrix" values="0 0 0 0 1 0 0 0 0 1 0 0 0 0 1 0 0 0 0.12 0"/>
<feBlend mode="normal" in2="shape" result="effect2_innerShadow_175_7226"/>
</filter>
<filter id="filter1_ddddd_175_7226" x="42" y="52" width="114" height="155" filterUnits="userSpaceOnUse" color-interpolation-filters="sRGB">
<feFlood flood-opacity="0" result="BackgroundImageFix"/>
<feColorMatrix in="SourceAlpha" type="matrix" values="0 0 0 0 0 0 0 0 0 0 0 0 0 0 0 0 0 0 127 0" result="hardAlpha"/>
<feOffset dy="2"/>
<feGaussianBlur stdDeviation="2.5"/>
<feColorMatrix type="matrix" values="0 0 0 0 0 0 0 0 0 0 0 0 0 0 0 0 0 0 0.41 0"/>
<feBlend mode="normal" in2="BackgroundImageFix" result="effect1_dropShadow_175_7226"/>
<feColorMatrix in="SourceAlpha" type="matrix" values="0 0 0 0 0 0 0 0 0 0 0 0 0 0 0 0 0 0 127 0" result="hardAlpha"/>
<feOffset dy="8"/>
<feGaussianBlur stdDeviation="4"/>
<feColorMatrix type="matrix" values="0 0 0 0 0 0 0 0 0 0 0 0 0 0 0 0 0 0 0.36 0"/>
<feBlend mode="normal" in2="effect1_dropShadow_175_7226" result="effect2_dropShadow_175_7226"/>
<feColorMatrix in="SourceAlpha" type="matrix" values="0 0 0 0 0 0 0 0 0 0 0 0 0 0 0 0 0 0 127 0" result="hardAlpha"/>
<feOffset dy="19"/>
<feGaussianBlur stdDeviation="5.5"/>
<feColorMatrix type="matrix" values="0 0 0 0 0 0 0 0 0 0 0 0 0 0 0 0 0 0 0.21 0"/>
<feBlend mode="normal" in2="effect2_dropShadow_175_7226" result="effect3_dropShadow_175_7226"/>
<feColorMatrix in="SourceAlpha" type="matrix" values="0 0 0 0 0 0 0 0 0 0 0 0 0 0 0 0 0 0 127 0" result="hardAlpha"/>
<feOffset dy="34"/>
<feGaussianBlur stdDeviation="7"/>
<feColorMatrix type="matrix" values="0 0 0 0 0 0 0 0 0 0 0 0 0 0 0 0 0 0 0.06 0"/>
<feBlend mode="normal" in2="effect3_dropShadow_175_7226" result="effect4_dropShadow_175_7226"/>
<feColorMatrix in="SourceAlpha" type="matrix" values="0 0 0 0 0 0 0 0 0 0 0 0 0 0 0 0 0 0 127 0" result="hardAlpha"/>
<feOffset dy="53"/>
<feGaussianBlur stdDeviation="7.5"/>
<feColorMatrix type="matrix" values="0 0 0 0 0 0 0 0 0 0 0 0 0 0 0 0 0 0 0.01 0"/>
<feBlend mode="normal" in2="effect4_dropShadow_175_7226" result="effect5_dropShadow_175_7226"/>
<feBlend mode="normal" in="SourceGraphic" in2="effect5_dropShadow_175_7226" result="shape"/>
</filter>
<linearGradient id="paint0_linear_175_7226" x1="41.6512" y1="13.1124" x2="173.547" y2="182.802" gradientUnits="userSpaceOnUse">
<stop stop-color="#4D5761"/>
<stop offset="1" stop-color="#6C737F"/>
</linearGradient>
<linearGradient id="paint1_linear_175_7226" x1="49.3223" y1="9.85224e-06" x2="214.49" y2="87.7897" gradientUnits="userSpaceOnUse">
<stop stop-color="#4D5761"/>
<stop offset="1" stop-color="#697586"/>
</linearGradient>
<linearGradient id="paint2_linear_175_7226" x1="41.6512" y1="13.1124" x2="173.547" y2="182.802" gradientUnits="userSpaceOnUse">
<stop stop-color="#4D5761"/>
<stop offset="1" stop-color="#6C737F"/>
</linearGradient>
<linearGradient id="paint3_linear_175_7226" x1="49.3223" y1="9.85224e-06" x2="214.49" y2="87.7897" gradientUnits="userSpaceOnUse">
<stop stop-color="#4D5761"/>
<stop offset="1" stop-color="#697586"/>
</linearGradient>
<linearGradient id="paint4_linear_175_7226" x1="99" y1="55" x2="99" y2="139" gradientUnits="userSpaceOnUse">
<stop stop-color="#020106"/>
<stop offset="1" stop-color="#1A1629"/>
</linearGradient>
<linearGradient id="paint5_linear_175_7226" x1="99" y1="55" x2="99" y2="139" gradientUnits="userSpaceOnUse">
<stop stop-color="#6A56F6"/>
<stop offset="1" stop-color="#3E3290"/>
</linearGradient>
<clipPath id="clip0_175_7226">
<rect x="67" y="113" width="62" height="18" rx="2" fill="white"/>
</clipPath>
</defs>
</svg>
