<svg xmlns="http://www.w3.org/2000/svg" width="120" height="120" viewBox="0 0 120 120" fill="none">
    <mask id="path-1-inside-1_723_689" fill="white">
        <path d="M12 1.43099e-07C5.37259 6.40674e-08 -6.40674e-08 5.37258 -1.43099e-07 12L-1.43099e-06 120L120 120L120 1.43099e-06L12 1.43099e-07Z"/>
    </mask>
    <path d="M12 -1C4.8203 -1 -1 4.8203 -1 12L-1 120L0.999999 120L1 12C1 5.92487 5.92487 1 12 1L12 -1ZM120 120L120 1.43099e-06L120 120ZM120 -0.999999L12 -1C4.8203 -1 -1 4.8203 -1 12L1 12C1 5.92487 5.92487 1 12 1L120 1L120 -0.999999ZM-1.43099e-06 120L120 120L-1.43099e-06 120Z" fill="url(#paint0_linear_723_689)" fill-opacity="0.64" mask="url(#path-1-inside-1_723_689)"/>
    <mask id="path-3-inside-2_723_689" fill="white">
        <path d="M12 1.43099e-07C5.37258 6.40674e-08 -6.40674e-08 5.37258 -1.43099e-07 12L-6.67793e-07 56L56 56L56 6.67793e-07L12 1.43099e-07Z"/>
    </mask>
    <path d="M12 -1C4.8203 -1 -1 4.8203 -1 12L-1 56L0.999999 56L1 12C1 5.92487 5.92487 1 12 1L12 -1ZM56 56L56 6.67793e-07L56 56ZM56 -0.999999L12 -1C4.8203 -1 -1 4.8203 -1 12L1 12C1 5.92487 5.92487 1 12 1L56 1L56 -0.999999ZM-6.67793e-07 56L56 56L-6.67793e-07 56Z" fill="url(#paint1_linear_723_689)" fill-opacity="0.64" mask="url(#path-3-inside-2_723_689)"/>
    <defs>
        <linearGradient id="paint0_linear_723_689" x1="-2.60672e-06" y1="120.719" x2="89.3969" y2="-20.0131" gradientUnits="userSpaceOnUse">
            <stop stop-color="#6A56F6" stop-opacity="0"/>
            <stop offset="0.159668" stop-color="#6A56F6"/>
            <stop offset="0.796115" stop-color="#6A56F6"/>
            <stop offset="1" stop-color="#6A56F6" stop-opacity="0"/>
        </linearGradient>
        <linearGradient id="paint1_linear_723_689" x1="-2.76543" y1="55.3979" x2="45.2488" y2="-7.79701" gradientUnits="userSpaceOnUse">
            <stop stop-color="white" stop-opacity="0"/>
            <stop offset="0.37" stop-color="white"/>
            <stop offset="0.565" stop-color="white"/>
            <stop offset="1" stop-color="white" stop-opacity="0"/>
        </linearGradient>
    </defs>
</svg>