<svg xmlns="http://www.w3.org/2000/svg" width="24" height="24" viewBox="0 0 24 24" fill="none">
    <rect width="24" height="24" rx="12" fill="white" fill-opacity="0.12"/>
    <path d="M6.00536 11.4349C6.00536 9.85061 6.00952 8.26629 6.00002 6.68197C5.99883 6.47864 6.06238 6.36729 6.23461 6.28378C6.42168 6.193 6.61173 6.09678 6.77565 5.96909C7.00549 5.78936 7.19375 5.80812 7.44319 5.95336C9.15362 6.94825 10.8783 7.91832 12.5905 8.91079C14.0753 9.77194 14.8372 11.0761 14.8378 12.8274C14.8378 14.4825 14.8396 16.1371 14.8354 17.7922C14.8325 19.0055 14.0658 19.9036 12.8768 19.9962C12.5246 20.0234 12.1195 19.9072 11.8018 19.7354C10.4554 19.008 9.13342 18.2352 7.8019 17.4793C7.30065 17.1949 6.80237 16.9038 6.294 16.6321C6.09326 16.5244 6.01546 16.3912 6.01724 16.1564C6.02674 14.5824 6.02199 13.0084 6.02199 11.4337C6.01665 11.4337 6.01071 11.4337 6.00536 11.4337V11.4349ZM10.0189 8.70443C9.99992 8.81094 9.98092 8.86843 9.98092 8.92653C9.97854 10.6295 9.9732 12.333 9.98804 14.0359C9.98923 14.16 10.111 14.3325 10.2238 14.399C11.1491 14.9413 12.0851 15.4641 13.0187 15.9912C13.2379 16.1147 13.4606 16.2321 13.7076 16.367C13.7254 16.2375 13.7427 16.1691 13.7427 16.1001C13.7427 15.072 13.7498 14.0444 13.7326 13.0162C13.7278 12.7379 13.669 12.4552 13.5989 12.1841C13.1078 10.2972 11.607 9.4851 10.0195 8.70504L10.0189 8.70443ZM7.15277 7.11225C7.13911 7.16126 7.12427 7.18971 7.12427 7.21815C7.10882 10.0225 7.09516 12.8268 7.07794 15.6305C7.07675 15.8429 7.17712 15.9519 7.35232 16.0481C8.0751 16.4445 8.79075 16.8548 9.50877 17.2602C10.6514 17.9047 11.7923 18.5529 12.9385 19.1901C13.071 19.2633 13.2426 19.3245 13.3828 19.3027C13.5033 19.2839 13.6043 19.1381 13.7142 19.0479C13.6381 18.9668 13.5758 18.8609 13.4843 18.8083C11.6818 17.7752 9.87936 16.7428 8.06738 15.7274C7.81497 15.5858 7.7247 15.4278 7.7247 15.1379C7.72767 12.6864 7.71579 10.2355 7.70747 7.78398C7.70569 7.30832 7.65877 7.25143 7.15218 7.11164L7.15277 7.11225ZM13.6845 17.8981C13.8116 17.4478 13.7736 17.3208 13.4909 17.1598C12.1338 16.3888 10.7791 15.6142 9.41968 14.8481C9.24983 14.7524 9.18806 14.6369 9.18806 14.4402C9.18925 12.4831 9.18153 10.5254 9.17737 8.56827C9.17619 8.14405 9.07403 8.02786 8.6203 7.95706C8.60961 8.02423 8.58941 8.0914 8.58882 8.15918C8.57754 10.3583 8.56982 12.5581 8.55734 14.7573C8.55616 14.9534 8.63158 15.0653 8.80084 15.1603C10.3272 16.0154 11.8481 16.879 13.3715 17.7395C13.4719 17.7964 13.5776 17.8436 13.6857 17.8981H13.6845Z" fill="#6A56F6"/>
    <path d="M9.17915 4.57841C9.53252 4.37083 9.83303 4.18081 10.1478 4.01923C10.2232 3.9805 10.3616 4.00532 10.4436 4.05191C12.2502 5.07767 14.0663 6.08768 15.8528 7.14854C17.2401 7.97217 17.9754 9.23454 17.9914 10.8842C18.0086 12.6295 17.9962 14.3748 17.9867 16.1207C17.9813 17.043 17.3179 17.8835 16.4592 18.0566C16.4972 17.9828 16.5358 17.9289 16.5548 17.8678C16.6694 17.5096 16.8707 17.1513 16.8767 16.79C16.9076 14.9642 16.9206 13.1372 16.8749 11.3121C16.8339 9.68599 16.031 8.47687 14.662 7.68048C12.9777 6.70072 11.2715 5.7609 9.57469 4.80413C9.4565 4.73756 9.33891 4.66979 9.17856 4.57841H9.17915Z" fill="#6A56F6"/>
    <path d="M7.6481 5.46807C7.98959 5.26716 8.29901 5.0735 8.6209 4.90406C8.68742 4.86896 8.81333 4.89861 8.88816 4.94158C10.7281 5.98912 12.5822 7.01245 14.3954 8.10598C15.7043 8.89572 16.4081 10.12 16.4325 11.6837C16.4604 13.449 16.4408 15.2148 16.4325 16.9801C16.4283 17.9435 15.8219 18.7333 14.8735 18.9675C15.4412 18.2861 15.3551 17.5102 15.3527 16.7483C15.3486 15.3558 15.3432 13.964 15.351 12.5715C15.3611 10.7179 14.5397 9.37319 12.9665 8.48421C11.2703 7.52623 9.57055 6.5737 7.87319 5.61815C7.80608 5.58003 7.74372 5.53282 7.64691 5.46807H7.6481Z" fill="#6A56F6"/>
</svg>