<svg xmlns="http://www.w3.org/2000/svg" width="600" height="70" viewBox="0 0 600 70" fill="none">
    <path d="M138.805 11.8446H122.901V0.0970834H139.194C141.593 0.0970834 143.765 0.67961 145.71 1.84466C147.72 3.00971 149.309 4.59547 150.476 6.60194C151.708 8.60842 152.324 10.8091 152.324 13.2039V56.8932C152.324 59.288 151.708 61.4887 150.476 63.4951C149.309 65.5016 147.72 67.0873 145.71 68.2524C143.765 69.4174 141.593 70 139.194 70H95.4283C93.0293 70 90.8248 69.4174 88.8148 68.2524C86.8048 67.0873 85.2163 65.5016 84.0492 63.4951C82.8821 61.4887 82.2986 59.288 82.2986 56.8932V13.2039C82.2986 10.8091 82.8821 8.60842 84.0492 6.60194C85.2163 4.59547 86.8048 3.00971 88.8148 1.84466C90.8248 0.67961 93.0293 0.0970834 95.4283 0.0970834H111.554V11.8446H95.72C95.2662 11.8446 94.8447 12.0065 94.4557 12.3301C94.1315 12.6537 93.9694 13.0744 93.9694 13.5922V56.5048C93.9694 57.0226 94.1315 57.4433 94.4557 57.767C94.8447 58.0906 95.2662 58.2524 95.72 58.2524H138.805C139.259 58.2524 139.648 58.0906 139.972 57.767C140.361 57.4433 140.556 57.0226 140.556 56.5048V13.5922C140.556 13.0744 140.361 12.6537 139.972 12.3301C139.648 12.0065 139.259 11.8446 138.805 11.8446Z" fill="#6A56F6"/>
    <path d="M13.0325 70C10.6334 70 8.42895 69.4174 6.41897 68.2524C4.47383 67.0873 2.91771 65.5016 1.75063 63.4951C0.583543 61.4887 0 59.288 0 56.8932V52.233H11.6709V56.5048C11.6709 57.0226 11.833 57.4433 12.1571 57.767C12.4813 58.0906 12.9028 58.2524 13.4215 58.2524H56.4092C56.9279 58.2524 57.3493 58.0906 57.6735 57.767C58.0625 57.4433 58.257 57.0226 58.257 56.5048V42.6213C58.257 42.1683 58.0625 41.7799 57.6735 41.4563C57.3493 41.0679 56.9279 40.8738 56.4092 40.8738H40.2321V29.2233H56.8954C59.2945 29.2233 61.4665 29.8058 63.4117 30.9709C65.4217 32.1359 67.0102 33.7217 68.1773 35.7281C69.4092 37.6699 70.0252 39.8382 70.0252 42.233V56.8932C70.0252 59.288 69.4092 61.4887 68.1773 63.4951C67.0102 65.5016 65.4217 67.0873 63.4117 68.2524C61.4665 69.4174 59.2945 70 56.8954 70H13.0325Z" fill="#6A56F6"/>
    <path d="M13.0325 40.8738H28.8854V29.2233H13.4215C12.9028 29.2233 12.4813 29.0615 12.1571 28.7378C11.833 28.3495 11.6709 27.9288 11.6709 27.4757V13.5922C11.6709 13.0744 11.833 12.6537 12.1571 12.3301C12.4813 12.0065 12.9028 11.8446 13.4215 11.8446H56.4092C56.9279 11.8446 57.3493 12.0065 57.6735 12.3301C58.0625 12.6537 58.257 13.0744 58.257 13.5922V17.8641H70.0252V13.2039C70.0252 10.8091 69.4092 8.60842 68.1773 6.60194C67.0102 4.59547 65.4217 3.00971 63.4117 1.84466C61.4665 0.67961 59.2945 0.0970834 56.8954 0.0970834H13.0325C10.6334 0.0970834 8.42895 0.67961 6.41897 1.84466C4.47383 3.00971 2.91771 4.59547 1.75063 6.60194C0.583543 8.60842 0 10.8091 0 13.2039V27.8641C0 30.2589 0.583543 32.4595 1.75063 34.466C2.91771 36.4078 4.47383 37.9611 6.41897 39.1262C8.42895 40.2912 10.6334 40.8738 13.0325 40.8738Z" fill="#6A56F6"/>
    <path d="M165.077 46.9418V0H176.747V46.9418H165.077Z" fill="#6A56F6"/>
    <path d="M165.077 58.2686V70H235.102V58.2524H182.065V58.2686H165.077Z" fill="#6A56F6"/>
    <path d="M242.911 70V13.2039C242.911 10.8091 243.495 8.60842 244.662 6.60194C245.829 4.59547 247.417 3.00971 249.427 1.84466C251.437 0.67961 253.642 0.0970834 256.041 0.0970834H299.807C302.206 0.0970834 304.378 0.67961 306.323 1.84466C308.333 3.00971 309.921 4.59547 311.088 6.60194C312.32 8.60842 312.936 10.8091 312.936 13.2039V70H301.168V46.0194H284.185V34.3689H301.168V13.5922C301.168 13.0744 300.974 12.6537 300.585 12.3301C300.26 12.0065 299.871 11.8446 299.418 11.8446H256.333C255.879 11.8446 255.457 12.0065 255.068 12.3301C254.744 12.6537 254.582 13.0744 254.582 13.5922V34.3689H272.839V46.0194H254.582V70H242.911Z" fill="#6A56F6"/>
    <path d="M372.16 70V0.0970834H385.484L406.308 24.8442L398.587 34.0345L383.831 16.5048V70H372.16Z" fill="#6A56F6"/>
    <path d="M405.593 42.3583L413.337 33.1969L430.417 53.4951V0.0970834H442.185V70H428.861L405.593 42.3583Z" fill="#6A56F6"/>
    <path d="M455.22 17.8155V0.0970834H519.508V11.8446H466.989V17.8155H455.22Z" fill="#6A56F6"/>
    <path d="M455.22 29.1424V70H519.508V58.2524H466.989V40.8738H509.296V29.2233H466.989V29.1424H455.22Z" fill="#6A56F6"/>
    <path d="M530.461 70V67.2815L550.268 43.6688L550.355 43.7778L568.761 22.0008L568.624 21.8574L586.968 0.0970834H600V2.81554L577.485 29.5602L577.472 29.5469L559.747 50.5449L559.82 50.632L543.494 70H530.461Z" fill="#6A56F6"/>
    <path d="M558.35 17.6417L543.494 0.0970834H530.461V2.81554L550.617 26.845L558.35 17.6417Z" fill="#6A56F6"/>
    <path d="M571.978 52.2981L579.726 43.1741L600 67.1845V70H586.968L571.978 52.2981Z" fill="#6A56F6"/>
    <path d="M336.866 32.1788H346.592V41.8089H336.866V32.1788Z" fill="#6A56F6"/>
</svg>