<svg width="654" height="188" viewBox="0 0 654 188" fill="none" xmlns="http://www.w3.org/2000/svg">
<path d="M0 162.451L25.138 167.51C26.7295 167.83 28.3793 167.688 29.893 167.102L58.9099 155.854C60.8116 155.117 62.9147 155.087 64.8364 155.771L92.7845 165.705C96.5533 167.045 100.747 165.58 102.86 162.184L116.079 140.948C118.624 136.86 124.05 135.696 128.048 138.379L156.074 157.19C160.91 160.436 167.506 157.973 169.031 152.351L174.144 133.497C175.471 128.606 180.751 125.951 185.468 127.802L201.973 134.281C205.137 135.522 208.735 134.763 211.128 132.349L228.88 114.437C231.119 112.177 234.431 111.355 237.467 112.306L299.311 131.667C302.761 132.747 306.517 131.53 308.677 128.631L352.429 69.9359C354.573 67.0587 358.292 65.8358 361.726 66.8788L408.409 81.059L438.675 92.2557C441.802 93.4128 445.318 92.6366 447.667 90.27L472.461 65.2977C474.362 63.3825 477.059 62.4826 479.73 62.8725L528.579 70.0047C531.063 70.3674 533.581 69.6146 535.459 67.9477L553.546 51.8898C555.949 49.757 559.347 49.1587 562.334 50.3429L601.711 65.9578C607.298 68.1733 613.359 64.0566 613.359 58.0464V56.7502C613.359 50.8445 619.227 46.734 624.777 48.7515L638.046 53.5745C642.641 55.2449 647.748 54.7223 651.91 52.1557L670 41" stroke="url(#paint0_linear_543_1463)" stroke-opacity="0.24" stroke-width="2.26953" stroke-linecap="round" stroke-linejoin="round"/>
<g opacity="0.64">
<mask id="mask0_543_1463" style="mask-type:alpha" maskUnits="userSpaceOnUse" x="111" y="-6" width="431" height="194">
<rect x="111" y="-6" width="431" height="194" fill="url(#paint1_linear_543_1463)"/>
</mask>
<g mask="url(#mask0_543_1463)">
<path d="M121.225 146.634L111 148.526L119.622 250.644L130.078 248.405L121.225 146.634Z" fill="url(#paint2_linear_543_1463)"/>
<path d="M149.208 219.374L140.023 120L130 121.762L138.968 221.454L149.208 219.374Z" fill="url(#paint3_linear_543_1463)"/>
<path d="M173.244 174.213L183.166 172.335L176.075 103L166.312 104.661L173.244 174.213Z" fill="url(#paint4_linear_543_1463)"/>
<path d="M156.03 202.217L166.11 200.224L158.311 120L148.404 121.733L156.03 202.217Z" fill="url(#paint5_linear_543_1463)"/>
<path d="M187.773 134.792L197.506 133.059L196.207 121L186.516 122.69L187.773 134.792Z" fill="url(#paint6_linear_543_1463)"/>
<path d="M209.897 163.998L219.588 162.164L213.335 106L203.745 107.646L209.897 163.998Z" fill="url(#paint7_linear_543_1463)"/>
<path d="M228.253 145.002L237.799 143.24L231.358 88L221.927 89.5742L228.253 145.002Z" fill="url(#paint8_linear_543_1463)"/>
<path d="M270.986 104.079L261.917 32L252.761 33.4009L261.7 105.711L270.986 104.079Z" fill="url(#paint9_linear_543_1463)"/>
<path d="M239.561 76.5597L244.89 121.401L254.32 119.712L248.905 75L239.561 76.5597Z" fill="url(#paint10_linear_543_1463)"/>
<path d="M281.124 120.824L290.353 119.163L284.59 75L275.449 76.5164L281.124 120.824Z" fill="url(#paint11_linear_543_1463)"/>
<path d="M439.975 64.6588L448.236 63.2579L445.232 46L437 47.3431L439.975 64.6588Z" fill="url(#paint12_linear_543_1463)"/>
<path d="M428.261 32L420 33.2565L424.419 59.6705L432.723 58.3419L428.261 32Z" fill="url(#paint13_linear_543_1463)"/>
<path d="M390 44.4009L400.109 108.133L408.731 106.558L398.506 43L390 44.4009Z" fill="url(#paint14_linear_543_1463)"/>
<path d="M420.103 80.9814L408.362 10L400 11.2998L411.611 82.4978L420.103 80.9814Z" fill="url(#paint15_linear_543_1463)"/>
<path d="M399.082 143.651L385.506 57L377 58.2998L390.416 145.196L399.082 143.651Z" fill="url(#paint16_linear_543_1463)"/>
<path d="M365.199 99.5316L373.965 97.943L372.766 90L364 91.5597L365.199 99.5316Z" fill="url(#paint17_linear_543_1463)"/>
<path d="M357.784 152.994L366.68 151.334L358.809 98L350 99.5019L357.784 152.994Z" fill="url(#paint18_linear_543_1463)"/>
<path d="M309 76.603L319.109 150.675L328.28 148.841L318.041 75L309 76.603Z" fill="url(#paint19_linear_543_1463)"/>
<path d="M344.207 128.889L337.911 85L329 86.5453L335.21 130.564L344.207 128.889Z" fill="url(#paint20_linear_543_1463)"/>
<path d="M299.465 136.127L308.65 134.409L302.686 90L293.588 91.5742L299.465 136.127Z" fill="url(#paint21_linear_543_1463)"/>
<path d="M467.366 77.3273L456.073 14L448 15.1842L459.192 78.6848L467.366 77.3273Z" fill="url(#paint22_linear_543_1463)"/>
<path d="M480.038 64.2059L465.929 -13L458 -11.9313L471.98 65.4912L480.038 64.2059Z" fill="url(#paint23_linear_543_1463)"/>
<path d="M518.518 102.195L504.741 30L497 30.9965L510.662 103.393L518.518 102.195Z" fill="url(#paint24_linear_543_1463)"/>
<path d="M494.171 49.9253L484.842 0L477 1.05426L486.243 51.124L494.171 49.9253Z" fill="url(#paint25_linear_543_1463)"/>
<path d="M511.495 35.2798L519.308 34.0523L515.784 16L508 17.1698L511.495 35.2798Z" fill="url(#paint26_linear_543_1463)"/>
<path d="M530.265 24.6193L518.625 -34L511 -32.9891L522.568 25.7891L530.265 24.6193Z" fill="url(#paint27_linear_543_1463)"/>
<path d="M541.781 8.50612L532.539 -37L525 -36.0324L534.185 9.60369L541.781 8.50612Z" fill="url(#paint28_linear_543_1463)"/>
</g>
</g>
<defs>
<linearGradient id="paint0_linear_543_1463" x1="655" y1="61" x2="-7.50003" y2="152.5" gradientUnits="userSpaceOnUse">
<stop stop-color="#FF7144" stop-opacity="0.01"/>
<stop offset="0.145045" stop-color="#FF8979"/>
<stop offset="0.269758" stop-color="#FF4DCA"/>
<stop offset="0.442535" stop-color="#E930FF"/>
<stop offset="0.748192" stop-color="#E44D88"/>
<stop offset="0.85413" stop-color="#E34E81" stop-opacity="0.594203"/>
<stop offset="1" stop-color="#E3507A" stop-opacity="0.01"/>
</linearGradient>
<linearGradient id="paint1_linear_543_1463" x1="326" y1="0.546011" x2="326" y2="188" gradientUnits="userSpaceOnUse">
<stop stop-color="#D9D9D9" stop-opacity="0"/>
<stop offset="0.435959" stop-color="#D9D9D9"/>
<stop offset="0.724521" stop-color="#D9D9D9"/>
<stop offset="1" stop-color="#737373" stop-opacity="0"/>
</linearGradient>
<linearGradient id="paint2_linear_543_1463" x1="587.348" y1="-408.553" x2="178.645" y2="122.92" gradientUnits="userSpaceOnUse">
<stop offset="0.26" stop-color="#DB2A7B"/>
<stop offset="1" stop-color="#EE4F4F"/>
</linearGradient>
<linearGradient id="paint3_linear_543_1463" x1="268.425" y1="-420.817" x2="109.565" y2="308.494" gradientUnits="userSpaceOnUse">
<stop offset="0.52" stop-color="#5FE9D0"/>
<stop offset="1" stop-color="#15B79E"/>
</linearGradient>
<linearGradient id="paint4_linear_543_1463" x1="583.334" y1="-392.83" x2="174.631" y2="138.628" gradientUnits="userSpaceOnUse">
<stop offset="0.26" stop-color="#DB2A7B"/>
<stop offset="1" stop-color="#EE4F4F"/>
</linearGradient>
<linearGradient id="paint5_linear_543_1463" x1="282.583" y1="-414.404" x2="123.723" y2="314.907" gradientUnits="userSpaceOnUse">
<stop offset="0.52" stop-color="#5FE9D0"/>
<stop offset="1" stop-color="#15B79E"/>
</linearGradient>
<linearGradient id="paint6_linear_543_1463" x1="307.293" y1="-401.389" x2="148.433" y2="327.908" gradientUnits="userSpaceOnUse">
<stop offset="0.52" stop-color="#5FE9D0"/>
<stop offset="1" stop-color="#15B79E"/>
</linearGradient>
<linearGradient id="paint7_linear_543_1463" x1="245.309" y1="22.0355" x2="227.619" y2="137.477" gradientUnits="userSpaceOnUse">
<stop offset="0.26" stop-color="#DB2A7B"/>
<stop offset="1" stop-color="#EE4F4F"/>
</linearGradient>
<linearGradient id="paint8_linear_543_1463" x1="340.942" y1="-393.562" x2="182.083" y2="335.749" gradientUnits="userSpaceOnUse">
<stop offset="0.52" stop-color="#5FE9D0"/>
<stop offset="1" stop-color="#15B79E"/>
</linearGradient>
<linearGradient id="paint9_linear_543_1463" x1="362.894" y1="-395.044" x2="204.034" y2="334.267" gradientUnits="userSpaceOnUse">
<stop offset="0.52" stop-color="#5FE9D0"/>
<stop offset="1" stop-color="#15B79E"/>
</linearGradient>
<linearGradient id="paint10_linear_543_1463" x1="355.543" y1="-400.453" x2="196.683" y2="328.858" gradientUnits="userSpaceOnUse">
<stop offset="0.52" stop-color="#5FE9D0"/>
<stop offset="1" stop-color="#15B79E"/>
</linearGradient>
<linearGradient id="paint11_linear_543_1463" x1="644.229" y1="-244.057" x2="412.309" y2="170.394" gradientUnits="userSpaceOnUse">
<stop offset="0.26" stop-color="#DB2A7B"/>
<stop offset="1" stop-color="#EE4F4F"/>
</linearGradient>
<linearGradient id="paint12_linear_543_1463" x1="715.014" y1="-83.9154" x2="653.643" y2="119.138" gradientUnits="userSpaceOnUse">
<stop offset="0.26" stop-color="#DB2A7B"/>
<stop offset="1" stop-color="#EE4F4F"/>
</linearGradient>
<linearGradient id="paint13_linear_543_1463" x1="508.254" y1="-330.2" x2="349.408" y2="399.096" gradientUnits="userSpaceOnUse">
<stop offset="0.52" stop-color="#5FE9D0"/>
<stop offset="1" stop-color="#3B6838"/>
</linearGradient>
<linearGradient id="paint14_linear_543_1463" x1="495.743" y1="-367.003" x2="336.883" y2="362.308" gradientUnits="userSpaceOnUse">
<stop offset="0.52" stop-color="#5FE9D0"/>
<stop offset="1" stop-color="#15B79E"/>
</linearGradient>
<linearGradient id="paint15_linear_543_1463" x1="500.76" y1="-370.325" x2="341.901" y2="358.986" gradientUnits="userSpaceOnUse">
<stop offset="0.52" stop-color="#5FE9D0"/>
<stop offset="1" stop-color="#15B79E"/>
</linearGradient>
<linearGradient id="paint16_linear_543_1463" x1="479.898" y1="-320.769" x2="321.038" y2="408.542" gradientUnits="userSpaceOnUse">
<stop offset="0.52" stop-color="#5FE9D0"/>
<stop offset="1" stop-color="#15B79E"/>
</linearGradient>
<linearGradient id="paint17_linear_543_1463" x1="610.568" y1="23.6345" x2="591.441" y2="133.507" gradientUnits="userSpaceOnUse">
<stop offset="0.26" stop-color="#DB2A7B"/>
<stop offset="1" stop-color="#EE4F4F"/>
</linearGradient>
<linearGradient id="paint18_linear_543_1463" x1="762.733" y1="-284.909" x2="474.569" y2="195.322" gradientUnits="userSpaceOnUse">
<stop offset="0.26" stop-color="#DB2A7B"/>
<stop offset="1" stop-color="#EE4F4F"/>
</linearGradient>
<linearGradient id="paint19_linear_543_1463" x1="432.059" y1="-407.934" x2="273.199" y2="321.377" gradientUnits="userSpaceOnUse">
<stop offset="0.52" stop-color="#5FE9D0"/>
<stop offset="1" stop-color="#15B79E"/>
</linearGradient>
<linearGradient id="paint20_linear_543_1463" x1="442.354" y1="-377.759" x2="283.494" y2="351.552" gradientUnits="userSpaceOnUse">
<stop offset="0.52" stop-color="#5FE9D0"/>
<stop offset="1" stop-color="#15B79E"/>
</linearGradient>
<linearGradient id="paint21_linear_543_1463" x1="666.298" y1="-231.169" x2="433.334" y2="186.821" gradientUnits="userSpaceOnUse">
<stop offset="0.26" stop-color="#DB2A7B"/>
<stop offset="1" stop-color="#EE4F4F"/>
</linearGradient>
<linearGradient id="paint22_linear_543_1463" x1="537.554" y1="-320.443" x2="378.694" y2="408.868" gradientUnits="userSpaceOnUse">
<stop offset="0.52" stop-color="#5FE9D0"/>
<stop offset="1" stop-color="#15B79E"/>
</linearGradient>
<linearGradient id="paint23_linear_543_1463" x1="542.095" y1="-309.331" x2="383.235" y2="419.98" gradientUnits="userSpaceOnUse">
<stop offset="0.52" stop-color="#5FE9D0"/>
<stop offset="1" stop-color="#15B79E"/>
</linearGradient>
<linearGradient id="paint24_linear_543_1463" x1="1029.44" y1="-481.014" x2="638.861" y2="148.188" gradientUnits="userSpaceOnUse">
<stop offset="0.26" stop-color="#DB2A7B"/>
<stop offset="1" stop-color="#EE4F4F"/>
</linearGradient>
<linearGradient id="paint25_linear_543_1463" x1="901.884" y1="-355.96" x2="647.551" y2="113.401" gradientUnits="userSpaceOnUse">
<stop offset="0.26" stop-color="#DB2A7B"/>
<stop offset="1" stop-color="#EE4F4F"/>
</linearGradient>
<linearGradient id="paint26_linear_543_1463" x1="587.256" y1="-312.32" x2="428.396" y2="416.991" gradientUnits="userSpaceOnUse">
<stop offset="0.52" stop-color="#5FE9D0"/>
<stop offset="1" stop-color="#15B79E"/>
</linearGradient>
<linearGradient id="paint27_linear_543_1463" x1="585.765" y1="-303.137" x2="426.905" y2="426.159" gradientUnits="userSpaceOnUse">
<stop offset="0.52" stop-color="#5FE9D0"/>
<stop offset="1" stop-color="#15B79E"/>
</linearGradient>
<linearGradient id="paint28_linear_543_1463" x1="594.609" y1="-294.772" x2="435.735" y2="434.554" gradientUnits="userSpaceOnUse">
<stop offset="0.52" stop-color="#5FE9D0"/>
<stop offset="1" stop-color="#15B79E"/>
</linearGradient>
</defs>
</svg>
