<svg width="131" height="95" viewBox="0 0 131 95" fill="none" xmlns="http://www.w3.org/2000/svg">
<path d="M60.43 8.01V9H56.66V8.01H58.03V2.95C57.9767 3.03 57.8867 3.12 57.76 3.22C57.64 3.31333 57.5033 3.40667 57.35 3.5C57.1967 3.58667 57.0367 3.66 56.87 3.72C56.71 3.78 56.5633 3.81 56.43 3.81V2.79C56.61 2.79 56.79 2.74333 56.97 2.65C57.1567 2.55667 57.33 2.45 57.49 2.33C57.65 2.20333 57.7767 2.09 57.87 1.99C57.97 1.89 58.0233 1.83667 58.03 1.83H59.16V8.01H60.43ZM61.0884 9C61.0884 8.59333 61.1184 8.23667 61.1784 7.93C61.2384 7.62333 61.3318 7.34667 61.4584 7.1C61.5851 6.85333 61.7451 6.63667 61.9384 6.45C62.1318 6.26333 62.3551 6.09333 62.6084 5.94C62.8551 5.79333 63.1084 5.65667 63.3684 5.53C63.6351 5.40333 63.8818 5.27 64.1084 5.13C64.3351 4.99 64.5151 4.82667 64.6484 4.64C64.7884 4.44667 64.8584 4.21333 64.8584 3.94C64.8584 3.72 64.8118 3.52667 64.7184 3.36C64.6318 3.19333 64.4984 3.06333 64.3184 2.97C64.1451 2.87 63.9218 2.82 63.6484 2.82C63.3684 2.82 63.1084 2.87 62.8684 2.97C62.6351 3.06333 62.4284 3.18 62.2484 3.32C62.0751 3.46 61.9351 3.59667 61.8284 3.73L61.1284 3C61.1951 2.92 61.3018 2.81333 61.4484 2.68C61.6018 2.54667 61.7884 2.41333 62.0084 2.28C62.2351 2.14667 62.4951 2.03667 62.7884 1.95C63.0818 1.85667 63.4118 1.81 63.7784 1.81C64.2851 1.81 64.7084 1.90333 65.0484 2.09C65.3951 2.27 65.6551 2.52 65.8284 2.84C66.0084 3.15333 66.0984 3.50667 66.0984 3.9C66.0984 4.22 66.0418 4.5 65.9284 4.74C65.8151 4.97333 65.6651 5.17667 65.4784 5.35C65.2984 5.51667 65.0951 5.66667 64.8684 5.8C64.6484 5.93333 64.4284 6.06 64.2084 6.18C63.8284 6.37333 63.5218 6.54667 63.2884 6.7C63.0618 6.85333 62.8818 7 62.7484 7.14C62.6218 7.28 62.5318 7.42 62.4784 7.56C62.4251 7.7 62.3884 7.85 62.3684 8.01H66.1084V9H61.0884ZM68.5948 4.77C68.3014 4.77 68.0314 4.70333 67.7848 4.57C67.5448 4.43667 67.3514 4.26 67.2048 4.04C67.0648 3.81333 66.9948 3.56333 66.9948 3.29C66.9948 3.01 67.0648 2.76 67.2048 2.54C67.3514 2.31333 67.5448 2.13333 67.7848 2C68.0314 1.86667 68.3014 1.8 68.5948 1.8C68.8881 1.8 69.1548 1.86667 69.3948 2C69.6348 2.13333 69.8248 2.31333 69.9648 2.54C70.1048 2.76 70.1748 3.00667 70.1748 3.28C70.1748 3.55333 70.1048 3.80333 69.9648 4.03C69.8248 4.25667 69.6348 4.43667 69.3948 4.57C69.1548 4.70333 68.8881 4.77 68.5948 4.77ZM68.5848 4.2C68.7381 4.2 68.8748 4.16 68.9948 4.08C69.1214 3.99333 69.2181 3.88 69.2848 3.74C69.3581 3.6 69.3948 3.45 69.3948 3.29C69.3948 3.11667 69.3581 2.96 69.2848 2.82C69.2114 2.68 69.1114 2.57 68.9848 2.49C68.8648 2.41 68.7348 2.37 68.5948 2.37C68.4414 2.37 68.3014 2.41333 68.1748 2.5C68.0548 2.58 67.9581 2.69 67.8848 2.83C67.8114 2.97 67.7748 3.12 67.7748 3.28C67.7748 3.45333 67.8114 3.61 67.8848 3.75C67.9648 3.88333 68.0648 3.99333 68.1848 4.08C68.3114 4.16 68.4448 4.2 68.5848 4.2ZM72.2648 9.1C71.9714 9.1 71.7048 9.03333 71.4648 8.9C71.2248 8.76667 71.0314 8.58667 70.8848 8.36C70.7448 8.13333 70.6748 7.88333 70.6748 7.61C70.6748 7.33667 70.7448 7.09 70.8848 6.87C71.0314 6.64333 71.2248 6.46333 71.4648 6.33C71.7048 6.19667 71.9714 6.13 72.2648 6.13C72.5648 6.13 72.8348 6.19667 73.0748 6.33C73.3148 6.45667 73.5048 6.63333 73.6448 6.86C73.7848 7.08667 73.8548 7.33667 73.8548 7.61C73.8548 7.88333 73.7848 8.13333 73.6448 8.36C73.5048 8.58667 73.3148 8.76667 73.0748 8.9C72.8348 9.03333 72.5648 9.1 72.2648 9.1ZM72.2648 8.53C72.4181 8.53 72.5548 8.48667 72.6748 8.4C72.8014 8.31333 72.8981 8.20333 72.9648 8.07C73.0381 7.93 73.0748 7.78 73.0748 7.62C73.0748 7.44667 73.0381 7.29 72.9648 7.15C72.8914 7.01 72.7914 6.9 72.6648 6.82C72.5448 6.74 72.4114 6.7 72.2648 6.7C72.1181 6.7 71.9814 6.74333 71.8548 6.83C71.7348 6.91 71.6381 7.02 71.5648 7.16C71.4914 7.3 71.4548 7.45 71.4548 7.61C71.4548 7.77667 71.4914 7.93 71.5648 8.07C71.6448 8.21 71.7448 8.32333 71.8648 8.41C71.9848 8.49 72.1181 8.53 72.2648 8.53ZM67.4448 8.6L70.2548 5.27L72.8948 1.84L73.4148 2.29L70.6548 5.58L67.9548 9.06L67.4448 8.6Z" fill="#5D6B98"/>
<path d="M122.748 31.95C122.748 32.3767 122.631 32.75 122.398 33.07C122.171 33.39 121.861 33.64 121.468 33.82C121.081 33.9933 120.658 34.08 120.198 34.08C119.725 34.08 119.298 33.9867 118.918 33.8C118.538 33.6067 118.235 33.3467 118.008 33.02C117.781 32.6933 117.668 32.32 117.668 31.9C117.668 31.62 117.731 31.37 117.858 31.15C117.985 30.9233 118.141 30.73 118.328 30.57C118.515 30.41 118.705 30.2867 118.898 30.2C118.718 30.1133 118.551 30.0033 118.398 29.87C118.251 29.73 118.131 29.57 118.038 29.39C117.951 29.21 117.908 29.0167 117.908 28.81C117.908 28.5033 117.975 28.2333 118.108 28C118.248 27.76 118.431 27.56 118.658 27.4C118.885 27.2333 119.131 27.11 119.398 27.03C119.671 26.9433 119.941 26.9 120.208 26.9C120.481 26.9 120.751 26.9433 121.018 27.03C121.291 27.11 121.541 27.23 121.768 27.39C122.001 27.55 122.185 27.75 122.318 27.99C122.458 28.2233 122.528 28.4933 122.528 28.8C122.528 29.0067 122.481 29.2033 122.388 29.39C122.301 29.57 122.178 29.73 122.018 29.87C121.865 30.01 121.698 30.12 121.518 30.2C121.731 30.2933 121.931 30.4233 122.118 30.59C122.311 30.7567 122.465 30.9533 122.578 31.18C122.691 31.4067 122.748 31.6633 122.748 31.95ZM121.638 31.88C121.638 31.6867 121.595 31.5133 121.508 31.36C121.428 31.2067 121.318 31.08 121.178 30.98C121.038 30.8733 120.885 30.7933 120.718 30.74C120.551 30.6867 120.381 30.66 120.208 30.66C119.961 30.66 119.731 30.71 119.518 30.81C119.305 30.91 119.131 31.0533 118.998 31.24C118.865 31.42 118.798 31.6333 118.798 31.88C118.798 32.0667 118.838 32.2367 118.918 32.39C118.998 32.5367 119.105 32.6633 119.238 32.77C119.378 32.8767 119.531 32.9567 119.698 33.01C119.871 33.0633 120.045 33.09 120.218 33.09C120.458 33.09 120.685 33.04 120.898 32.94C121.118 32.8333 121.295 32.69 121.428 32.51C121.568 32.3233 121.638 32.1133 121.638 31.88ZM119.018 28.85C119.018 29.0567 119.078 29.2333 119.198 29.38C119.318 29.5267 119.471 29.6367 119.658 29.71C119.845 29.7833 120.028 29.82 120.208 29.82C120.395 29.82 120.578 29.7833 120.758 29.71C120.945 29.63 121.098 29.5167 121.218 29.37C121.345 29.2233 121.408 29.0433 121.408 28.83C121.408 28.6367 121.351 28.47 121.238 28.33C121.125 28.1833 120.975 28.0733 120.788 28C120.608 27.92 120.415 27.88 120.208 27.88C120.001 27.88 119.805 27.92 119.618 28C119.438 28.08 119.291 28.1933 119.178 28.34C119.071 28.48 119.018 28.65 119.018 28.85ZM125.174 29.77C124.881 29.77 124.611 29.7033 124.364 29.57C124.124 29.4367 123.931 29.26 123.784 29.04C123.644 28.8133 123.574 28.5633 123.574 28.29C123.574 28.01 123.644 27.76 123.784 27.54C123.931 27.3133 124.124 27.1333 124.364 27C124.611 26.8667 124.881 26.8 125.174 26.8C125.467 26.8 125.734 26.8667 125.974 27C126.214 27.1333 126.404 27.3133 126.544 27.54C126.684 27.76 126.754 28.0067 126.754 28.28C126.754 28.5533 126.684 28.8033 126.544 29.03C126.404 29.2567 126.214 29.4367 125.974 29.57C125.734 29.7033 125.467 29.77 125.174 29.77ZM125.164 29.2C125.317 29.2 125.454 29.16 125.574 29.08C125.701 28.9933 125.797 28.88 125.864 28.74C125.937 28.6 125.974 28.45 125.974 28.29C125.974 28.1167 125.937 27.96 125.864 27.82C125.791 27.68 125.691 27.57 125.564 27.49C125.444 27.41 125.314 27.37 125.174 27.37C125.021 27.37 124.881 27.4133 124.754 27.5C124.634 27.58 124.537 27.69 124.464 27.83C124.391 27.97 124.354 28.12 124.354 28.28C124.354 28.4533 124.391 28.61 124.464 28.75C124.544 28.8833 124.644 28.9933 124.764 29.08C124.891 29.16 125.024 29.2 125.164 29.2ZM128.844 34.1C128.551 34.1 128.284 34.0333 128.044 33.9C127.804 33.7667 127.611 33.5867 127.464 33.36C127.324 33.1333 127.254 32.8833 127.254 32.61C127.254 32.3367 127.324 32.09 127.464 31.87C127.611 31.6433 127.804 31.4633 128.044 31.33C128.284 31.1967 128.551 31.13 128.844 31.13C129.144 31.13 129.414 31.1967 129.654 31.33C129.894 31.4567 130.084 31.6333 130.224 31.86C130.364 32.0867 130.434 32.3367 130.434 32.61C130.434 32.8833 130.364 33.1333 130.224 33.36C130.084 33.5867 129.894 33.7667 129.654 33.9C129.414 34.0333 129.144 34.1 128.844 34.1ZM128.844 33.53C128.997 33.53 129.134 33.4867 129.254 33.4C129.381 33.3133 129.477 33.2033 129.544 33.07C129.617 32.93 129.654 32.78 129.654 32.62C129.654 32.4467 129.617 32.29 129.544 32.15C129.471 32.01 129.371 31.9 129.244 31.82C129.124 31.74 128.991 31.7 128.844 31.7C128.697 31.7 128.561 31.7433 128.434 31.83C128.314 31.91 128.217 32.02 128.144 32.16C128.071 32.3 128.034 32.45 128.034 32.61C128.034 32.7767 128.071 32.93 128.144 33.07C128.224 33.21 128.324 33.3233 128.444 33.41C128.564 33.49 128.697 33.53 128.844 33.53ZM124.024 33.6L126.834 30.27L129.474 26.84L129.994 27.29L127.234 30.58L124.534 34.06L124.024 33.6Z" fill="#5D6B98"/>
<rect y="42" width="8" height="53" rx="4" fill="url(#paint0_linear_470_830)"/>
<rect x="20" y="31" width="8" height="64" rx="4" fill="url(#paint1_linear_470_830)"/>
<rect x="40" y="71" width="8" height="24" rx="4" fill="url(#paint2_linear_470_830)"/>
<rect x="60" y="15" width="8" height="80" rx="4" fill="url(#paint3_linear_470_830)"/>
<rect x="80" y="31" width="8" height="64" rx="4" fill="url(#paint4_linear_470_830)"/>
<rect x="100" y="53" width="8" height="42" rx="4" fill="url(#paint5_linear_470_830)"/>
<rect x="120" y="42" width="8" height="53" rx="4" fill="url(#paint6_linear_470_830)"/>
<circle cx="124" cy="46" r="4" stroke="#B9C0D4" stroke-width="4"/>
<circle cx="64" cy="21" r="4" stroke="#B9C0D4" stroke-width="4"/>
<defs>
<linearGradient id="paint0_linear_470_830" x1="4" y1="42" x2="4" y2="95" gradientUnits="userSpaceOnUse">
<stop stop-color="#5D6B98"/>
<stop offset="1" stop-color="#5D6B98" stop-opacity="0.08"/>
</linearGradient>
<linearGradient id="paint1_linear_470_830" x1="24" y1="31" x2="24" y2="79.5" gradientUnits="userSpaceOnUse">
<stop stop-color="#5D6B98"/>
<stop offset="1" stop-color="#5D6B98" stop-opacity="0.08"/>
</linearGradient>
<linearGradient id="paint2_linear_470_830" x1="44" y1="71" x2="44" y2="95" gradientUnits="userSpaceOnUse">
<stop stop-color="#5D6B98"/>
<stop offset="1" stop-color="#5D6B98" stop-opacity="0.08"/>
</linearGradient>
<linearGradient id="paint3_linear_470_830" x1="64" y1="15" x2="64" y2="95" gradientUnits="userSpaceOnUse">
<stop stop-color="#5D6B98"/>
<stop offset="1" stop-color="#5D6B98" stop-opacity="0.08"/>
</linearGradient>
<linearGradient id="paint4_linear_470_830" x1="84" y1="31" x2="84" y2="81.5" gradientUnits="userSpaceOnUse">
<stop stop-color="#5D6B98"/>
<stop offset="1" stop-color="#5D6B98" stop-opacity="0.08"/>
</linearGradient>
<linearGradient id="paint5_linear_470_830" x1="104" y1="53" x2="104" y2="95" gradientUnits="userSpaceOnUse">
<stop stop-color="#5D6B98"/>
<stop offset="1" stop-color="#5D6B98" stop-opacity="0.08"/>
</linearGradient>
<linearGradient id="paint6_linear_470_830" x1="124" y1="42" x2="124" y2="89" gradientUnits="userSpaceOnUse">
<stop stop-color="#5D6B98"/>
<stop offset="1" stop-color="#5D6B98" stop-opacity="0.08"/>
</linearGradient>
</defs>
</svg>
