<svg xmlns="http://www.w3.org/2000/svg" width="28" height="28" viewBox="0 0 28 28" fill="none">
    <rect width="28" height="28" rx="14" fill="#6A56F6"/>
    <path d="M20.3333 11.775C22.1554 17.1754 17.0064 22.125 11.7802 20.3161C11.4836 21.3419 10.9111 22.1637 9.93351 22.6474C9.28948 22.9649 8.60027 23.0702 7.89544 22.9542C6.38558 22.7058 5.27742 21.5657 5.04494 20.0554C4.79193 18.4167 5.59861 17.2313 7.68351 16.1924C7.59232 15.772 7.48142 15.35 7.41242 14.9206C6.84314 11.3834 9.2443 8.01726 12.7594 7.39866C13.8035 7.21522 14.8311 7.26457 15.8399 7.5747C16.134 7.66518 16.2671 7.64133 16.3722 7.31887C16.8708 5.78223 18.2714 4.88723 19.9325 5.01144C21.416 5.12332 22.677 6.29965 22.9481 7.82395C23.22 9.35565 22.4043 10.8734 20.9609 11.5158C20.7621 11.6047 20.5584 11.682 20.3333 11.7741V11.775ZM14.0195 18.3805C17.0893 18.3205 19.1397 15.2505 17.9921 12.3845C17.5551 11.2937 18.1729 10.4645 19.3303 10.5896C20.2298 10.6866 21.1293 10.2021 21.5458 9.3976C21.9459 8.6227 21.8235 7.62488 21.2427 6.92977C20.6857 6.26263 19.6926 5.99282 18.8522 6.27991C17.8582 6.61882 17.2553 7.48503 17.3826 8.62188C17.5206 9.85827 16.419 10.4382 15.5401 9.96685C14.8213 9.58105 14.0088 9.54732 13.2136 9.69539C10.4716 10.2071 8.98636 12.9241 9.9943 15.5549C10.4321 16.6975 9.83987 17.4633 8.62081 17.3309C7.49539 17.2083 6.47512 17.9791 6.23197 19.1357C6.00935 20.1919 6.65256 21.3065 7.68022 21.6463C9.24841 22.1645 10.7032 20.9972 10.6137 19.292C10.5504 18.0992 11.3259 17.5604 12.4431 17.975C12.9491 18.1625 13.4921 18.2481 14.0187 18.3805H14.0195Z" fill="white"/>
    <path d="M13.9973 16.4909C12.5983 16.4679 11.5 15.3492 11.5173 13.9622C11.5337 12.5753 12.6632 11.4779 14.0573 11.4936C15.4143 11.5092 16.534 12.6444 16.5315 14.0017C16.5291 15.3656 15.361 16.5131 13.9973 16.4909Z" fill="white"/>
</svg>