<svg
        xmlns="http://www.w3.org/2000/svg"
        width="22"
        height="22"
        viewBox="0 0 22 22"
        fill="none"
      >
        <circle opacity="0.4" cx="11" cy="11" r="10" fill="#B9C0D4" />
        <path
          d="M11.5833 5.35859C11.1143 5.27315 10.6323 5.29182 10.1714 5.41328C9.71041 5.53474 9.28179 5.75602 8.91583 6.06147C8.54987 6.36691 8.25551 6.74906 8.05358 7.18086C7.85166 7.61266 7.7471 8.08357 7.74731 8.56025C7.74731 8.77593 7.83299 8.98278 7.9855 9.13529C8.13801 9.2878 8.34486 9.37348 8.56054 9.37348C8.77622 9.37348 8.98306 9.2878 9.13557 9.13529C9.28808 8.98278 9.37376 8.77593 9.37376 8.56025C9.37356 8.32098 9.42615 8.08461 9.52778 7.868C9.62941 7.65139 9.77759 7.45987 9.96174 7.3071C10.1459 7.15433 10.3615 7.04407 10.5931 6.98418C10.8248 6.9243 11.0668 6.91626 11.3019 6.96064C11.6232 7.023 11.9185 7.17971 12.1503 7.41075C12.3821 7.64179 12.5397 7.93667 12.6031 8.25773C12.6671 8.59473 12.6229 8.94334 12.4768 9.25372C12.3308 9.56409 12.0903 9.82034 11.7898 9.98583C11.2923 10.2741 10.8811 10.6905 10.5992 11.1917C10.3173 11.6929 10.175 12.2605 10.187 12.8354V13.4396C10.187 13.6553 10.2727 13.8621 10.4252 14.0146C10.5777 14.1671 10.7845 14.2528 11.0002 14.2528C11.2159 14.2528 11.4227 14.1671 11.5752 14.0146C11.7278 13.8621 11.8134 13.6553 11.8134 13.4396V12.8354C11.8032 12.5524 11.8678 12.2717 12.0005 12.0216C12.1333 11.7714 12.3296 11.5607 12.5697 11.4106C13.1589 11.087 13.6334 10.5888 13.9279 9.98453C14.2224 9.38027 14.3224 8.6996 14.2143 8.03615C14.1062 7.3727 13.7951 6.75904 13.324 6.27956C12.8529 5.80009 12.2447 5.47835 11.5833 5.35859Z"
          fill="#B9C0D4"
        />
        <path
          d="M11.8135 15.8793C11.8135 15.4301 11.4494 15.066 11.0002 15.066C10.5511 15.066 10.187 15.4301 10.187 15.8793C10.187 16.3284 10.5511 16.6925 11.0002 16.6925C11.4494 16.6925 11.8135 16.3284 11.8135 15.8793Z"
          fill="#B9C0D4"
        />
      </svg>