<svg xmlns="http://www.w3.org/2000/svg" width="24" height="24" viewBox="0 0 24 24" fill="none">
    <rect width="24" height="24" rx="12" fill="white" fill-opacity="0.12"/>
    <path d="M18.2307 17.5983C17.2233 16.114 16.1803 14.705 15.2786 13.2129C14.4082 11.7729 14.7922 9.68763 16.0534 8.56528C16.64 8.04285 17.3191 7.62335 18.0048 7.12195C18.3432 7.60675 18.6437 8.03731 18.9699 8.50551C18.4968 8.83535 18.0582 9.13642 17.6241 9.44412C16.4552 10.2709 16.1903 11.5892 16.9795 12.7846C17.4871 13.5528 18.0359 14.2943 18.5669 15.047C19.2292 15.9845 19.1435 16.8135 18.2296 17.5994L18.2307 17.5983Z" fill="white"/>
    <path d="M6.73296 17.7665C6.39234 17.285 6.09068 16.8567 5.7545 16.3807C6.16414 16.0985 6.54039 15.8395 6.91552 15.5794C8.34815 14.5843 8.58191 13.3302 7.59565 11.8913C7.09696 11.163 6.58269 10.4447 6.08734 9.71416C5.53076 8.89177 5.66434 7.9919 6.47471 7.32336C6.69623 7.63328 6.91886 7.93767 7.1337 8.24759C7.84611 9.27474 8.57523 10.293 9.26427 11.3357C10.3051 12.9119 10.0669 15.0492 8.67541 16.3221C8.09769 16.8511 7.41421 17.2673 6.73296 17.7676V17.7665Z" fill="white"/>
    <path d="M17.5283 6.5475C16.1102 7.50161 14.721 8.50663 13.2605 9.39764C11.8602 10.2521 9.91104 10.0197 8.73221 8.87521C8.09438 8.25537 7.60125 7.48832 7.01685 6.75338C7.53669 6.39033 7.9697 6.08705 8.42943 5.76606C8.78787 6.26968 9.1207 6.75227 9.46912 7.22379C10.2194 8.23877 11.5518 8.50773 12.6216 7.82481C13.5221 7.24924 14.3803 6.60838 15.2753 6.02396C16.0545 5.51481 17.004 5.72954 17.5272 6.5475H17.5283Z" fill="white"/>
    <path d="M17.5817 18.0488C17.1053 18.3775 16.6868 18.6664 16.2081 18.9974C15.9332 18.6033 15.6805 18.2502 15.4378 17.8894C14.4616 16.4361 13.1369 16.1771 11.6887 17.1644C10.9574 17.6636 10.2316 18.1728 9.49692 18.6675C8.67207 19.2232 7.74816 19.0804 7.08917 18.2547C7.46764 17.999 7.84277 17.7477 8.21568 17.4921C9.15963 16.8445 10.0913 16.1815 11.0453 15.5506C12.8252 14.3752 15.145 14.7592 16.4474 16.4417C16.8292 16.9342 17.1676 17.4611 17.5795 18.0477L17.5817 18.0488Z" fill="white"/>
</svg>