<svg width="121" height="119" viewBox="0 0 121 119" fill="none" xmlns="http://www.w3.org/2000/svg">
<path d="M24.8243 22.8379C24.8243 19.5242 27.5106 16.8379 30.8243 16.8379H60.1757C63.4894 16.8379 66.1757 19.5242 66.1757 22.8379V97.5947C66.1757 100.908 63.4894 103.595 60.1757 103.595H30.8243C27.5106 103.595 24.8243 100.908 24.8243 97.5947V22.8379Z" fill="url(#paint0_linear_2002_56)" fill-opacity="0.84"/>
<path fill-rule="evenodd" clip-rule="evenodd" d="M63.7432 9.54055H27.2567C23.2266 9.54055 19.9594 12.8077 19.9594 16.8378V104.405C19.9594 108.436 23.2266 111.703 27.2567 111.703H63.7432C67.7734 111.703 71.0405 108.436 71.0405 104.405V16.8378C71.0405 12.8077 67.7734 9.54055 63.7432 9.54055ZM27.2567 8.72974C22.7788 8.72974 19.1486 12.3599 19.1486 16.8378V104.405C19.1486 108.883 22.7788 112.514 27.2567 112.514H63.7432C68.2212 112.514 71.8513 108.883 71.8513 104.405V16.8378C71.8513 12.3599 68.2212 8.72974 63.7432 8.72974H27.2567Z" fill="url(#paint1_linear_2002_56)" fill-opacity="0.72"/>
<path fill-rule="evenodd" clip-rule="evenodd" d="M70.2297 1.10813H20.7703C16.561 1.10813 13.1486 4.52045 13.1486 8.72975V112.514C13.1486 116.723 16.561 120.135 20.7703 120.135H70.2297C74.439 120.135 77.8513 116.723 77.8513 112.514V8.72975C77.8513 4.52045 74.439 1.10813 70.2297 1.10813ZM20.7703 0.621643C16.2923 0.621643 12.6622 4.25177 12.6622 8.72975V112.514C12.6622 116.992 16.2923 120.622 20.7703 120.622H70.2297C74.7077 120.622 78.3378 116.992 78.3378 112.514V8.72975C78.3378 4.25177 74.7077 0.621643 70.2297 0.621643H20.7703Z" fill="url(#paint2_linear_2002_56)" fill-opacity="0.2"/>
<rect x="52.3919" y="32.2432" width="41.3514" height="71.3513" rx="6" fill="url(#paint3_linear_2002_56)" fill-opacity="0.84"/>
<path fill-rule="evenodd" clip-rule="evenodd" d="M89.6892 27.3784H56.446C52.4158 27.3784 49.1487 30.6455 49.1487 34.6757V101.162C49.1487 105.192 52.4158 108.459 56.446 108.459H89.6892C93.7194 108.459 96.9865 105.192 96.9865 101.162V34.6757C96.9865 30.6455 93.7194 27.3784 89.6892 27.3784ZM56.446 26.5676C51.968 26.5676 48.3378 30.1977 48.3378 34.6757V101.162C48.3378 105.64 51.968 109.27 56.446 109.27H89.6892C94.1672 109.27 97.7973 105.64 97.7973 101.162V34.6757C97.7973 30.1977 94.1672 26.5676 89.6892 26.5676H56.446Z" fill="url(#paint4_linear_2002_56)" fill-opacity="0.8"/>
<path fill-rule="evenodd" clip-rule="evenodd" d="M95.3649 19.7568H50.7703C46.561 19.7568 43.1487 23.1691 43.1487 27.3784V108.459C43.1487 112.669 46.561 116.081 50.7703 116.081H95.3649C99.5742 116.081 102.986 112.669 102.986 108.459V27.3784C102.986 23.1691 99.5742 19.7568 95.3649 19.7568ZM50.7703 19.2703C46.2923 19.2703 42.6622 22.9004 42.6622 27.3784V108.459C42.6622 112.937 46.2923 116.568 50.7703 116.568H95.3649C99.8429 116.568 103.473 112.937 103.473 108.459V27.3784C103.473 22.9004 99.8429 19.2703 95.3649 19.2703H50.7703Z" fill="url(#paint5_linear_2002_56)" fill-opacity="0.2"/>
<g style="mix-blend-mode:hard-light" filter="url(#filter0_f_2002_56)">
<ellipse cx="91.9563" cy="105.893" rx="34.9515" ry="20.6796" fill="#B45AFA"/>
</g>
<g style="mix-blend-mode:hard-light" filter="url(#filter1_f_2002_56)">
<ellipse cx="31.3738" cy="106.185" rx="31.4563" ry="18.6408" fill="#5A87FA"/>
</g>
<defs>
<filter id="filter0_f_2002_56" x="1.00487" y="29.2136" width="181.903" height="153.359" filterUnits="userSpaceOnUse" color-interpolation-filters="sRGB">
<feFlood flood-opacity="0" result="BackgroundImageFix"/>
<feBlend mode="normal" in="SourceGraphic" in2="BackgroundImageFix" result="shape"/>
<feGaussianBlur stdDeviation="28" result="effect1_foregroundBlur_2002_56"/>
</filter>
<filter id="filter1_f_2002_56" x="-56.0825" y="31.5439" width="174.913" height="149.282" filterUnits="userSpaceOnUse" color-interpolation-filters="sRGB">
<feFlood flood-opacity="0" result="BackgroundImageFix"/>
<feBlend mode="normal" in="SourceGraphic" in2="BackgroundImageFix" result="shape"/>
<feGaussianBlur stdDeviation="28" result="effect1_foregroundBlur_2002_56"/>
</filter>
<linearGradient id="paint0_linear_2002_56" x1="45.5" y1="16.8379" x2="45.5" y2="103.595" gradientUnits="userSpaceOnUse">
<stop stop-color="#5C46FF"/>
<stop offset="1" stop-color="#372A99"/>
</linearGradient>
<linearGradient id="paint1_linear_2002_56" x1="45.5" y1="8.72974" x2="45.5" y2="112.514" gradientUnits="userSpaceOnUse">
<stop stop-color="#5C46FF"/>
<stop offset="1" stop-color="#372A99"/>
</linearGradient>
<linearGradient id="paint2_linear_2002_56" x1="45.5" y1="0.621643" x2="45.5" y2="120.622" gradientUnits="userSpaceOnUse">
<stop stop-color="#5C46FF"/>
<stop offset="1" stop-color="#372A99"/>
</linearGradient>
<linearGradient id="paint3_linear_2002_56" x1="73.0676" y1="32.2432" x2="73.0676" y2="103.595" gradientUnits="userSpaceOnUse">
<stop stop-color="#E133F0"/>
<stop offset="1" stop-color="#811D8A"/>
</linearGradient>
<linearGradient id="paint4_linear_2002_56" x1="73.0676" y1="26.5676" x2="73.0676" y2="109.27" gradientUnits="userSpaceOnUse">
<stop stop-color="#E133F0"/>
<stop offset="1" stop-color="#811D8A"/>
</linearGradient>
<linearGradient id="paint5_linear_2002_56" x1="73.0676" y1="19.2703" x2="73.0676" y2="116.568" gradientUnits="userSpaceOnUse">
<stop stop-color="#E133F0"/>
<stop offset="1" stop-color="#811D8A"/>
</linearGradient>
</defs>
</svg>
