<svg xmlns="http://www.w3.org/2000/svg" width="22" height="22" viewBox="0 0 22 22" fill="none">
  <path d="M12.7925 13.8477C12.7925 16.4106 10.7151 18.488 8.15222 18.488C5.58937 18.488 3.51196 16.4106 3.51196 13.8477C3.51196 11.2849 5.58937 9.20746 8.15222 9.20746C8.27358 9.20746 8.40207 9.2146 8.52343 9.22174C10.7865 9.40021 12.5997 11.2135 12.7782 13.4765C12.7853 13.5979 12.7925 13.7264 12.7925 13.8477Z" fill="#525560"/>
  <path d="M11.5948 9.46761C10.6358 8.70257 9.41822 8.25 8.09287 8.25C6.76751 8.25 5.52835 8.71331 4.55858 9.4999C3.25477 10.5236 2.43585 12.1291 2.43585 13.907C2.43585 14.963 2.73757 15.9759 3.25478 16.8163C3.65347 17.4736 4.17066 18.0447 4.78485 18.4865C5.71152 19.1653 6.85371 19.564 8.09287 19.564C9.52598 19.564 10.819 19.036 11.8103 18.1525C12.2521 17.7861 12.6292 17.3336 12.9309 16.8163C13.4482 15.9759 13.7499 14.963 13.7499 13.907C13.7499 12.1075 12.9094 10.502 11.5948 9.46761ZM8.09287 16.6008C8.09287 15.1138 6.88604 13.907 5.39905 13.907C6.88604 13.907 8.09287 12.7002 8.09287 11.2132C8.09287 12.7002 9.2997 13.907 10.7867 13.907C9.2997 13.907 8.09287 15.1138 8.09287 16.6008Z" fill="#B9C0D4"/>
  <path opacity="0.4" d="M19.8621 7.79167C19.8621 10.9142 17.331 13.4453 14.2084 13.4453C14.0605 13.4453 13.904 13.4366 13.7561 13.4279C13.5387 10.6707 11.3294 8.46141 8.57213 8.24396C8.56344 8.0961 8.55475 7.93953 8.55475 7.79167C8.55475 4.6691 11.0859 2.138 14.2084 2.138C17.331 2.138 19.8621 4.6691 19.8621 7.79167Z" fill="#B9C0D4"/>
  <path d="M5.12414 1.83331H2.74998C2.24581 1.83331 1.83331 2.24581 1.83331 2.74998V5.12414C1.83331 5.93998 2.82331 6.35248 3.40081 5.77498L5.77497 3.40082C6.3433 2.82332 5.93998 1.83331 5.12414 1.83331Z" fill="#B9C0D4"/>
  <path d="M16.8758 20.1667H19.25C19.7541 20.1667 20.1666 19.7542 20.1666 19.25V16.8759C20.1666 16.06 19.1766 15.6475 18.5991 16.225L16.225 18.5992C15.6566 19.1767 16.06 20.1667 16.8758 20.1667Z" fill="#B9C0D4"/>
</svg>