<svg xmlns="http://www.w3.org/2000/svg" width="28" height="28" viewBox="0 0 28 28" fill="none">
    <rect width="28" height="28" rx="14" fill="#6A56F6"/>
    <path d="M8.25313 20.1789C7.66983 19.5912 7.08517 19.0049 6.50731 18.4124C6.45156 18.355 6.41145 18.2532 6.41213 18.1725C6.42301 16.0657 6.34686 13.9526 6.47875 11.8533C6.68882 8.49375 9.43605 5.60508 12.7367 5.09665C16.9952 4.44128 20.773 7.18029 21.4984 11.4514C22.2122 15.6495 19.0761 19.7696 14.8482 20.1871C14.5811 20.2138 14.3125 20.2316 14.0175 20.2555V18.355C14.4478 18.2901 14.8768 18.2525 15.2928 18.1575C17.5995 17.6313 19.2699 15.7595 19.6268 13.3239C19.9491 11.1248 18.7947 8.79786 16.8232 7.67164C14.7803 6.5051 12.2547 6.69577 10.4504 8.17666C9.07098 9.30903 8.35239 10.7831 8.34015 12.5763C8.32315 14.9798 8.33607 17.3839 8.33607 19.7874C8.33607 19.9083 8.33607 20.03 8.33607 20.1509C8.3082 20.1605 8.28032 20.1701 8.25313 20.1796V20.1789Z" fill="white"/>
    <path d="M13.9435 16.4112V14.5066C14.1121 14.4757 14.2692 14.4572 14.4208 14.4181C15.334 14.18 15.9175 13.2888 15.7944 12.3276C15.6727 11.3746 14.8819 10.683 13.9197 10.6892C12.9609 10.6954 12.1776 11.3993 12.0722 12.3571C12.0525 12.5382 12.0498 12.7221 12.0498 12.9046C12.0484 16.4613 12.0491 20.018 12.0491 23.574C12.0491 23.7051 12.0491 23.8355 12.0491 23.9665C12.0226 23.9775 11.9961 23.9891 11.9689 24.0001C11.3821 23.4032 10.7925 22.8091 10.2132 22.2039C10.154 22.1422 10.1397 22.0173 10.1397 21.9212C10.1363 18.7535 10.1187 15.5858 10.1452 12.4181C10.1622 10.3921 11.9322 8.72558 13.9727 8.74479C15.9977 8.764 17.6976 10.4456 17.7303 12.4614C17.7622 14.4469 16.422 16.0634 14.48 16.3749C14.3155 16.4016 14.1455 16.3975 13.9435 16.4105V16.4112Z" fill="white"/>
</svg>