<svg xmlns="http://www.w3.org/2000/svg" width="22" height="22" viewBox="0 0 22 22" fill="none">
  <path opacity="0.4" d="M8.25016 1.83325C5.8485 1.83325 3.896 3.78575 3.896 6.18742C3.896 8.54325 5.7385 10.4499 8.14016 10.5324C8.2135 10.5233 8.28683 10.5233 8.34183 10.5324C8.36016 10.5324 8.36933 10.5324 8.38766 10.5324C8.39683 10.5324 8.39683 10.5324 8.406 10.5324C10.7527 10.4499 12.5952 8.54325 12.6043 6.18742C12.6043 3.78575 10.6518 1.83325 8.25016 1.83325Z" fill="#B9C0D4"/>
  <path d="M12.9068 12.9706C10.3493 11.2656 6.17848 11.2656 3.60265 12.9706C2.43848 13.7498 1.79681 14.804 1.79681 15.9315C1.79681 17.059 2.43848 18.104 3.59348 18.874C4.87681 19.7356 6.56348 20.1665 8.25015 20.1665C9.93681 20.1665 11.6235 19.7356 12.9068 18.874C14.0618 18.0948 14.7035 17.0498 14.7035 15.9131C14.6943 14.7856 14.0618 13.7406 12.9068 12.9706Z" fill="#B9C0D4"/>
  <path opacity="0.4" d="M18.3242 6.72834C18.4709 8.50668 17.2059 10.065 15.455 10.2758C15.4459 10.2758 15.4459 10.2758 15.4367 10.2758H15.4092C15.3542 10.2758 15.2992 10.2758 15.2534 10.2942C14.3642 10.34 13.5484 10.0558 12.9342 9.53334C13.8784 8.69001 14.4192 7.42501 14.3092 6.05001C14.245 5.30751 13.9884 4.62918 13.6034 4.05168C13.9517 3.87751 14.355 3.76751 14.7675 3.73084C16.5642 3.57501 18.1684 4.91334 18.3242 6.72834Z" fill="#B9C0D4"/>
  <path d="M20.1579 15.2074C20.0845 16.0965 19.5162 16.8665 18.5629 17.389C17.6462 17.8932 16.4912 18.1315 15.3454 18.104C16.0054 17.5082 16.3904 16.7657 16.4637 15.9774C16.5554 14.8407 16.0145 13.7499 14.9329 12.879C14.3187 12.3932 13.6037 12.0082 12.8245 11.724C14.8504 11.1374 17.3987 11.5315 18.9662 12.7965C19.8095 13.4749 20.2404 14.3274 20.1579 15.2074Z" fill="#B9C0D4"/>
</svg>