<svg xmlns="http://www.w3.org/2000/svg" width="24" height="24" viewBox="0 0 24 24" fill="none">
    <rect width="24" height="24" rx="12" fill="white" fill-opacity="0.12"/>
    <path d="M12.2486 15.5854C10.2703 15.5884 8.65022 13.9794 8.64482 12.0074C8.63942 10.0286 10.2644 8.39993 12.2476 8.396C14.2239 8.39207 15.8646 10.0364 15.8494 12.0059C15.8342 13.9892 14.2313 15.5825 12.2486 15.5854Z" fill="#CF1011"/>
    <path d="M12.2618 19.1821C15.7203 19.1187 18.5471 16.8786 19.2534 13.4951C19.8281 10.7412 18.9942 8.38222 16.8746 6.52176C15.6197 5.42012 14.1238 4.87642 12.4567 4.82829C12.1592 4.81994 12.2481 4.6333 12.2299 4.47908C12.2073 4.28753 12.3006 4.24284 12.4748 4.25119C15.2869 4.38183 17.4606 5.64457 18.9005 8.04677C21.3342 12.1071 19.5645 17.3461 15.1996 19.1619C10.7556 21.0106 5.64619 18.3216 4.67642 13.6021C4.22295 11.3954 4.64403 9.34733 5.94949 7.49718C6.03439 7.37685 6.0555 7.28991 5.97845 7.14748C5.67957 6.59445 5.80864 5.92011 6.26996 5.51786C6.75092 5.09842 7.40512 5.05667 7.92289 5.41226C8.40875 5.74673 8.62715 6.40438 8.43526 6.95495C8.23159 7.53942 7.63431 7.92104 7.01496 7.86014C6.96686 7.85522 6.91926 7.84196 6.87165 7.82968C6.47707 7.72753 6.47069 7.72311 6.24935 8.05954C5.58583 9.06885 5.21529 10.1769 5.10242 11.3821C4.82169 14.3845 6.50308 17.2086 9.1351 18.4728C10.1093 18.9404 11.2538 19.2007 12.2608 19.1821H12.2618ZM6.38971 6.51783C6.38824 6.95102 6.73178 7.29433 7.16415 7.29139C7.59064 7.28893 7.94694 6.93039 7.94105 6.50997C7.93516 6.09544 7.59014 5.75655 7.16955 5.75164C6.7362 5.74673 6.39168 6.08562 6.3902 6.51783H6.38971Z" fill="#CF1011"/>
</svg>