<svg xmlns="http://www.w3.org/2000/svg" width="16" height="16" viewBox="0 0 16 16" fill="none">
  <path d="M8.80871 9.57895H4.97993L1.67926 6.35789V5.22105C1.67926 5.22105 4.05492 2.97714 5.11196 2H8.94074L5.64007 5.16882V6.4016L8.80871 9.57895Z" fill="#6A56F6"/>
  <path d="M7.48844 6.42105L11.3172 6.42105L14.6179 9.64211V10.7789C14.6179 10.7789 12.2422 13.0229 11.1852 14H7.35642L10.6571 10.8312V9.5984L7.48844 6.42105Z" fill="#6A56F6"/>
  <path d="M14.9997 5.2374H7.19129C7.19129 5.2374 9.41973 3.07089 10.5251 2H11.7133L15 5.2371L14.9997 5.2374Z" fill="#6A56F6"/>
  <path d="M1.00032 10.7626H8.80871C8.80871 10.7626 6.58027 12.9291 5.47494 14H4.28669L1 10.7629L1.00032 10.7626Z" fill="#6A56F6"/>
</svg>