<svg xmlns="http://www.w3.org/2000/svg" width="24" height="24" viewBox="0 0 24 24" fill="none">
    <rect width="24" height="24" rx="12" fill="#C534FB"/>
    <path d="M18.5976 15.6021L16.3965 17.846C16.3485 17.8951 16.2906 17.9338 16.2265 17.9598C16.1621 17.987 16.0927 18.0007 16.0226 17.9999H5.58872C5.53915 18 5.49059 17.9863 5.44872 17.9604C5.40723 17.9348 5.37439 17.8978 5.35428 17.8541C5.33458 17.8108 5.32858 17.7626 5.33706 17.7159C5.34547 17.669 5.36811 17.6255 5.40206 17.5913L7.60483 15.3479C7.65261 15.2989 7.71031 15.2602 7.77427 15.2341C7.83839 15.2068 7.90766 15.193 7.9776 15.1934H18.4109C18.4605 15.1936 18.5091 15.2075 18.5509 15.2335C18.5924 15.2591 18.6252 15.2961 18.6453 15.3398C18.6651 15.3832 18.6711 15.4313 18.6626 15.478C18.6542 15.5249 18.6315 15.5678 18.5976 15.6021ZM16.3965 11.0851C16.3485 11.036 16.2906 10.9972 16.2265 10.9712C16.1622 10.9439 16.0927 10.93 16.0226 10.9306H5.58872C5.53915 10.9305 5.49059 10.9443 5.44872 10.9702C5.40715 10.9959 5.3743 11.033 5.35428 11.0769C5.33469 11.1201 5.32869 11.1681 5.33706 11.2146C5.34547 11.2616 5.36811 11.305 5.40206 11.3393L7.60483 13.5831C7.65261 13.6321 7.71031 13.6709 7.77427 13.697C7.83843 13.7241 7.9077 13.7377 7.9776 13.7371H18.4109C18.4605 13.7371 18.509 13.7234 18.5509 13.6975C18.5924 13.6719 18.6252 13.635 18.6453 13.5913C18.6651 13.5479 18.6711 13.4998 18.6626 13.4531C18.6542 13.4061 18.6315 13.3627 18.5976 13.3284L16.3965 11.0851ZM5.58872 9.47314H16.0231C16.0933 9.47369 16.1627 9.45984 16.227 9.43249C16.2912 9.40648 16.3491 9.36772 16.397 9.31867L18.5981 7.07478C18.6321 7.04049 18.6547 6.99707 18.6631 6.95012C18.6713 6.90352 18.6651 6.8556 18.6453 6.81245C18.6252 6.76876 18.5924 6.73181 18.5509 6.70621C18.509 6.68033 18.4605 6.6666 18.4109 6.66665H7.9776C7.9077 6.666 7.83843 6.67967 7.77427 6.70676C7.71031 6.73283 7.65261 6.77159 7.60483 6.82058L5.40261 9.06501C5.36866 9.09929 5.34602 9.14271 5.33761 9.18967C5.32907 9.23616 5.33487 9.28407 5.35428 9.32734C5.37439 9.37103 5.40723 9.40798 5.44872 9.43357C5.49054 9.45965 5.5391 9.47302 5.58872 9.47314Z" fill="white"/>
</svg>