<svg width="49" height="32" viewBox="0 0 49 32" fill="none" xmlns="http://www.w3.org/2000/svg">
<rect width="49" height="32" rx="16" fill="#6A56F6" fill-opacity="0.16"/>
<path d="M14.97 14.76C14.9233 14.7133 14.8367 14.65 14.71 14.57C14.59 14.49 14.44 14.4133 14.26 14.34C14.0867 14.2667 13.8967 14.2033 13.69 14.15C13.4833 14.09 13.2733 14.06 13.06 14.06C12.6867 14.06 12.4033 14.13 12.21 14.27C12.0233 14.41 11.93 14.6067 11.93 14.86C11.93 15.0533 11.99 15.2067 12.11 15.32C12.23 15.4333 12.41 15.53 12.65 15.61C12.89 15.69 13.19 15.7767 13.55 15.87C14.0167 15.9833 14.42 16.1233 14.76 16.29C15.1067 16.45 15.37 16.6633 15.55 16.93C15.7367 17.19 15.83 17.5367 15.83 17.97C15.83 18.35 15.76 18.6767 15.62 18.95C15.48 19.2167 15.2867 19.4333 15.04 19.6C14.7933 19.7667 14.5133 19.89 14.2 19.97C13.8867 20.0433 13.5533 20.08 13.2 20.08C12.8467 20.08 12.4933 20.0433 12.14 19.97C11.7867 19.8967 11.4467 19.7933 11.12 19.66C10.7933 19.52 10.4933 19.3533 10.22 19.16L10.83 17.97C10.89 18.03 10.9967 18.11 11.15 18.21C11.3033 18.3033 11.49 18.4 11.71 18.5C11.93 18.5933 12.17 18.6733 12.43 18.74C12.69 18.8067 12.9533 18.84 13.22 18.84C13.5933 18.84 13.8767 18.7767 14.07 18.65C14.2633 18.5233 14.36 18.3433 14.36 18.11C14.36 17.8967 14.2833 17.73 14.13 17.61C13.9767 17.49 13.7633 17.3867 13.49 17.3C13.2167 17.2067 12.8933 17.1067 12.52 17C12.0733 16.8733 11.7 16.7333 11.4 16.58C11.1 16.42 10.8767 16.22 10.73 15.98C10.5833 15.74 10.51 15.44 10.51 15.08C10.51 14.5933 10.6233 14.1867 10.85 13.86C11.0833 13.5267 11.3967 13.2767 11.79 13.11C12.1833 12.9367 12.62 12.85 13.1 12.85C13.4333 12.85 13.7467 12.8867 14.04 12.96C14.34 13.0333 14.62 13.13 14.88 13.25C15.14 13.37 15.3733 13.5 15.58 13.64L14.97 14.76ZM19.9028 20.05C19.3828 20.05 18.9095 19.95 18.4828 19.75C18.0628 19.55 17.6995 19.28 17.3928 18.94C17.0928 18.5933 16.8595 18.2067 16.6928 17.78C16.5261 17.3467 16.4428 16.9033 16.4428 16.45C16.4428 15.9767 16.5295 15.5267 16.7028 15.1C16.8828 14.6667 17.1261 14.2833 17.4328 13.95C17.7461 13.61 18.1128 13.3433 18.5328 13.15C18.9595 12.95 19.4261 12.85 19.9328 12.85C20.4461 12.85 20.9128 12.9533 21.3328 13.16C21.7595 13.3667 22.1228 13.6433 22.4228 13.99C22.7228 14.3367 22.9561 14.7233 23.1228 15.15C23.2895 15.5767 23.3728 16.0167 23.3728 16.47C23.3728 16.9367 23.2861 17.3867 23.1128 17.82C22.9395 18.2467 22.6961 18.63 22.3828 18.97C22.0761 19.3033 21.7095 19.5667 21.2828 19.76C20.8628 19.9533 20.4028 20.05 19.9028 20.05ZM17.8428 16.45C17.8428 16.7567 17.8895 17.0533 17.9828 17.34C18.0761 17.6267 18.2095 17.8833 18.3828 18.11C18.5628 18.33 18.7795 18.5067 19.0328 18.64C19.2928 18.7667 19.5861 18.83 19.9128 18.83C20.2461 18.83 20.5428 18.7633 20.8028 18.63C21.0628 18.49 21.2795 18.3067 21.4528 18.08C21.6261 17.8467 21.7561 17.59 21.8428 17.31C21.9361 17.0233 21.9828 16.7367 21.9828 16.45C21.9828 16.1433 21.9328 15.85 21.8328 15.57C21.7395 15.2833 21.6028 15.03 21.4228 14.81C21.2495 14.5833 21.0328 14.4067 20.7728 14.28C20.5195 14.1467 20.2328 14.08 19.9128 14.08C19.5728 14.08 19.2728 14.15 19.0128 14.29C18.7595 14.4233 18.5461 14.6033 18.3728 14.83C18.1995 15.0567 18.0661 15.31 17.9728 15.59C17.8861 15.87 17.8428 16.1567 17.8428 16.45ZM27.4614 20.05C26.9414 20.05 26.4681 19.95 26.0414 19.75C25.6214 19.55 25.2581 19.28 24.9514 18.94C24.6514 18.5933 24.4181 18.2067 24.2514 17.78C24.0847 17.3467 24.0014 16.9033 24.0014 16.45C24.0014 15.9767 24.0881 15.5267 24.2614 15.1C24.4414 14.6667 24.6847 14.2833 24.9914 13.95C25.3047 13.61 25.6714 13.3433 26.0914 13.15C26.5181 12.95 26.9847 12.85 27.4914 12.85C28.0047 12.85 28.4714 12.9533 28.8914 13.16C29.3181 13.3667 29.6814 13.6433 29.9814 13.99C30.2814 14.3367 30.5147 14.7233 30.6814 15.15C30.8481 15.5767 30.9314 16.0167 30.9314 16.47C30.9314 16.9367 30.8447 17.3867 30.6714 17.82C30.4981 18.2467 30.2547 18.63 29.9414 18.97C29.6347 19.3033 29.2681 19.5667 28.8414 19.76C28.4214 19.9533 27.9614 20.05 27.4614 20.05ZM25.4014 16.45C25.4014 16.7567 25.4481 17.0533 25.5414 17.34C25.6347 17.6267 25.7681 17.8833 25.9414 18.11C26.1214 18.33 26.3381 18.5067 26.5914 18.64C26.8514 18.7667 27.1447 18.83 27.4714 18.83C27.8047 18.83 28.1014 18.7633 28.3614 18.63C28.6214 18.49 28.8381 18.3067 29.0114 18.08C29.1847 17.8467 29.3147 17.59 29.4014 17.31C29.4947 17.0233 29.5414 16.7367 29.5414 16.45C29.5414 16.1433 29.4914 15.85 29.3914 15.57C29.2981 15.2833 29.1614 15.03 28.9814 14.81C28.8081 14.5833 28.5914 14.4067 28.3314 14.28C28.0781 14.1467 27.7914 14.08 27.4714 14.08C27.1314 14.08 26.8314 14.15 26.5714 14.29C26.3181 14.4233 26.1047 14.6033 25.9314 14.83C25.7581 15.0567 25.6247 15.31 25.5314 15.59C25.4447 15.87 25.4014 16.1567 25.4014 16.45ZM33.37 15.44V20H31.99V12.9H33.09L36.76 17.58V12.91H38.14V20H36.99L33.37 15.44Z" fill="#6A56F6"/>
</svg>
