<svg xmlns="http://www.w3.org/2000/svg" width="22" height="22" viewBox="0 0 22 22" fill="none">
  <path opacity="0.4" fill-rule="evenodd" clip-rule="evenodd" d="M21.0834 13.9517C21.463 13.9517 21.7709 14.2595 21.7709 14.6392C21.7709 18.5664 18.5939 21.7433 14.6667 21.7433C14.419 21.7433 14.1905 21.6101 14.0684 21.3946C13.9464 21.179 13.9497 20.9145 14.0772 20.7021L15.0397 19.0979C15.235 18.7724 15.6573 18.6668 15.9829 18.8621C16.3085 19.0575 16.4141 19.4798 16.2187 19.8054L15.97 20.2199C18.5083 19.631 20.3959 17.3585 20.3959 14.6392C20.3959 14.2595 20.7037 13.9517 21.0834 13.9517Z" fill="#B9C0D4"/>
  <path opacity="0.4" fill-rule="evenodd" clip-rule="evenodd" d="M6.03003 1.7251C3.49169 2.314 1.60419 4.58646 1.60419 7.30583C1.60419 7.68552 1.29638 7.99333 0.916687 7.99333C0.536991 7.99333 0.229187 7.68552 0.229187 7.30583C0.229187 3.37863 3.40616 0.20166 7.33335 0.20166C7.58104 0.20166 7.80958 0.334892 7.93162 0.55043C8.05365 0.765967 8.05031 1.03049 7.92288 1.24288L6.96038 2.84704C6.76503 3.17263 6.34272 3.2782 6.01714 3.08285C5.69155 2.8875 5.58598 2.4652 5.78133 2.13961L6.03003 1.7251Z" fill="#B9C0D4"/>
  <path d="M13 14C13 16.7634 10.7634 19 8 19C5.23663 19 3 16.7634 3 14C3 11.2367 5.23663 9 8 9C8.12966 9 8.25122 9.00812 8.38898 9.01622C10.8444 9.20261 12.8055 11.1637 12.9919 13.6191C12.9919 13.7407 13 13.8623 13 14Z" fill="#B9C0D4"/>
  <path d="M19.7083 7.9475C19.7083 11.0733 17.1783 13.6034 14.0525 13.6034H13.6033C13.3925 10.8259 11.1742 8.6075 8.39667 8.39666V7.9475C8.39667 4.82167 10.9267 2.29169 14.0525 2.29169C17.1783 2.29169 19.7083 4.82167 19.7083 7.9475Z" fill="#B9C0D4"/>
  <path d="M11.4966 9.56728C10.5391 8.80339 9.3233 8.3515 7.99994 8.3515C6.67658 8.3515 5.43929 8.81411 4.47097 9.59952C3.16913 10.6216 2.35144 12.2248 2.35144 14C2.35144 15.0544 2.6527 16.0657 3.16914 16.905C3.56722 17.5613 4.08364 18.1315 4.6969 18.5726C5.62218 19.2504 6.76265 19.6485 7.99994 19.6485C9.43089 19.6485 10.722 19.1213 11.7118 18.2391C12.1529 17.8733 12.5295 17.4214 12.8307 16.905C13.3472 16.0657 13.6484 15.0544 13.6484 14C13.6484 12.2032 12.8092 10.6001 11.4966 9.56728ZM7.99994 16.6898C7.99994 15.205 6.79493 14 5.31018 14C6.79493 14 7.99994 12.795 7.99994 11.3102C7.99994 12.795 9.20495 14 10.6897 14C9.20495 14 7.99994 15.205 7.99994 16.6898Z" fill="#525560"/>
</svg>