<svg xmlns="http://www.w3.org/2000/svg" width="22" height="22" viewBox="0 0 22 22" fill="none">
  <path d="M19.8642 6.37083C19.2775 4.38166 17.6184 2.72249 15.6292 2.13583C14.1167 1.69583 13.0717 1.73249 12.3475 2.27333C11.4767 2.92416 11.3759 4.09749 11.3759 4.93166V7.21416C11.3759 9.46916 12.4025 10.615 14.4192 10.615H17.05C17.875 10.615 19.0575 10.5142 19.7084 9.64333C20.2675 8.92833 20.3134 7.88333 19.8642 6.37083Z" fill="#B9C0D4"/>
  <path opacity="0.4" d="M17.3342 12.2467C17.0959 11.9717 16.7475 11.8158 16.39 11.8158H13.1084C11.495 11.8158 10.1842 10.505 10.1842 8.89168V5.61002C10.1842 5.25252 10.0284 4.90418 9.75336 4.66585C9.48753 4.42752 9.12086 4.31752 8.77253 4.36335C6.61836 4.63835 4.63836 5.82085 3.34586 7.59918C2.0442 9.38668 1.56753 11.5683 1.98003 13.75C2.57586 16.9033 5.0967 19.4242 8.2592 20.02C8.76336 20.1208 9.26753 20.1667 9.7717 20.1667C11.4309 20.1667 13.035 19.6533 14.4009 18.6542C16.1792 17.3617 17.3617 15.3817 17.6367 13.2275C17.6825 12.87 17.5725 12.5125 17.3342 12.2467Z" fill="#B9C0D4"/>
</svg>