<svg width="148" height="144" viewBox="0 0 148 144" fill="none" xmlns="http://www.w3.org/2000/svg">
<path d="M155.903 158.369V144.402C155.903 136.214 151.485 128.732 143.897 125.657C129.562 119.846 110.641 113.46 110.641 110.233C110.641 106.641 125.01 97.301 125.01 82.2138V19.8309C125.01 11.9413 119.652 5.07979 111.878 3.73212C102.424 2.09317 88.886 0.310669 74.7185 0.310669C59.074 0.310669 45.2988 2.07605 35.9053 3.70846C28.2275 5.0427 22.9903 11.8243 22.9903 19.6171V82.2138C22.9903 94.7864 36.6408 103.767 36.6408 110.233C36.6408 115.321 18.379 120.701 4.24153 125.915C-3.45399 128.753 -7.90289 136.227 -7.90289 144.429V158.369H155.903Z" fill="url(#paint0_linear_2002_77)" fill-opacity="0.8"/>
<path d="M33.0485 49.8835C33.0485 39.0225 37.363 28.6063 45.0429 20.9264C52.7228 13.2466 63.139 8.93204 74 8.93204C84.861 8.93204 95.2771 13.2466 102.957 20.9264C110.637 28.6063 114.951 39.0225 114.951 49.8835V66.2641C114.951 77.1251 113.601 84.8593 105.831 92.3473C97.7087 100.175 90.8835 109.155 85.8544 111.311C80.9793 113.4 67.534 113.825 62.1456 111.311C57.641 109.209 50.6505 99.4563 42.1691 92.3473C33.8991 85.4155 33.0485 77.1251 33.0485 66.2641V49.8835Z" fill="#020106" fill-opacity="0.64"/>
<g style="mix-blend-mode:overlay">
<path d="M44.3358 20.2193C36.4684 28.0868 32.0485 38.7573 32.0485 49.8835V66.2641C32.0485 77.1573 32.8855 85.8707 41.5268 93.1137C45.3682 96.3336 48.9044 100.107 52.0778 103.493C52.3614 103.796 52.642 104.095 52.9197 104.391C54.6032 106.184 56.1862 107.846 57.6358 109.193C59.0718 110.528 60.4479 111.622 61.7227 112.217C64.6338 113.575 69.5366 114.09 74.2039 114.037C78.8785 113.984 83.6226 113.355 86.2483 112.23C87.644 111.632 89.1044 110.589 90.6071 109.297C92.1181 107.998 93.723 106.401 95.4044 104.648C96.4849 103.522 97.596 102.332 98.7395 101.108C101.181 98.4939 103.77 95.7218 106.525 93.0674C110.524 89.2132 112.898 85.2641 114.26 80.8663C115.614 76.4933 115.951 71.7237 115.951 66.2641V49.8835C115.951 38.7573 111.532 28.0868 103.664 20.2193C95.7967 12.3519 85.1262 7.93204 74 7.93204C62.8738 7.93204 52.2032 12.3519 44.3358 20.2193Z" stroke="url(#paint1_linear_2002_77)" stroke-width="2"/>
</g>
<path d="M30.8932 55.4375C30.8932 46.0215 38.5169 38.3884 47.9211 38.3884H100.797C110.202 38.3884 117.825 46.0215 117.825 55.4375V55.6732C117.825 65.1311 110.448 73.5302 101.046 72.623C100.639 72.5838 100.256 72.5386 99.9011 72.4867C78.3921 69.3461 72.5668 68.8974 51.0578 72.4867C50.0263 72.6589 48.8019 72.7754 47.4739 72.8498C38.1248 73.3736 30.8932 65.2487 30.8932 55.8733V55.4375Z" fill="url(#paint2_linear_2002_77)"/>
<g style="mix-blend-mode:overlay">
<path fill-rule="evenodd" clip-rule="evenodd" d="M100.797 39.8253H47.9211C39.3121 39.8253 32.3301 46.8134 32.3301 55.4375V55.8733C32.3301 64.5788 39.0156 71.8845 47.3935 71.4152C48.6929 71.3424 49.8605 71.2298 50.8213 71.0694C61.5989 69.2709 68.5308 68.469 75.4913 68.5262C82.4379 68.5832 89.3655 69.4963 100.109 71.0649C100.436 71.1128 100.796 71.1553 101.184 71.1927C109.544 71.9994 116.388 64.4952 116.388 55.6732V55.4375C116.388 46.8134 109.406 39.8253 100.797 39.8253ZM47.9211 38.3884C38.5169 38.3884 30.8932 46.0215 30.8932 55.4375V55.8733C30.8932 65.2487 38.1248 73.3736 47.4739 72.8498C48.8019 72.7754 50.0263 72.6589 51.0578 72.4867C72.5668 68.8974 78.3921 69.3461 99.9011 72.4867C100.256 72.5386 100.639 72.5838 101.046 72.623C110.448 73.5302 117.825 65.1311 117.825 55.6732V55.4375C117.825 46.0215 110.202 38.3884 100.797 38.3884H47.9211Z" fill="white"/>
</g>
<g style="mix-blend-mode:screen">
<path fill-rule="evenodd" clip-rule="evenodd" d="M110.411 32.6408H38.3073C25.8865 32.6408 15.8058 42.8083 15.8058 55.365V55.9641C15.8058 68.5266 25.3997 79.2819 37.6569 78.5895C39.4534 78.488 41.0944 78.3298 42.4654 78.0991C57.1423 75.6295 66.5103 74.5414 75.8928 74.619C85.2683 74.6966 94.6343 75.9385 109.294 78.0968C109.764 78.1661 110.275 78.2269 110.82 78.2799C123.114 79.476 132.913 68.3824 132.913 55.689V55.365C132.913 42.8083 122.832 32.6408 110.411 32.6408ZM38.3073 31.9223C25.4833 31.9223 15.0874 42.418 15.0874 55.365V55.9641C15.0874 68.8552 24.9487 80.027 37.6975 79.3068C39.5084 79.2045 41.178 79.0443 42.5847 78.8076C71.915 73.8723 79.8587 74.4892 109.189 78.8076C109.673 78.8789 110.196 78.941 110.75 78.9949C123.572 80.2424 133.631 68.6936 133.631 55.689V55.365C133.631 42.418 123.235 31.9223 110.411 31.9223H38.3073Z" fill="#6A57F6"/>
</g>
<g style="mix-blend-mode:screen">
<path fill-rule="evenodd" clip-rule="evenodd" d="M124.254 23.0136H23.7458C6.11186 23.0136 -8.19027 37.447 -8.19027 55.2601V56.0952C-8.19027 73.8676 5.39528 89.1905 22.8714 88.2032C25.387 88.0611 27.6972 87.839 29.6366 87.5126C50.086 84.0717 63.1052 82.5617 76.133 82.6695C89.1566 82.7773 102.175 84.502 122.614 87.5113C123.28 87.6094 124.002 87.6953 124.768 87.7698C142.324 89.4779 156.19 73.6527 156.19 55.7118V55.2601C156.19 37.447 141.888 23.0136 124.254 23.0136ZM23.7458 22.5825C5.86992 22.5825 -8.62134 37.2128 -8.62134 55.2601V56.0952C-8.62134 74.0648 5.1247 89.6375 22.8957 88.6336C25.42 88.491 27.7473 88.2677 29.7082 87.9377C70.593 81.0582 81.6659 81.9182 122.551 87.9377C123.226 88.0371 123.954 88.1238 124.726 88.1989C142.599 89.9378 156.621 73.8394 156.621 55.7118V55.2601C156.621 37.2128 142.13 22.5825 124.254 22.5825H23.7458Z" fill="url(#paint3_linear_2002_77)" fill-opacity="0.24"/>
</g>
<g style="mix-blend-mode:screen">
<path fill-rule="evenodd" clip-rule="evenodd" d="M140.282 12.0214H6.99933C-16.5847 12.0214 -35.7068 31.3239 -35.7068 55.1392V56.2466C-35.7068 79.9771 -17.5586 100.503 5.85988 99.1801C9.203 98.9913 12.2807 98.6957 14.8702 98.2599C41.9821 93.698 59.2221 91.6998 76.4664 91.8425C93.7086 91.9852 110.948 94.2683 138.055 98.2593C138.946 98.3904 139.908 98.5049 140.929 98.6043C164.472 100.895 182.988 79.6836 182.988 55.7382V55.1392C182.988 31.3239 163.866 12.0214 140.282 12.0214ZM6.99933 11.8058C-16.7056 11.8058 -35.9223 31.2068 -35.9223 55.1392V56.2466C-35.9223 80.0757 -17.6939 100.727 5.87203 99.3953C9.21947 99.2062 12.3057 98.91 14.9059 98.4725C69.1227 89.3497 83.8064 90.49 138.023 98.4725C138.918 98.6043 139.884 98.7192 140.908 98.8188C164.609 101.125 183.204 79.7769 183.204 55.7382V55.1392C183.204 31.2068 163.987 11.8058 140.282 11.8058H6.99933Z" fill="url(#paint4_linear_2002_77)" fill-opacity="0.1"/>
</g>
<path fill-rule="evenodd" clip-rule="evenodd" d="M64.7087 83.6395C64.9132 82.8727 65.7006 82.4168 66.4673 82.6213C71.6131 83.9935 76.0277 83.9935 81.1735 82.6213C81.9403 82.4168 82.7276 82.8727 82.9321 83.6395C83.1366 84.4062 82.6807 85.1936 81.9139 85.3981C76.283 86.8997 71.3578 86.8997 65.7269 85.3981C64.9601 85.1936 64.5042 84.4062 64.7087 83.6395Z" fill="#020106" fill-opacity="0.56"/>
<g style="mix-blend-mode:hard-light" filter="url(#filter0_f_2002_77)">
<ellipse cx="112.796" cy="127.835" rx="43.1068" ry="25.5049" fill="#B45AFA"/>
</g>
<g style="mix-blend-mode:hard-light" filter="url(#filter1_f_2002_77)">
<ellipse cx="38.0777" cy="128.194" rx="38.7961" ry="22.9903" fill="#5A87FA"/>
</g>
<defs>
<filter id="filter0_f_2002_77" x="13.6893" y="46.3301" width="198.214" height="163.01" filterUnits="userSpaceOnUse" color-interpolation-filters="sRGB">
<feFlood flood-opacity="0" result="BackgroundImageFix"/>
<feBlend mode="normal" in="SourceGraphic" in2="BackgroundImageFix" result="shape"/>
<feGaussianBlur stdDeviation="28" result="effect1_foregroundBlur_2002_77"/>
</filter>
<filter id="filter1_f_2002_77" x="-56.7184" y="49.2039" width="189.592" height="157.981" filterUnits="userSpaceOnUse" color-interpolation-filters="sRGB">
<feFlood flood-opacity="0" result="BackgroundImageFix"/>
<feBlend mode="normal" in="SourceGraphic" in2="BackgroundImageFix" result="shape"/>
<feGaussianBlur stdDeviation="28" result="effect1_foregroundBlur_2002_77"/>
</filter>
<linearGradient id="paint0_linear_2002_77" x1="74" y1="0.310669" x2="74" y2="158.369" gradientUnits="userSpaceOnUse">
<stop stop-color="#6A57F6" stop-opacity="0.12"/>
<stop offset="0.29" stop-color="#6A57F6" stop-opacity="0.56"/>
<stop offset="0.702688" stop-color="#6A57F6"/>
<stop offset="1" stop-color="#6A57F6" stop-opacity="0.32"/>
</linearGradient>
<linearGradient id="paint1_linear_2002_77" x1="74" y1="8.93204" x2="74" y2="113.041" gradientUnits="userSpaceOnUse">
<stop stop-color="white"/>
<stop offset="0.515" stop-color="white" stop-opacity="0.24"/>
<stop offset="1" stop-color="white"/>
</linearGradient>
<linearGradient id="paint2_linear_2002_77" x1="46.699" y1="38.3884" x2="114.592" y2="68.9223" gradientUnits="userSpaceOnUse">
<stop stop-color="#5770F6"/>
<stop offset="0.33" stop-color="#6A57F6"/>
<stop offset="0.64" stop-color="#6A57F6"/>
<stop offset="1" stop-color="#C357F6"/>
</linearGradient>
<linearGradient id="paint3_linear_2002_77" x1="-1.43687" y1="49.165" x2="156.621" y2="49.165" gradientUnits="userSpaceOnUse">
<stop stop-color="#6A57F6" stop-opacity="0.32"/>
<stop offset="0.19" stop-color="#6A57F6"/>
<stop offset="0.805" stop-color="#6A57F6"/>
<stop offset="1" stop-color="#6A57F6" stop-opacity="0.32"/>
</linearGradient>
<linearGradient id="paint4_linear_2002_77" x1="-26.3951" y1="47.0566" x2="183.204" y2="47.0566" gradientUnits="userSpaceOnUse">
<stop stop-color="#6A57F6" stop-opacity="0.32"/>
<stop offset="0.19" stop-color="#6A57F6"/>
<stop offset="0.805" stop-color="#6A57F6"/>
<stop offset="1" stop-color="#6A57F6" stop-opacity="0.32"/>
</linearGradient>
</defs>
</svg>
