<svg width="148" height="144" viewBox="0 0 148 144" fill="none" xmlns="http://www.w3.org/2000/svg">
<path fill-rule="evenodd" clip-rule="evenodd" d="M155.903 144.402V158.369H103.97C100.537 151.06 93.1094 146 84.5 146C75.8906 146 68.4631 151.06 65.0296 158.369H-7.90292V144.429C-7.90292 136.227 -3.45402 128.753 4.2415 125.915C6.69131 125.011 9.26495 124.103 11.846 123.192C24.1596 118.845 36.6408 114.44 36.6408 110.233C36.6408 107.533 34.2598 104.394 31.4867 100.738C27.6198 95.6394 22.9903 89.5358 22.9903 82.2139L19.3805 28.6417C19.3805 6.23505 60.2482 0.310822 74.7184 0.310822C89.2152 0.310822 128.619 6.77326 128.619 28.8554L125.01 82.2139C125.01 92.3535 118.52 99.8971 114.263 104.845C112.186 107.259 110.641 109.055 110.641 110.233C110.641 112.738 122.045 117.148 133.854 121.714C137.256 123.029 140.691 124.357 143.897 125.657C151.485 128.732 155.903 136.214 155.903 144.402Z" fill="url(#paint0_linear_2002_78)" fill-opacity="0.8"/>
<path d="M33.0486 49.8835C33.0486 39.0225 37.3631 28.6063 45.043 20.9264C52.7228 13.2466 63.139 8.93204 74 8.93204C84.861 8.93204 95.2772 13.2466 102.957 20.9264C110.637 28.6063 114.951 39.0225 114.951 49.8835V66.2641C114.951 77.1251 113.601 84.8593 105.831 92.3473C97.7087 100.175 90.8835 109.155 85.8544 111.311C80.9794 113.4 67.534 113.825 62.1456 111.311C57.641 109.209 50.6505 99.4563 42.1692 92.3473C33.8991 85.4155 33.0486 77.1251 33.0486 66.2641V49.8835Z" fill="#020106" fill-opacity="0.64"/>
<g style="mix-blend-mode:overlay">
<path d="M44.3358 20.2193C36.4684 28.0868 32.0486 38.7573 32.0486 49.8835V66.2641C32.0486 77.1573 32.8855 85.8707 41.5268 93.1137C45.3682 96.3336 48.9044 100.107 52.0779 103.493C52.3614 103.796 52.642 104.095 52.9197 104.391C54.6032 106.184 56.1862 107.846 57.6358 109.193C59.0718 110.528 60.4479 111.622 61.7228 112.217C64.6338 113.575 69.5367 114.09 74.204 114.037C78.8786 113.984 83.6226 113.355 86.2483 112.23C87.6441 111.632 89.1044 110.589 90.6071 109.297C92.1181 107.998 93.723 106.401 95.4044 104.648C96.4849 103.522 97.5961 102.332 98.7396 101.108C101.181 98.4939 103.77 95.7218 106.525 93.0674C110.524 89.2132 112.898 85.2641 114.26 80.8663C115.614 76.4933 115.951 71.7237 115.951 66.2641V49.8835C115.951 38.7573 111.532 28.0868 103.664 20.2193C95.7967 12.3519 85.1262 7.93204 74 7.93204C62.8738 7.93204 52.2033 12.3519 44.3358 20.2193Z" stroke="url(#paint1_linear_2002_78)" stroke-width="2"/>
</g>
<path fill-rule="evenodd" clip-rule="evenodd" d="M64.7087 83.6395C64.9132 82.8727 65.7006 82.4168 66.4673 82.6213C71.6131 83.9935 76.0277 83.9935 81.1735 82.6213C81.9402 82.4168 82.7276 82.8727 82.9321 83.6395C83.1366 84.4062 82.6807 85.1936 81.9139 85.3981C76.283 86.8997 71.3578 86.8997 65.7269 85.3981C64.9601 85.1936 64.5042 84.4062 64.7087 83.6395Z" fill="#020106" fill-opacity="0.56"/>
<g style="mix-blend-mode:hard-light" filter="url(#filter0_f_2002_78)">
<ellipse cx="112.796" cy="127.835" rx="43.1068" ry="25.5049" fill="#5A6AFA"/>
</g>
<g style="mix-blend-mode:hard-light" filter="url(#filter1_f_2002_78)">
<ellipse cx="38.0777" cy="128.194" rx="38.7961" ry="22.9903" fill="#5AC1FA"/>
</g>
<path fill-rule="evenodd" clip-rule="evenodd" d="M56.0002 38.3882C56.0001 38.397 56 38.4058 56 38.4146V40.2195C56 41.2163 56.8954 42.0244 58 42.0244H90C91.1046 42.0244 92 41.2163 92 40.2195V38.4146C92 38.4058 91.9999 38.397 91.9998 38.3882H100.797C110.202 38.3882 122.381 45.1081 118.671 53.7561C118.448 54.276 118.226 54.7977 118.004 55.3193C114.128 64.4283 110.262 73.5121 101.046 72.6228C100.639 72.5836 100.256 72.5384 99.9011 72.4865C78.3921 69.3459 72.5668 68.8972 51.0578 72.4865C50.0263 72.6587 48.8019 72.7752 47.4739 72.8496C38.7508 73.3383 34.9242 65.3721 30.817 56.8217C30.328 55.8037 29.835 54.7774 29.3293 53.7561C25.1536 45.3231 38.5169 38.3882 47.9211 38.3882H56.0002Z" fill="url(#paint2_linear_2002_78)"/>
<g style="mix-blend-mode:overlay">
<mask id="path-8-inside-1_2002_78" fill="white">
<path fill-rule="evenodd" clip-rule="evenodd" d="M56.0002 38.3882C56.0001 38.397 56 38.4058 56 38.4146V40.2195C56 41.2163 56.8954 42.0244 58 42.0244H90C91.1046 42.0244 92 41.2163 92 40.2195V38.4146C92 38.4058 91.9999 38.397 91.9998 38.3882H100.797C110.202 38.3882 122.381 45.1081 118.671 53.7561C118.448 54.276 118.226 54.7977 118.004 55.3193C114.128 64.4283 110.262 73.5121 101.046 72.6228C100.639 72.5836 100.256 72.5384 99.9011 72.4865C78.3921 69.3459 72.5668 68.8972 51.0578 72.4865C50.0263 72.6587 48.8019 72.7752 47.4739 72.8496C38.7508 73.3383 34.9242 65.3721 30.817 56.8217C30.328 55.8037 29.835 54.7774 29.3293 53.7561C25.1536 45.3231 38.5169 38.3882 47.9211 38.3882H56.0002Z"/>
</mask>
<path d="M56.0002 38.3882L58 38.4198L58.0321 36.3882H56.0002V38.3882ZM91.9998 38.3882V36.3882H89.9675L90.0001 38.4203L91.9998 38.3882ZM118.671 53.7561L120.509 54.5446V54.5446L118.671 53.7561ZM118.004 55.3193L119.844 56.1024L119.844 56.1024L118.004 55.3193ZM101.046 72.6228L101.238 70.6321H101.238L101.046 72.6228ZM99.9011 72.4865L99.6121 74.4656L99.9011 72.4865ZM51.0578 72.4865L50.7286 70.5138H50.7286L51.0578 72.4865ZM47.4739 72.8496L47.5858 74.8465H47.5858L47.4739 72.8496ZM30.817 56.8217L32.6198 55.9558H32.6198L30.817 56.8217ZM29.3293 53.7561L31.1216 52.8686H31.1216L29.3293 53.7561ZM58 38.4146C58 38.4165 58 38.4182 58 38.4198L54.0005 38.3565C54.0002 38.3758 54 38.3951 54 38.4146H58ZM58 40.2195V38.4146H54V40.2195H58ZM58 40.0244C57.9357 40.0244 57.915 40.0013 57.9257 40.011C57.932 40.0166 57.9504 40.0354 57.9681 40.0733C57.9869 40.1134 58 40.1649 58 40.2195H54C54 42.5091 55.989 44.0244 58 44.0244V40.0244ZM90 40.0244H58V44.0244H90V40.0244ZM90 40.2195C90 40.1649 90.0131 40.1134 90.0319 40.0733C90.0496 40.0354 90.068 40.0166 90.0743 40.011C90.085 40.0013 90.0643 40.0244 90 40.0244V44.0244C92.0111 44.0244 94 42.5091 94 40.2195H90ZM90 38.4146V40.2195H94V38.4146H90ZM90.0001 38.4203C90 38.418 90 38.4162 90 38.4146H94C94 38.3954 93.9999 38.3759 93.9995 38.3561L90.0001 38.4203ZM91.9998 40.3882H100.797V36.3882H91.9998V40.3882ZM100.797 40.3882C105.099 40.3882 110.074 41.9469 113.467 44.4407C115.153 45.6795 116.333 47.0636 116.919 48.4738C117.481 49.8271 117.545 51.3074 116.833 52.9676L120.509 54.5446C121.651 51.8808 121.584 49.2781 120.613 46.9391C119.664 44.6571 117.907 42.7397 115.836 41.2176C111.716 38.1894 105.9 36.3882 100.797 36.3882V40.3882ZM116.833 52.9676C116.608 53.4907 116.385 54.0151 116.163 54.5362L119.844 56.1024C120.066 55.5803 120.287 55.0613 120.509 54.5446L116.833 52.9676ZM116.163 54.5362C114.195 59.1632 112.361 63.4357 109.957 66.4815C107.647 69.4094 104.985 70.9936 101.238 70.6321L100.854 74.6136C106.323 75.1413 110.202 72.6283 113.097 68.9594C115.9 65.4083 117.937 60.5844 119.844 56.1024L116.163 54.5362ZM101.238 70.6321C100.857 70.5953 100.507 70.5538 100.19 70.5075L99.6121 74.4656C100.005 74.523 100.422 74.5719 100.854 74.6136L101.238 70.6321ZM100.19 70.5075C89.4513 68.9395 82.4868 68.0203 75.4959 67.9629C68.4857 67.9054 61.5153 68.7138 50.7286 70.5138L51.387 74.4593C62.1093 72.67 68.8061 71.9081 75.4631 71.9627C82.1393 72.0175 88.8419 72.8929 99.6121 74.4656L100.19 70.5075ZM50.7286 70.5138C49.7956 70.6695 48.6503 70.7806 47.362 70.8528L47.5858 74.8465C48.9535 74.7699 50.257 74.6479 51.387 74.4593L50.7286 70.5138ZM47.362 70.8528C43.7735 71.0538 41.1988 69.5779 38.9356 66.9268C36.5786 64.1658 34.7065 60.2997 32.6198 55.9558L29.0142 57.6877C31.0348 61.8941 33.1296 66.2863 35.8934 69.5239C38.7511 72.8713 42.4513 75.1341 47.5858 74.8465L47.362 70.8528ZM32.6198 55.9558C32.1316 54.9395 31.6335 53.9024 31.1216 52.8686L27.537 54.6436C28.0365 55.6524 28.5244 56.6679 29.0142 57.6877L32.6198 55.9558ZM31.1216 52.8686C30.3485 51.3073 30.4001 49.9149 30.9791 48.6066C31.5935 47.2184 32.8583 45.8194 34.6774 44.5498C38.3299 42.0006 43.6209 40.3882 47.9211 40.3882V36.3882C42.8171 36.3882 36.7243 38.2433 32.3881 41.2697C30.2128 42.788 28.332 44.704 27.3213 46.9878C26.2752 49.3515 26.2222 51.9883 27.537 54.6436L31.1216 52.8686ZM47.9211 40.3882H56.0002V36.3882H47.9211V40.3882Z" fill="white" mask="url(#path-8-inside-1_2002_78)"/>
</g>
<g style="mix-blend-mode:overlay">
<mask id="path-10-inside-2_2002_78" fill="white">
<path fill-rule="evenodd" clip-rule="evenodd" d="M47.1766 29.9091C47.1764 29.9223 47.1763 29.9355 47.1763 29.9487V32.6412C47.1763 34.1282 48.512 35.3337 50.1598 35.3337H97.8966C99.5444 35.3337 100.88 34.1282 100.88 32.6412V29.9487C100.88 29.9355 100.88 29.9223 100.88 29.9091H114.001C128.03 29.9091 146.198 39.9337 140.664 52.8346C140.331 53.6101 140 54.3884 139.669 55.1665C133.887 68.7551 128.121 82.3061 114.372 80.9795C113.766 80.921 113.194 80.8536 112.664 80.7762C80.5775 76.0911 71.8874 75.4218 39.8009 80.7762C38.262 81.033 36.4355 81.2068 34.4545 81.3178C21.4416 82.0469 15.7332 70.1631 9.60613 57.4078C8.87663 55.8892 8.14119 54.3581 7.38678 52.8346C1.15764 40.2545 21.0926 29.9091 35.1216 29.9091H47.1766Z"/>
</mask>
<path d="M47.1766 29.9091L47.9765 29.9218L47.9894 29.1091H47.1766V29.9091ZM100.88 29.9091V29.1091H100.067L100.08 29.922L100.88 29.9091ZM140.664 52.8346L139.929 52.5192L139.929 52.5192L140.664 52.8346ZM139.669 55.1665L140.405 55.4797L139.669 55.1665ZM114.372 80.9795L114.448 80.1832H114.448L114.372 80.9795ZM112.664 80.7762L112.548 81.5678L112.664 80.7762ZM39.8009 80.7762L39.9326 81.5653H39.9326L39.8009 80.7762ZM34.4545 81.3178L34.4097 80.5191L34.4545 81.3178ZM9.60613 57.4078L10.3273 57.0614H10.3272L9.60613 57.4078ZM7.38678 52.8346L6.66985 53.1895L7.38678 52.8346ZM47.9763 29.9487C47.9763 29.9398 47.9763 29.9308 47.9765 29.9218L46.3767 29.8964C46.3764 29.9137 46.3763 29.9312 46.3763 29.9487H47.9763ZM47.9763 32.6412V29.9487H46.3763V32.6412H47.9763ZM50.1598 34.5337C48.8746 34.5337 47.9763 33.6111 47.9763 32.6412H46.3763C46.3763 34.6453 48.1495 36.1337 50.1598 36.1337V34.5337ZM97.8966 34.5337H50.1598V36.1337H97.8966V34.5337ZM100.08 32.6412C100.08 33.6111 99.1818 34.5337 97.8966 34.5337V36.1337C99.907 36.1337 101.68 34.6453 101.68 32.6412H100.08ZM100.08 29.9487V32.6412H101.68V29.9487H100.08ZM100.08 29.922C100.08 29.9306 100.08 29.9395 100.08 29.9487H101.68C101.68 29.9315 101.68 29.9139 101.68 29.8961L100.08 29.922ZM100.88 30.7091H114.001V29.1091H100.88V30.7091ZM114.001 30.7091C120.855 30.7091 128.737 33.1667 134.195 37.1786C136.92 39.1813 138.995 41.5372 140.067 44.1168C141.129 46.6737 141.226 49.4947 139.929 52.5192L141.399 53.1499C142.869 49.724 142.771 46.4541 141.544 43.503C140.328 40.5746 138.022 38.0054 135.143 35.8894C129.393 31.6637 121.176 29.1091 114.001 29.1091V30.7091ZM139.929 52.5192C139.596 53.296 139.264 54.0753 138.933 54.8532L140.405 55.4797C140.737 54.7014 141.067 53.9243 141.399 53.1499L139.929 52.5192ZM138.933 54.8532C136.03 61.6766 133.183 68.3512 129.38 73.1706C125.614 77.9429 120.979 80.8133 114.448 80.1832L114.295 81.7758C121.514 82.4723 126.636 79.2305 130.636 74.1618C134.599 69.1402 137.527 62.245 140.405 55.4797L138.933 54.8532ZM114.448 80.1832C113.853 80.1257 113.294 80.0597 112.78 79.9846L112.548 81.5678C113.094 81.6474 113.678 81.7163 114.295 81.7758L114.448 80.1832ZM112.78 79.9846C96.7427 77.643 86.4962 76.2956 76.2391 76.2114C65.9742 76.1272 55.7254 77.3078 39.6692 79.9871L39.9326 81.5653C55.963 78.8902 66.1024 77.7283 76.2259 77.8113C86.3571 77.8945 96.4989 79.2243 112.548 81.5678L112.78 79.9846ZM39.6692 79.9871C38.1698 80.2373 36.3749 80.409 34.4097 80.5191L34.4992 82.1166C36.4962 82.0047 38.3543 81.8287 39.9326 81.5653L39.6692 79.9871ZM34.4097 80.5191C28.2125 80.8663 23.7573 78.235 20.0566 73.9C16.3183 69.5211 13.404 63.4666 10.3273 57.0614L8.88501 57.7542C11.9353 64.1043 14.9387 70.3693 18.8397 74.9388C22.7782 79.5523 27.6836 82.4984 34.4992 82.1166L34.4097 80.5191ZM10.3272 57.0614C9.59808 55.5435 8.86059 54.0081 8.1037 52.4796L6.66985 53.1895C7.42179 54.7081 8.15517 56.2348 8.88501 57.7542L10.3272 57.0614ZM8.1037 52.4796C6.65475 49.5533 6.73244 46.7969 7.85115 44.269C8.98401 41.7092 11.2071 39.34 14.1152 37.3103C19.9372 33.2469 28.2678 30.7091 35.1216 30.7091V29.1091C27.9463 29.1091 19.295 31.744 13.1995 35.9983C10.1489 38.1274 7.67943 40.7034 6.38803 43.6215C5.08249 46.5715 5.00423 49.8257 6.66985 53.1895L8.1037 52.4796ZM35.1216 30.7091H47.1766V29.1091H35.1216V30.7091Z" fill="white" mask="url(#path-10-inside-2_2002_78)"/>
</g>
<g style="mix-blend-mode:overlay">
<path fill-rule="evenodd" clip-rule="evenodd" d="M47.266 25.1516H26.203C6.06278 25.1516 -22.5559 40.0035 -13.6133 58.0635C-12.5303 60.2506 -11.4746 62.4485 -10.4273 64.6286C-1.63132 82.9401 6.56391 100.001 25.2452 98.9542C28.0892 98.7949 30.7114 98.5453 32.9206 98.1767C78.9842 90.4898 91.4597 91.4507 137.523 98.1767C138.284 98.2877 139.105 98.3845 139.975 98.4685C159.713 100.373 167.991 80.9191 176.292 61.4112C176.767 60.2941 177.243 59.1769 177.72 58.0635C185.665 39.5429 159.583 25.1516 139.443 25.1516H116.841C116.841 25.1706 116.842 25.1896 116.842 25.2087V29.074C116.842 31.2088 115.111 32.9393 112.976 32.9393H51.1309C48.9962 32.9393 47.2656 31.2088 47.2656 29.074V25.2087C47.2656 25.1896 47.2657 25.1706 47.266 25.1516ZM46.5656 25.8516H26.203C16.2735 25.8516 4.22414 29.5221 -4.21058 35.409C-8.42542 38.3507 -11.686 41.8099 -13.3568 45.5852C-15.0152 49.3326 -15.1269 53.4293 -12.986 57.7528C-11.9011 59.9438 -10.8439 62.1448 -9.79721 64.3237L-9.79621 64.3258C-5.38664 73.5056 -1.17782 82.2565 4.23441 88.5963C9.61382 94.8977 16.1359 98.7635 25.206 98.2553C28.0362 98.0968 30.6306 97.8491 32.8054 97.4862C55.8484 93.6409 70.5311 91.9512 85.2277 92.0719C99.9176 92.1924 114.598 94.1218 137.624 97.484C138.372 97.5931 139.181 97.6886 140.042 97.7717C149.61 98.6949 156.401 94.4701 161.873 87.5359C167.378 80.5604 171.487 70.9165 175.648 61.1371L175.652 61.1274C176.126 60.0137 176.6 58.8988 177.077 57.7875C178.988 53.333 178.848 49.1573 177.277 45.3762C175.698 41.5751 172.654 38.1332 168.699 35.2263C160.781 29.407 149.373 25.8516 139.443 25.8516H117.542V29.074C117.542 31.5954 115.498 33.6393 112.976 33.6393H51.1309C48.6096 33.6393 46.5656 31.5954 46.5656 29.074V25.8516Z" fill="white" fill-opacity="0.24"/>
</g>
<g style="mix-blend-mode:overlay">
<path fill-rule="evenodd" clip-rule="evenodd" d="M37.8747 15.1516H11.1073C-14.4874 15.1516 -50.8567 34.0257 -39.4922 56.9768C-38.1159 59.7564 -36.7741 62.5497 -35.4432 65.3203C-24.265 88.591 -13.8505 110.272 9.89013 108.942C13.5044 108.739 16.8367 108.422 19.6442 107.954C78.183 98.185 94.0372 99.4061 152.576 107.954C153.543 108.095 154.586 108.218 155.691 108.325C180.775 110.745 191.295 86.0224 201.844 61.2313C202.448 59.8116 203.052 58.3918 203.659 56.9768C213.756 33.4405 180.61 15.1516 155.015 15.1516H126.292C126.293 15.1757 126.293 15.1999 126.293 15.2242V20.1363C126.293 22.8492 124.094 25.0485 121.381 25.0485H42.7864C40.0734 25.0485 37.8742 22.8492 37.8742 20.1363V15.2242C37.8742 15.1999 37.8744 15.1757 37.8747 15.1516ZM37.3742 15.6516H11.1073C-1.58957 15.6516 -16.9803 20.3398 -27.766 27.8675C-33.157 31.6302 -37.3606 36.0765 -39.5225 40.9615C-41.6755 45.8265 -41.8176 51.1539 -39.0442 56.755C-37.6665 59.5373 -36.3236 62.3328 -34.9931 65.1026L-34.9925 65.1038C-29.3952 76.7564 -24.0248 87.9285 -17.1072 96.0317C-10.213 104.107 -1.81493 109.097 9.86216 108.443C13.4665 108.241 16.779 107.925 19.5619 107.461C48.8393 102.575 67.4718 100.432 86.1142 100.585C104.752 100.738 123.383 103.186 152.648 107.459C153.605 107.599 154.64 107.721 155.739 107.827C168.066 109.016 176.815 103.557 183.826 94.6724C190.86 85.7587 196.102 73.4492 201.384 61.0355C201.988 59.616 202.593 58.1955 203.2 56.7797C205.67 51.0211 205.492 45.6052 203.456 40.7041C201.414 35.7887 197.489 31.3627 192.425 27.6409C182.292 20.1935 167.712 15.6516 155.015 15.6516H126.793V20.1363C126.793 23.1254 124.37 25.5485 121.381 25.5485H42.7864C39.7973 25.5485 37.3742 23.1254 37.3742 20.1363V15.6516Z" fill="white" fill-opacity="0.1"/>
</g>
<defs>
<filter id="filter0_f_2002_78" x="13.6893" y="46.3301" width="198.214" height="163.01" filterUnits="userSpaceOnUse" color-interpolation-filters="sRGB">
<feFlood flood-opacity="0" result="BackgroundImageFix"/>
<feBlend mode="normal" in="SourceGraphic" in2="BackgroundImageFix" result="shape"/>
<feGaussianBlur stdDeviation="28" result="effect1_foregroundBlur_2002_78"/>
</filter>
<filter id="filter1_f_2002_78" x="-56.7184" y="49.2039" width="189.592" height="157.981" filterUnits="userSpaceOnUse" color-interpolation-filters="sRGB">
<feFlood flood-opacity="0" result="BackgroundImageFix"/>
<feBlend mode="normal" in="SourceGraphic" in2="BackgroundImageFix" result="shape"/>
<feGaussianBlur stdDeviation="28" result="effect1_foregroundBlur_2002_78"/>
</filter>
<linearGradient id="paint0_linear_2002_78" x1="74" y1="0.310822" x2="74" y2="158.369" gradientUnits="userSpaceOnUse">
<stop stop-color="#578DF6" stop-opacity="0.12"/>
<stop offset="0.29" stop-color="#578DF6" stop-opacity="0.56"/>
<stop offset="0.702688" stop-color="#578DF6"/>
<stop offset="1" stop-color="#578DF6" stop-opacity="0.32"/>
</linearGradient>
<linearGradient id="paint1_linear_2002_78" x1="74" y1="8.93204" x2="74" y2="113.041" gradientUnits="userSpaceOnUse">
<stop stop-color="white"/>
<stop offset="0.515" stop-color="white" stop-opacity="0.24"/>
<stop offset="1" stop-color="white"/>
</linearGradient>
<linearGradient id="paint2_linear_2002_78" x1="46.699" y1="38.3882" x2="114.592" y2="68.9222" gradientUnits="userSpaceOnUse">
<stop stop-color="#57E3F6"/>
<stop offset="0.33" stop-color="#578DF6"/>
<stop offset="0.64" stop-color="#578DF6"/>
<stop offset="1" stop-color="#57F6E3"/>
</linearGradient>
</defs>
</svg>
