<svg width="26" height="26" viewBox="0 0 26 26" fill="none" xmlns="http://www.w3.org/2000/svg">
<rect width="26" height="26" rx="13" fill="#72BD39"/>
<path d="M9.66699 15.6667C10.3337 16.3333 11.667 17 13.0003 17M13.0003 17C14.667 17 16.3337 16.6667 16.3337 15C16.3337 13.3333 14.7 13 13.0003 13M13.0003 17V13M13.0003 17V19M13.0003 13C11.3337 13 9.66699 12.6667 9.66699 11C9.66699 9.33333 11.3337 9 13.0003 9M13.0003 13V9M13.0003 9C14.3337 9 15.667 9.66667 16.3337 10.3333M13.0003 9V7" stroke="white" stroke-width="1.5"/>
</svg>
