<svg xmlns="http://www.w3.org/2000/svg" width="100" height="100" preserveAspectRatio="none" viewBox="0 0 291 108" fill="none">
  <mask id="path-1-inside-1_492_763" fill="white">
    <path fill-rule="evenodd" clip-rule="evenodd" d="M0 8C0 3.58172 3.58172 0 8 0H283C287.418 0 291 3.58172 291 8V42C284.373 42 279 47.3726 279 54C279 60.6274 284.373 66 291 66V100C291 104.418 287.418 108 283 108H7.99999C3.58172 108 0 104.418 0 100V66C6.62742 66 12 60.6274 12 54C12 47.3726 6.62742 42 0 42V8Z"/>
  </mask>
  <path fill-rule="evenodd" clip-rule="evenodd" d="M0 8C0 3.58172 3.58172 0 8 0H283C287.418 0 291 3.58172 291 8V42C284.373 42 279 47.3726 279 54C279 60.6274 284.373 66 291 66V100C291 104.418 287.418 108 283 108H7.99999C3.58172 108 0 104.418 0 100V66C6.62742 66 12 60.6274 12 54C12 47.3726 6.62742 42 0 42V8Z" fill="#6A56F6" fill-opacity="0.24"/>
  <path d="M291 42V43H292V42H291ZM291 66H292V65H291V66ZM0 66V65H-1V66H0ZM0 42H-1V43H0V42ZM8 -1C3.02944 -1 -1 3.02944 -1 8H1C1 4.13401 4.13401 1 8 1V-1ZM283 -1H8V1H283V-1ZM292 8C292 3.02944 287.971 -1 283 -1V1C286.866 1 290 4.13401 290 8H292ZM292 42V8H290V42H292ZM280 54C280 47.9249 284.925 43 291 43V41C283.82 41 278 46.8203 278 54H280ZM291 65C284.925 65 280 60.0751 280 54H278C278 61.1797 283.82 67 291 67V65ZM292 100V66H290V100H292ZM283 109C287.971 109 292 104.971 292 100H290C290 103.866 286.866 107 283 107V109ZM7.99999 109H283V107H7.99999V109ZM-1 100C-1 104.971 3.02943 109 7.99999 109V107C4.134 107 1 103.866 1 100H-1ZM-1 66V100H1V66H-1ZM11 54C11 60.0751 6.07513 65 0 65V67C7.1797 67 13 61.1797 13 54H11ZM0 43C6.07513 43 11 47.9249 11 54H13C13 46.8203 7.1797 41 0 41V43ZM-1 8V42H1V8H-1Z" fill="url(#paint0_linear_492_763)" mask="url(#path-1-inside-1_492_763)"/>
  <defs>
    <linearGradient id="paint0_linear_492_763" x1="277.638" y1="-9.37227" x2="288.882" y2="116.691" gradientUnits="userSpaceOnUse">
      <stop stop-color="white" stop-opacity="0.2"/>
      <stop offset="1" stop-color="white" stop-opacity="0.04"/>
    </linearGradient>
  </defs>
</svg>