<svg width="22" height="22" viewBox="0 0 22 22" fill="none" xmlns="http://www.w3.org/2000/svg">
<circle opacity="0.4" cx="11" cy="11" r="10" fill="#B9C0D4"/>
<path d="M11.5833 5.35853C11.1143 5.27309 10.6323 5.29175 10.1714 5.41321C9.71041 5.53467 9.28179 5.75596 8.91583 6.0614C8.54987 6.36685 8.25551 6.749 8.05358 7.1808C7.85166 7.6126 7.7471 8.08351 7.74731 8.56019C7.74731 8.77587 7.83299 8.98272 7.9855 9.13523C8.13801 9.28774 8.34486 9.37341 8.56054 9.37341C8.77622 9.37341 8.98306 9.28774 9.13557 9.13523C9.28808 8.98272 9.37376 8.77587 9.37376 8.56019C9.37356 8.32092 9.42615 8.08455 9.52778 7.86794C9.62941 7.65133 9.77759 7.45981 9.96174 7.30704C10.1459 7.15427 10.3615 7.04401 10.5931 6.98412C10.8248 6.92423 11.0668 6.9162 11.3019 6.96058C11.6232 7.02294 11.9185 7.17965 12.1503 7.41069C12.3821 7.64173 12.5397 7.93661 12.6031 8.25767C12.6671 8.59467 12.6229 8.94328 12.4768 9.25366C12.3308 9.56403 12.0903 9.82028 11.7898 9.98577C11.2923 10.274 10.8811 10.6904 10.5992 11.1916C10.3173 11.6928 10.175 12.2604 10.187 12.8353V13.4395C10.187 13.6552 10.2727 13.8621 10.4252 14.0146C10.5777 14.1671 10.7845 14.2528 11.0002 14.2528C11.2159 14.2528 11.4227 14.1671 11.5752 14.0146C11.7278 13.8621 11.8134 13.6552 11.8134 13.4395V12.8353C11.8032 12.5523 11.8678 12.2716 12.0005 12.0215C12.1333 11.7714 12.3296 11.5607 12.5697 11.4105C13.1589 11.0869 13.6334 10.5887 13.9279 9.98447C14.2224 9.38021 14.3224 8.69954 14.2143 8.03609C14.1062 7.37264 13.7951 6.75898 13.324 6.2795C12.8529 5.80003 12.2447 5.47829 11.5833 5.35853Z" fill="#B9C0D4"/>
<path d="M11.8135 15.8793C11.8135 15.4301 11.4494 15.066 11.0002 15.066C10.5511 15.066 10.187 15.4301 10.187 15.8793C10.187 16.3284 10.5511 16.6925 11.0002 16.6925C11.4494 16.6925 11.8135 16.3284 11.8135 15.8793Z" fill="#B9C0D4"/>
</svg>
