<svg width="22" height="22" viewBox="0 0 22 22" fill="none" xmlns="http://www.w3.org/2000/svg">
<path opacity="0.4" d="M16.5 18.7917H15.5833V18.5625C15.5833 17.5542 14.7583 16.7292 13.75 16.7292H11.6875V14.63C11.4583 14.6575 11.2292 14.6667 11 14.6667C10.7708 14.6667 10.5417 14.6575 10.3125 14.63V16.7292H8.25C7.24167 16.7292 6.41667 17.5542 6.41667 18.5625V18.7917H5.5C5.12417 18.7917 4.8125 19.1033 4.8125 19.4792C4.8125 19.855 5.12417 20.1667 5.5 20.1667H16.5C16.8758 20.1667 17.1875 19.855 17.1875 19.4792C17.1875 19.1033 16.8758 18.7917 16.5 18.7917Z" fill="#B9C0D4"/>
<path opacity="0.4" d="M5.05997 10.67C4.45497 10.4408 3.9233 10.065 3.50163 9.64331C2.64913 8.69915 2.08997 7.57165 2.08997 6.25165C2.08997 4.93165 3.1258 3.89581 4.4458 3.89581H4.95913C4.7208 4.38165 4.5833 4.92248 4.5833 5.49998V8.24998C4.5833 9.11165 4.7483 9.92748 5.05997 10.67Z" fill="#B9C0D4"/>
<path opacity="0.4" d="M19.9099 6.25165C19.9099 7.57165 19.3508 8.69915 18.4983 9.64331C18.0766 10.065 17.5449 10.4408 16.9399 10.67C17.2516 9.92748 17.4166 9.11165 17.4166 8.24998V5.49998C17.4166 4.92248 17.2791 4.38165 17.0408 3.89581H17.5541C18.8741 3.89581 19.9099 4.93165 19.9099 6.25165Z" fill="#B9C0D4"/>
<path d="M13.75 1.83331H8.25004C6.22421 1.83331 4.58337 3.47415 4.58337 5.49998V8.24998C4.58337 11.7975 7.45254 14.6666 11 14.6666C14.5475 14.6666 17.4167 11.7975 17.4167 8.24998V5.49998C17.4167 3.47415 15.7759 1.83331 13.75 1.83331ZM13.6034 7.74581L13.035 8.44248C12.9434 8.54331 12.8792 8.74498 12.8884 8.88248L12.9434 9.78081C12.98 10.3308 12.5859 10.615 12.0725 10.4133L11.2384 10.0833C11.11 10.0375 10.89 10.0375 10.7617 10.0833L9.92754 10.4133C9.41421 10.615 9.02004 10.3308 9.05671 9.78081L9.11171 8.88248C9.12087 8.74498 9.05671 8.54331 8.96504 8.44248L8.39671 7.74581C8.03921 7.32415 8.19504 6.85665 8.72671 6.71915L9.59754 6.49915C9.73504 6.46248 9.90004 6.33415 9.97337 6.21498L10.4592 5.46331C10.7617 4.99581 11.2384 4.99581 11.5409 5.46331L12.0267 6.21498C12.1 6.33415 12.265 6.46248 12.4025 6.49915L13.2734 6.71915C13.805 6.85665 13.9609 7.32415 13.6034 7.74581Z" fill="#B9C0D4"/>
<path opacity="0.4" d="M13.6034 7.74586L13.0351 8.44252C12.9434 8.54336 12.8792 8.74502 12.8884 8.88252L12.9434 9.78086C12.9801 10.3309 12.5859 10.615 12.0726 10.4134L11.2384 10.0834C11.1101 10.0375 10.8901 10.0375 10.7617 10.0834L9.92755 10.4134C9.41422 10.615 9.02005 10.3309 9.05672 9.78086L9.11172 8.88252C9.12089 8.74502 9.05672 8.54336 8.96505 8.44252L8.39672 7.74586C8.03922 7.32419 8.19505 6.85669 8.72672 6.71919L9.59755 6.49919C9.73505 6.46252 9.90005 6.33419 9.97339 6.21502L10.4592 5.46336C10.7617 4.99586 11.2384 4.99586 11.5409 5.46336L12.0267 6.21502C12.1001 6.33419 12.2651 6.46252 12.4026 6.49919L13.2734 6.71919C13.8051 6.85669 13.9609 7.32419 13.6034 7.74586Z" fill="#B9C0D4"/>
</svg>
