<svg xmlns="http://www.w3.org/2000/svg" width="30" height="30" viewBox="0 0 30 30" fill="none">
  <path d="M15.8354 17.313C16.1365 17.6286 15.9128 18.1511 15.4766 18.1511H9.3884C9.25519 18.1511 9.12758 18.0975 9.03432 18.0024L2.8952 11.7405C2.80432 11.6478 2.75342 11.5232 2.75342 11.3934V9.48955C2.75342 9.35694 2.80393 9.23242 2.89833 9.13928C3.67723 8.37073 7.40148 4.69785 9.2946 2.86497C9.38697 2.77554 9.50905 2.72705 9.63762 2.72705H15.698C16.1393 2.72705 16.3607 3.26032 16.0492 3.57294L10.6101 9.03085C10.5175 9.12379 10.4655 9.24966 10.4655 9.38088V11.4862C10.4655 11.6137 10.5146 11.7363 10.6026 11.8285L15.8354 17.313Z" fill="#6A56F6"/>
  <path d="M14.8641 12.5625C14.563 12.2469 14.7867 11.7243 15.2229 11.7243L21.3111 11.7243C21.4443 11.7243 21.5719 11.7779 21.6652 11.8731L27.8043 18.135C27.8952 18.2277 27.9461 18.3523 27.9461 18.4821L27.9461 20.3859C27.9461 20.5185 27.8956 20.6431 27.8012 20.7362C27.0223 21.5048 23.298 25.1776 21.4049 27.0105C21.3126 27.0999 21.1905 27.1484 21.0619 27.1484L15.0016 27.1484C14.5602 27.1484 14.3388 26.6152 14.6503 26.3025L20.0894 20.8446C20.182 20.7517 20.2341 20.6258 20.2341 20.4946L20.2341 18.3892C20.2341 18.2618 20.185 18.1392 20.097 18.0469L14.8641 12.5625Z" fill="#6A56F6"/>
  <path d="M27.8723 8.47422C28.1777 8.78863 27.9549 9.31556 27.5166 9.31556H14.6695C14.2296 9.31556 14.006 8.78708 14.3145 8.47362C15.6394 7.12772 18.2464 4.48001 19.8327 2.87321C19.9258 2.77886 20.0516 2.72705 20.1842 2.72705H22.0809C22.215 2.72705 22.3433 2.7813 22.4367 2.87744L27.8723 8.47422Z" fill="#6A56F6"/>
  <path d="M2.24857 21.4013C1.94321 21.0869 2.166 20.5599 2.60429 20.5599L15.4514 20.5599C15.8913 20.5599 16.115 21.0884 15.8064 21.4019C14.4815 22.7478 11.8745 25.3955 10.2882 27.0023C10.1951 27.0966 10.0693 27.1484 9.93671 27.1484L8.03996 27.1484C7.90594 27.1484 7.77762 27.0942 7.68425 26.998L2.24857 21.4013Z" fill="#6A56F6"/>
</svg>