<svg xmlns="http://www.w3.org/2000/svg" width="16" height="16" viewBox="0 0 16 16" fill="none">
  <path opacity="0.4" d="M12.756 7.71265C12.756 7.46198 12.6153 7.23198 12.3913 7.11798C11.818 6.82598 11.204 6.55731 10.516 6.29598C9.37866 5.85998 8.54999 5.01865 8.11933 3.86598C7.86133 3.16665 7.59599 2.54398 7.30866 1.96265C7.19599 1.73598 6.96399 1.59198 6.71133 1.59198C6.45866 1.59198 6.22533 1.73598 6.11399 1.96331C5.82733 2.54265 5.56266 3.16531 5.30466 3.86331C4.87399 5.01798 4.04466 5.85931 2.90933 6.29465C2.21733 6.55798 1.60266 6.82665 1.03133 7.11798C0.807995 7.23131 0.667328 7.46131 0.667328 7.71198C0.667328 7.96265 0.807994 8.19265 1.03199 8.30665C1.60666 8.59865 2.22066 8.86798 2.90733 9.12798C4.04466 9.56398 4.87333 10.4053 5.30399 11.5586C5.56333 12.2606 5.82799 12.882 6.11399 13.4613C6.22666 13.6886 6.45799 13.8326 6.71133 13.8326C6.96466 13.8326 7.19666 13.6886 7.30866 13.4613C7.59599 12.882 7.86066 12.2593 8.11799 11.5606C8.54933 10.406 9.37933 9.56465 10.5133 9.12931C11.2027 8.86798 11.8167 8.59931 12.3913 8.30731C12.6153 8.19331 12.756 7.96398 12.756 7.71265Z" fill="#B9C0D4"/>
  <path opacity="0.4" d="M11.3973 4.36132C11.5673 4.44798 11.7347 4.51932 11.8993 4.58198C12.0373 4.63532 12.134 4.73398 12.186 4.87198C12.2473 5.04065 12.3173 5.20865 12.402 5.38065C12.5133 5.60865 12.7453 5.75398 12.9993 5.75398H13.0007C13.254 5.75398 13.486 5.60998 13.598 5.38265C13.6827 5.21132 13.752 5.04265 13.814 4.87532C13.8673 4.73398 13.964 4.63532 14.0993 4.58332C14.2667 4.51998 14.4333 4.44865 14.6033 4.36198C14.8273 4.24865 14.968 4.01798 14.968 3.76732C14.968 3.51665 14.8267 3.28665 14.6027 3.17332C14.4333 3.08798 14.2667 3.01665 14.1013 2.95332C13.964 2.90065 13.8673 2.80198 13.8147 2.66198C13.752 2.49332 13.6827 2.32465 13.5973 2.15265C13.4853 1.92598 13.2533 1.78198 13 1.78198H12.9987C12.7447 1.78198 12.5133 1.92665 12.4013 2.15465C12.3173 2.32598 12.2473 2.49465 12.1867 2.65998C12.1333 2.80132 12.0367 2.89998 11.9013 2.95198C11.7333 3.01598 11.5667 3.08665 11.3967 3.17332C11.1727 3.28665 11.032 3.51665 11.032 3.76732C11.032 4.01798 11.1727 4.24798 11.3967 4.36132H11.3973Z" fill="#B9C0D4"/>
  <path opacity="0.4" d="M14.9687 11.4566C14.7573 11.3493 14.5487 11.26 14.3433 11.1826C14.1173 11.096 13.9527 10.928 13.868 10.7C13.79 10.4893 13.7027 10.2786 13.5973 10.0653C13.4847 9.83797 13.2527 9.69397 13 9.69397C12.746 9.69397 12.514 9.83864 12.4027 10.0666C12.298 10.28 12.2107 10.49 12.1347 10.6966C12.048 10.928 11.8833 11.096 11.6607 11.1813C11.4527 11.26 11.2433 11.3493 11.0327 11.4573C10.8093 11.5713 10.6687 11.8006 10.6687 12.0513C10.6687 12.302 10.8093 12.5313 11.0327 12.6453C11.2433 12.7526 11.4513 12.8413 11.6587 12.9206C11.8833 13.0066 12.048 13.174 12.1333 13.4026C12.2107 13.6126 12.298 13.8233 12.4033 14.036C12.5153 14.2633 12.7467 14.4073 13.0007 14.408C13.254 14.408 13.4853 14.2646 13.598 14.0373C13.704 13.824 13.7913 13.6133 13.8687 13.4046C13.954 13.174 14.1187 13.0066 14.3433 12.9206C14.5513 12.8413 14.7587 12.7533 14.9693 12.646C15.1933 12.532 15.334 12.302 15.334 12.0513C15.334 11.8006 15.1933 11.5706 14.9693 11.4566H14.9687Z" fill="#B9C0D4"/>
</svg>