<svg xmlns="http://www.w3.org/2000/svg" width="145" height="36" viewBox="0 0 145 36" fill="none">
    <g clip-path="url(#clip0_2834_21239)">
        <path d="M17.1422 29.5273H13.92C13.7911 29.5273 13.6622 29.5273 13.6622 29.6567C13.6622 29.7862 13.4044 29.7862 13.4044 29.7862L11.8578 35.4822C11.8578 35.4822 11.8578 35.6117 11.7289 35.6117H11.6L0.257778 35.7411H0.128889C0.128889 35.7411 0 35.7411 0 35.6117V35.3527C3.73778 24.608 7.34667 13.7338 10.9556 2.98913C11.2133 2.2124 11.4711 1.30622 11.6 0.7884C11.6 0.658945 11.7289 0.400036 11.8578 0.270582C11.9867 0.141127 12.2444 0.141127 12.3733 0.141127H27.7111C27.84 0.141127 28.0978 0.270582 28.2267 0.270582C28.2267 0.400036 28.3556 0.658945 28.3556 0.7884L28.6133 35.6117V35.8706H17.0133V35.7411L17.4 29.9157V29.7862C17.4 29.7862 17.4 29.6567 17.2711 29.6567L17.1422 29.5273ZM18.0444 23.0546C18.1733 23.0546 18.1733 23.0546 18.3022 22.9251C18.3022 22.9251 18.4311 22.7957 18.4311 22.6662L19.2044 9.72076C19.2044 8.94403 19.2044 8.94403 18.9467 9.72076L14.8222 22.7957V23.0546H18.0444ZM56.4533 0.658945C59.16 1.04731 60.9644 2.47131 61.6089 4.67203C61.8667 5.70767 61.8667 7.39058 61.48 9.85021C60.32 17.8764 59.16 24.608 57.8711 30.0451C57.2267 32.6342 55.5511 34.3171 52.8444 35.0938C51.1689 35.6117 49.4933 35.8706 47.6889 35.8706H42.5333C38.5378 35.8706 34.6711 35.8706 30.8044 36H30.5467V35.7411L36.7333 0.529491C36.7333 0.529491 36.7333 0.400036 36.8622 0.400036H36.9911C39.5689 0.270582 43.6933 0.270582 49.2356 0.400036C52.4578 0.270582 54.7778 0.400036 56.4533 0.658945ZM49.7511 6.87276C48.9778 6.35494 48.2044 6.22549 47.4311 6.35494C47.4311 6.35494 47.3022 6.35494 47.3022 6.4844L47.1733 6.61385L43.1778 29.2684V29.5273H43.4356C44.7244 29.6567 45.6267 29.3978 46.1422 28.7506C46.5289 28.3622 46.7867 27.5855 47.0444 26.2909C48.2044 20.336 49.2356 14.1222 50.2667 7.9084C50.2667 7.77894 50.2667 7.52003 50.1378 7.39058C50.1378 7.13167 50.0089 7.00222 49.7511 6.87276ZM75.5289 23.5724C75.6578 23.5724 75.6578 23.5724 75.5289 23.5724C77.8489 15.8051 80.04 8.1673 82.1022 0.400036C82.1022 0.400036 82.1022 0.270582 82.2311 0.270582H82.36C86.2267 0.141127 90.2222 0.141127 94.0889 0.270582H94.2178V0.529491L82.4889 35.6117C82.4889 35.7411 82.36 35.7411 82.36 35.7411C82.36 35.7411 82.2311 35.8706 82.1022 35.8706H64.8311V35.6117L64.7022 0.529491C64.7022 0.400036 64.7022 0.400036 64.8311 0.270582C64.8311 0.270582 64.96 0.141127 65.0889 0.141127C68.8267 0.0116729 72.6933 0.0116729 76.6889 0.141127C76.8178 0.141127 76.8178 0.141127 76.8178 0.270582C76.8178 0.400036 76.9467 0.400036 76.9467 0.400036C76.56 8.29676 76.1733 15.9346 75.5289 23.5724C75.5289 23.4429 75.5289 23.4429 75.5289 23.5724ZM105.56 13.9928H112.133V14.2517C111.876 16.4524 111.489 18.5237 110.973 20.7244C110.973 20.7244 110.973 20.8538 110.844 20.8538H110.716L104.271 20.9833C104.142 20.9833 104.142 20.9833 104.013 21.1128L103.884 21.2422L101.436 35.7411C101.436 35.7411 101.436 35.8706 101.307 35.8706H89.9645V35.6117L96.0222 0.400036C96.0222 0.400036 96.0222 0.270582 96.1511 0.270582H96.28C102.724 0.0116729 109.813 -0.117782 116.129 0.141127H116.258V0.400036L115.098 7.00221C115.098 7.00221 115.098 7.13167 114.969 7.13167H114.84L106.849 7.39058C106.72 7.39058 106.591 7.39058 106.591 7.52003C106.462 7.64949 106.462 7.64949 106.462 7.77894L105.431 13.8633V14.1222C105.431 13.9928 105.431 13.9928 105.56 13.9928ZM132.756 15.0284C132.884 15.6757 133.013 15.6757 133.142 15.0284L135.72 0.529491C135.72 0.529491 135.72 0.400036 135.849 0.400036C135.849 0.400036 135.978 0.400036 135.978 0.270582C138.942 0.141127 141.907 0.141127 144.871 0.270582C144.871 0.270582 145 0.270582 145 0.400036V0.529491C145 1.30622 144.871 2.47131 144.613 4.02476C142.809 14.64 141.004 25.2553 139.071 35.8706C139.071 35.8706 139.071 36 138.942 36H138.813L129.147 35.8706H129.018L128.889 35.7411L126.053 20.9833V20.8538C126.053 20.8538 126.053 20.7244 125.924 20.7244C125.796 20.7244 125.796 20.7244 125.796 20.9833C124.893 25.7731 124.12 30.6924 123.218 35.6117C123.218 35.7411 123.089 35.8706 123.089 35.8706C122.96 36 122.831 36 122.831 36H113.68V35.7411C115.484 25.2553 117.418 14.64 119.222 4.15422C119.48 2.08294 119.48 2.08294 119.609 0.658945C119.609 0.529491 119.609 0.529491 119.738 0.529491L119.867 0.400036C122.96 0.270582 126.053 0.270582 129.147 0.400036C129.276 0.400036 129.276 0.400036 129.404 0.529491L129.533 0.658945L132.756 15.0284Z" fill="#B3B8DB"/>
    </g>
    <defs>
        <clipPath id="clip0_2834_21239">
            <rect width="145" height="36" fill="white"/>
        </clipPath>
    </defs>
</svg>