<svg xmlns="http://www.w3.org/2000/svg" width="61" height="16" viewBox="0 0 61 16" fill="none">
    <g clip-path="url(#clip0_2847_492)">
        <path d="M7.21156 13.1232H5.856C5.80178 13.1232 5.74756 13.1232 5.74756 13.1808C5.74756 13.2383 5.63911 13.2383 5.63911 13.2383L4.98844 15.7699C4.98844 15.7699 4.98844 15.8274 4.93422 15.8274H4.88L0.108444 15.8849H0.0542222C0.0542222 15.8849 0 15.8849 0 15.8274V15.7123C1.57244 10.9369 3.09067 6.10393 4.60889 1.3285C4.71733 0.983288 4.82578 0.580541 4.88 0.3504C4.88 0.292865 4.93422 0.177794 4.98844 0.120259C5.04267 0.0627233 5.15111 0.0627233 5.20533 0.0627233H11.6578C11.712 0.0627233 11.8204 0.120259 11.8747 0.120259C11.8747 0.177794 11.9289 0.292865 11.9289 0.3504L12.0373 15.8274V15.9425H7.15733V15.8849L7.32 13.2958V13.2383C7.32 13.2383 7.32 13.1808 7.26578 13.1808L7.21156 13.1232ZM7.59111 10.2465C7.64533 10.2465 7.64533 10.2465 7.69956 10.1889C7.69956 10.1889 7.75378 10.1314 7.75378 10.0739L8.07911 4.32034C8.07911 3.97513 8.07911 3.97513 7.97067 4.32034L6.23556 10.1314V10.2465H7.59111ZM23.7493 0.292865C24.888 0.465471 25.6471 1.09836 25.9182 2.07646C26.0267 2.53674 26.0267 3.2847 25.864 4.37787C25.376 7.94506 24.888 10.9369 24.3458 13.3534C24.0747 14.5041 23.3698 15.2521 22.2311 15.5973C21.5262 15.8274 20.8213 15.9425 20.0622 15.9425H17.8933C16.2124 15.9425 14.5858 15.9425 12.9591 16H12.8507V15.8849L15.4533 0.235329C15.4533 0.235329 15.4533 0.177794 15.5076 0.177794H15.5618C16.6462 0.120259 18.3813 0.120259 20.7129 0.177794C22.0684 0.120259 23.0444 0.177794 23.7493 0.292865ZM20.9298 3.05456C20.6044 2.82442 20.2791 2.76688 19.9538 2.82442C19.9538 2.82442 19.8996 2.82442 19.8996 2.88195L19.8453 2.93949L18.1644 13.0082V13.1232H18.2729C18.8151 13.1808 19.1947 13.0657 19.4116 12.778C19.5742 12.6054 19.6827 12.2602 19.7911 11.6849C20.2791 9.03823 20.7129 6.27654 21.1467 3.51484C21.1467 3.45731 21.1467 3.34224 21.0924 3.2847C21.0924 3.16963 21.0382 3.1121 20.9298 3.05456ZM31.7742 10.4766C31.8284 10.4766 31.8284 10.4766 31.7742 10.4766C32.7502 7.0245 33.672 3.62991 34.5396 0.177794C34.5396 0.177794 34.5396 0.120259 34.5938 0.120259H34.648C36.2747 0.0627233 37.9556 0.0627233 39.5822 0.120259H39.6364V0.235329L34.7022 15.8274C34.7022 15.8849 34.648 15.8849 34.648 15.8849C34.648 15.8849 34.5938 15.9425 34.5396 15.9425H27.2738V15.8274L27.2196 0.235329C27.2196 0.177794 27.2196 0.177794 27.2738 0.120259C27.2738 0.120259 27.328 0.0627233 27.3822 0.0627233C28.9547 0.00518796 30.5813 0.00518796 32.2622 0.0627233C32.3164 0.0627233 32.3164 0.0627233 32.3164 0.120259C32.3164 0.177794 32.3707 0.177794 32.3707 0.177794C32.208 3.68745 32.0453 7.08203 31.7742 10.4766C31.7742 10.4191 31.7742 10.4191 31.7742 10.4766ZM44.408 6.219H47.1733V6.33407C47.0649 7.31217 46.9022 8.23274 46.6853 9.21084C46.6853 9.21084 46.6853 9.26838 46.6311 9.26838H46.5769L43.8658 9.32591C43.8116 9.32591 43.8116 9.32591 43.7573 9.38345L43.7031 9.44098L42.6729 15.8849C42.6729 15.8849 42.6729 15.9425 42.6187 15.9425H37.8471V15.8274L40.3956 0.177794C40.3956 0.177794 40.3956 0.120259 40.4498 0.120259H40.504C43.2151 0.00518796 46.1973 -0.0523474 48.8542 0.0627233H48.9084V0.177794L48.4204 3.1121C48.4204 3.1121 48.4204 3.16963 48.3662 3.16963H48.312L44.9502 3.2847C44.896 3.2847 44.8418 3.2847 44.8418 3.34224C44.7876 3.39977 44.7876 3.39977 44.7876 3.45731L44.3538 6.16147V6.27654C44.3538 6.219 44.3538 6.219 44.408 6.219ZM55.8489 6.67929C55.9031 6.96696 55.9573 6.96696 56.0116 6.67929L57.096 0.235329C57.096 0.235329 57.096 0.177794 57.1502 0.177794C57.1502 0.177794 57.2044 0.177794 57.2044 0.120259C58.4516 0.0627233 59.6987 0.0627233 60.9458 0.120259C60.9458 0.120259 61 0.120259 61 0.177794V0.235329C61 0.580541 60.9458 1.09836 60.8373 1.78878C60.0782 6.50668 59.3191 11.2246 58.5058 15.9425C58.5058 15.9425 58.5058 16 58.4516 16H58.3973L54.3307 15.9425H54.2764L54.2222 15.8849L53.0293 9.32591V9.26838C53.0293 9.26838 53.0293 9.21084 52.9751 9.21084C52.9209 9.21084 52.9209 9.21084 52.9209 9.32591C52.5413 11.4547 52.216 13.6411 51.8364 15.8274C51.8364 15.8849 51.7822 15.9425 51.7822 15.9425C51.728 16 51.6738 16 51.6738 16H47.824V15.8849C48.5831 11.2246 49.3964 6.50668 50.1556 1.84632C50.264 0.925753 50.264 0.925753 50.3182 0.292865C50.3182 0.235329 50.3182 0.235329 50.3724 0.235329L50.4267 0.177794C51.728 0.120259 53.0293 0.120259 54.3307 0.177794C54.3849 0.177794 54.3849 0.177794 54.4391 0.235329L54.4933 0.292865L55.8489 6.67929Z" fill="#6A56F6"/>
    </g>
    <defs>
        <clipPath id="clip0_2847_492">
            <rect width="61" height="16" fill="white"/>
        </clipPath>
    </defs>
</svg>