<svg xmlns="http://www.w3.org/2000/svg" width="127" height="17" viewBox="0 0 127 17" fill="none">
    <g clip-path="url(#clip0_2847_415)">
        <path d="M127.344 8.83341C127.189 9.44133 127.104 10.0784 126.865 10.6511C126.285 12.0391 125.271 12.9642 123.75 13.1973C122.766 13.3484 121.833 13.1099 120.953 12.6544C120.875 12.6138 120.8 12.5684 120.688 12.5047C120.679 12.6294 120.666 12.7229 120.666 12.8171C120.665 13.7537 120.668 14.6903 120.664 15.6276C120.661 16.4239 120.114 17.0095 119.395 17C118.684 16.9905 118.156 16.4219 118.156 15.6351C118.151 12.1251 118.153 8.61519 118.156 5.10524C118.156 4.96021 118.167 4.80908 118.209 4.6715C118.324 4.29333 118.669 4.03918 119.063 4.01614C119.474 3.99242 119.806 4.19031 119.974 4.57662C120.035 4.71691 120.064 4.87211 120.11 5.03069C120.15 5.01578 120.186 5.01239 120.206 4.99274C122.319 2.97108 126.401 3.6522 127.212 7.49626C127.263 7.73685 127.3 7.98083 127.344 8.22346V8.83341ZM120.666 8.65314C120.676 9.17092 120.846 9.75376 121.268 10.2465C122.135 11.2583 123.572 11.1817 124.318 10.0804C124.679 9.54773 124.823 8.94998 124.762 8.31427C124.638 7.01643 123.727 6.16521 122.59 6.26348C121.482 6.35904 120.676 7.30921 120.667 8.65382L120.666 8.65314Z" fill="#6A56F6"/>
        <path d="M47.3446 6.08726C46.9176 6.55015 46.5594 6.93645 46.2033 7.32411C45.6394 7.93813 45.0768 8.55419 44.5116 9.16685C43.9429 9.78358 43.5227 9.78358 42.9642 9.17363C42.1116 8.24311 41.2577 7.31395 40.4057 6.38275C40.3376 6.30888 40.2783 6.2262 40.2155 6.14826C40.1865 6.15775 40.1568 6.16791 40.1278 6.1774C40.1278 6.29261 40.1278 6.40783 40.1278 6.52304C40.1278 8.28513 40.1305 10.0465 40.1251 11.808C40.1238 12.3406 39.8769 12.7412 39.4014 12.977C38.9454 13.2034 38.5036 13.141 38.1049 12.832C37.8162 12.6083 37.6503 12.3068 37.6254 11.936C37.6179 11.8235 37.6173 11.7104 37.6173 11.5972C37.6173 8.00591 37.6173 4.41464 37.6152 0.823367C37.6152 0.565831 37.6105 0.32185 37.9033 0.204603C38.1906 0.0893899 38.3869 0.2534 38.5535 0.437063C39.2577 1.21306 39.9518 1.99787 40.6479 2.78132C41.5086 3.74979 42.3659 4.72232 43.2279 5.68944C43.6509 6.16385 43.8229 6.16385 44.2526 5.68063C45.7345 4.01274 47.213 2.34147 48.695 0.67359C48.8218 0.53059 48.9452 0.364547 49.1071 0.280509C49.2474 0.207314 49.4707 0.170717 49.6008 0.235101C49.7243 0.296096 49.8444 0.507547 49.845 0.653935C49.8578 4.36923 49.8585 8.0852 49.8518 11.8005C49.8504 12.5697 49.3115 13.1085 48.5958 13.1038C47.893 13.0997 47.35 12.5338 47.3479 11.7815C47.3425 10.0425 47.3459 8.30343 47.3459 6.5637C47.3459 6.44104 47.3459 6.31837 47.3459 6.08726H47.3446Z" fill="#6A56F6"/>
        <path d="M94.668 6.59222C94.7024 2.77323 97.8335 -0.191142 101.622 0.0345409C102.778 0.103669 103.841 0.472352 104.795 1.13991C105.407 1.56756 105.581 2.27917 105.218 2.85185C104.85 3.43063 104.178 3.57498 103.607 3.19952C102.733 2.62481 101.782 2.34355 100.733 2.44386C99.4402 2.56788 98.448 3.20427 97.822 4.32658C96.956 5.87857 96.9411 7.48749 97.8099 9.0422C99.0173 11.2035 101.961 11.6115 103.9 9.9185C104.195 9.66096 104.511 9.48611 104.905 9.53423C105.365 9.59048 105.699 9.8392 105.845 10.2953C105.984 10.7324 105.899 11.1418 105.56 11.4427C104.179 12.6646 102.585 13.3173 100.72 13.1987C97.6757 13.0049 95.1401 10.6084 94.7374 7.50308C94.6983 7.20149 94.6916 6.89584 94.6693 6.59222H94.668Z" fill="#6A56F6"/>
        <path d="M6.16051 0C7.48325 0.0203318 8.6866 0.398502 9.77528 1.14197C10.3763 1.55267 10.5544 2.25954 10.211 2.82679C9.85217 3.42116 9.15944 3.57771 8.5807 3.19751C7.70652 2.62348 6.75544 2.3429 5.70588 2.44523C4.42833 2.56994 3.44758 3.19683 2.81487 4.30153C1.97846 5.7627 1.92315 7.30046 2.66378 8.80908C3.81722 11.1581 6.81547 11.6894 8.85456 9.93682C9.15877 9.67589 9.47781 9.48342 9.88658 9.53425C10.35 9.59253 10.6852 9.84668 10.8248 10.2987C10.9624 10.7447 10.868 11.1649 10.5092 11.4719C8.66029 13.0516 6.56388 13.667 4.21046 12.9039C1.82535 12.1313 0.327904 10.4505 -0.192154 7.99649C-0.97595 4.29678 1.34846 0.837669 5.02394 0.12809C5.39695 0.0562512 5.78143 0.0413413 6.15983 0H6.16051Z" fill="#6A56F6"/>
        <path d="M113.84 5.299C113.88 5.10313 113.908 4.99876 113.921 4.89304C113.995 4.32917 114.394 3.95235 114.901 3.97336C115.404 3.99437 115.813 4.40508 115.859 4.93845C115.863 4.98318 115.862 5.02858 115.862 5.07399C115.862 7.37758 115.866 9.68117 115.861 11.9848C115.86 12.7228 115.297 13.206 114.636 13.0562C114.246 12.9675 114.013 12.7174 113.92 12.3324C113.886 12.1935 113.869 12.0512 113.833 11.854C113.205 12.6957 112.346 13.0251 111.405 13.1593C109.686 13.4046 108.375 12.7215 107.449 11.2847C106.236 9.40263 106.433 6.8171 107.881 5.20683C109.418 3.49828 111.993 3.41763 113.624 5.02926C113.686 5.09161 113.736 5.16752 113.84 5.29764V5.299ZM109.186 8.56428C109.179 9.09833 109.319 9.59036 109.61 10.0363C110.381 11.2162 111.923 11.2786 112.761 10.1441C113.374 9.31384 113.46 8.38807 113.033 7.4562C112.42 6.12243 110.682 5.84389 109.754 6.9086C109.342 7.38029 109.177 7.94416 109.186 8.56428Z" fill="#6A56F6"/>
        <path d="M58.552 5.24203C58.5783 5.10512 58.6019 5.00889 58.614 4.91197C58.6889 4.3271 59.0963 3.94282 59.6123 3.97468C60.1438 4.00721 60.5465 4.44638 60.556 5.02041C60.5647 5.53955 60.558 6.05936 60.558 6.5785C60.558 8.38532 60.5614 10.1915 60.556 11.9983C60.554 12.7289 59.9813 13.2094 59.3196 13.0528C58.929 12.96 58.7024 12.7038 58.612 12.3202C58.5796 12.1833 58.5628 12.0423 58.5385 11.9007C57.3763 13.1097 55.9766 13.4859 54.43 13.0521C52.7356 12.5771 51.8303 11.2887 51.4843 9.62488C51.1046 7.80044 51.512 6.15492 52.9271 4.87741C54.5035 3.45486 56.8124 3.545 58.328 5.03532C58.3894 5.09564 58.4542 5.15257 58.552 5.2427V5.24203ZM55.9011 10.9559C56.3982 10.9553 56.8279 10.7777 57.1854 10.4415C57.8754 9.7916 58.0758 8.97494 57.9321 8.06204C57.7769 7.07798 56.9587 6.32029 56.0137 6.26133C55.0876 6.20304 54.2721 6.80351 53.9908 7.7713C53.777 8.50731 53.8424 9.22705 54.2195 9.89868C54.5858 10.552 55.1288 10.9451 55.9011 10.9559Z" fill="#6A56F6"/>
        <path d="M72.1573 9.08572C72.1573 9.97761 72.1688 10.8695 72.154 11.7607C72.1391 12.6533 71.3702 13.2612 70.5614 13.0281C70.0926 12.8925 69.7965 12.5699 69.6764 12.0948C69.6434 11.9647 69.6313 11.8264 69.6313 11.6923C69.6286 8.30431 69.6265 4.91635 69.6313 1.5284C69.6326 0.757828 70.0892 0.210225 70.7489 0.151941C71.5624 0.0801017 72.1533 0.639903 72.156 1.50807C72.1621 3.48432 72.158 5.46057 72.158 7.43682C72.158 7.55542 72.158 7.67402 72.158 7.79194C72.1911 7.81024 72.2241 7.82786 72.2572 7.84616C72.3199 7.75738 72.3745 7.66047 72.4474 7.57982C73.2757 6.65743 74.1033 5.73505 74.9377 4.81876C75.134 4.60257 75.337 4.38569 75.5671 4.20949C76.0453 3.84284 76.6254 3.92416 77.0436 4.38637C77.4611 4.8479 77.4868 5.4809 77.0928 5.92007C76.4756 6.60796 75.8504 7.28772 75.2284 7.97154C75.1239 8.08676 75.0207 8.204 74.904 8.33548C75.6608 9.25515 76.4068 10.1572 77.1468 11.0647C77.6115 11.6353 77.5319 12.3341 76.96 12.7949C76.4433 13.211 75.8612 13.1812 75.3586 12.6675C74.9735 12.2737 74.6281 11.84 74.2679 11.4218C73.6507 10.7041 73.0356 9.98439 72.4204 9.26532C72.357 9.19145 72.299 9.11283 72.239 9.03625C72.212 9.05252 72.185 9.06946 72.1587 9.08572H72.1573Z" fill="#6A56F6"/>
        <path d="M80.4235 9.31922C80.3918 10.2647 81.0225 10.9329 82.0504 11.061C82.7985 11.1538 83.5283 11.0637 84.2177 10.7296C84.8072 10.4442 85.3698 10.5872 85.6612 11.0854C85.9586 11.5937 85.8116 12.1298 85.272 12.5249C84.7006 12.943 84.0477 13.126 83.357 13.1999C82.4194 13.2995 81.4906 13.2561 80.5962 12.9376C78.9813 12.3615 78.1362 11.1633 77.9062 9.49069C77.7908 8.6537 77.8441 7.8228 78.0525 7.00614C78.5422 5.09089 79.954 3.95977 81.9223 3.89606C84.6177 3.80796 86.4227 5.52396 86.4942 8.24299C86.5111 8.87531 86.0989 9.31448 85.4581 9.31787C83.9189 9.32532 82.3796 9.32058 80.8403 9.32058C80.7075 9.32058 80.5746 9.32058 80.4228 9.32058L80.4235 9.31922ZM84.0308 7.67709C84.0915 6.91669 83.2693 6.27488 82.2359 6.26268C81.301 6.25184 80.3817 6.78724 80.4215 7.67709H84.0308Z" fill="#6A56F6"/>
        <path d="M11.643 8.54154C11.6355 5.99194 13.7239 3.89844 16.2817 3.89234C18.7538 3.88692 20.7686 5.95873 20.774 8.5124C20.7794 11.064 18.7369 13.2334 16.3221 13.2402C13.765 13.2477 11.6511 11.125 11.6436 8.54154H11.643ZM14.1576 8.71708C14.1731 9.27755 14.397 9.90919 14.9259 10.4087C15.8237 11.2565 17.1181 11.1122 17.8101 10.0874C18.1703 9.55407 18.3106 8.95428 18.2486 8.31993C18.1616 7.42736 17.7811 6.7144 16.8941 6.39654C15.5087 5.90045 14.1542 6.98006 14.1576 8.71708Z" fill="#6A56F6"/>
        <path d="M29.1588 4.96346C30.0593 4.08716 31.1257 3.78828 32.3109 3.91231C34.0727 4.09733 35.2228 5.26166 35.4677 7.07661C35.5095 7.38904 35.5344 7.70554 35.5365 8.02068C35.5439 9.26228 35.5425 10.5045 35.5385 11.7468C35.5358 12.5235 34.9995 13.1002 34.2886 13.1036C33.5702 13.107 33.0367 12.5499 33.0292 11.7617C33.0198 10.6442 33.036 9.52591 33.0212 8.40834C33.0158 8.01594 32.9834 7.61811 32.9078 7.23317C32.8127 6.74927 32.4856 6.45446 32.0121 6.32027C30.7595 5.9665 29.8988 6.52698 29.7227 7.82008C29.6937 8.03153 29.6829 8.24704 29.6823 8.46121C29.6782 9.55641 29.6843 10.6516 29.6789 11.7468C29.6748 12.5337 29.1487 13.0996 28.433 13.103C27.7154 13.1063 27.1757 12.5404 27.1737 11.7611C27.169 9.53676 27.1703 7.31246 27.1737 5.08816C27.1744 4.49854 27.4988 4.08852 27.9987 4.0221C28.5437 3.94958 28.912 4.22406 29.0934 4.83673C29.1022 4.86722 29.1231 4.89433 29.1595 4.96414L29.1588 4.96346Z" fill="#6A56F6"/>
        <path d="M88.8302 6.2352C88.5934 6.2352 88.4045 6.24062 88.2164 6.23452C87.5459 6.21216 87.0191 5.68556 87.0312 5.05528C87.044 4.40398 87.5587 3.90314 88.2319 3.89095C88.4113 3.88756 88.59 3.89095 88.8248 3.89095C88.8248 3.62053 88.8248 3.36638 88.8248 3.11224C88.8248 2.58158 88.8207 2.05092 88.8261 1.52094C88.8342 0.755107 89.3529 0.204793 90.0645 0.197338C90.7802 0.189883 91.3239 0.756463 91.3313 1.53246C91.338 2.29897 91.3326 3.06547 91.3326 3.89095C91.6483 3.89095 91.9451 3.88959 92.2426 3.89095C92.9913 3.89501 93.4932 4.3579 93.5026 5.04986C93.5114 5.71403 92.9758 6.22639 92.2581 6.23588C91.9674 6.23994 91.6767 6.23588 91.3819 6.23588C91.3617 6.30162 91.3374 6.34364 91.3374 6.3843C91.3515 7.61369 91.3502 8.84445 91.3913 10.0732C91.4149 10.7909 91.6187 10.9508 92.3303 10.9569C93.0203 10.9623 93.4405 11.2158 93.6132 11.7309C93.8405 12.4086 93.3798 13.1588 92.648 13.2015C92.0807 13.2348 91.5006 13.2036 90.9381 13.1175C89.9944 12.9732 89.3732 12.3842 89.1162 11.4747C88.9583 10.9163 88.8632 10.326 88.8423 9.7465C88.8005 8.59843 88.8302 7.44697 88.8302 6.23452V6.2352Z" fill="#6A56F6"/>
        <path d="M64.7765 4.96322C64.9701 4.81344 65.1435 4.67383 65.3229 4.54167C65.963 4.0693 66.6861 3.86869 67.474 3.89309C68.1222 3.91342 68.6159 4.41494 68.6375 5.0642C68.6577 5.67077 68.166 6.18651 67.5191 6.23395C67.2844 6.25158 67.045 6.24073 66.8143 6.28072C65.8693 6.44676 65.3708 7.01198 65.3553 7.97639C65.335 9.22883 65.3499 10.4819 65.3398 11.7344C65.3337 12.5605 64.7536 13.1434 63.9975 13.1027C63.3128 13.0661 62.8164 12.4934 62.8137 11.7107C62.8076 10.0401 62.8116 8.37015 62.8116 6.69955C62.8116 6.14653 62.7988 5.59283 62.8164 5.04048C62.838 4.35598 63.3351 3.91749 63.9637 4.0266C64.4595 4.11267 64.6828 4.4739 64.7772 4.96322H64.7765Z" fill="#6A56F6"/>
        <path d="M24.8476 8.59631C24.8476 9.6461 24.8557 10.6959 24.8449 11.745C24.8368 12.4973 24.3585 13.049 23.6988 13.0998C22.9771 13.156 22.3363 12.5827 22.3323 11.8263C22.3194 9.64814 22.3215 7.46993 22.3309 5.29172C22.3343 4.55096 22.8773 4.0142 23.5781 4.01149C24.2769 4.0081 24.8246 4.53063 24.8395 5.27816C24.8617 6.38353 24.8455 7.49026 24.8455 8.59631C24.8462 8.59631 24.8476 8.59631 24.8482 8.59631H24.8476Z" fill="#6A56F6"/>
        <path d="M23.6084 3.01766C22.7956 3.01766 22.1299 2.34672 22.1339 1.53073C22.1373 0.701197 22.795 0.0248269 23.5943 0.02686C24.4057 0.0288932 25.0843 0.732373 25.0722 1.55717C25.0593 2.36908 24.4091 3.01766 23.6091 3.01766H23.6084Z" fill="#6A56F6"/>
    </g>
    <defs>
        <clipPath id="clip0_2847_415">
            <rect width="127" height="17" fill="white"/>
        </clipPath>
    </defs>
</svg>