<svg xmlns="http://www.w3.org/2000/svg" width="101" height="24" viewBox="0 0 101 24" fill="none">
    <g clip-path="url(#clip0_2847_496)">
        <path d="M35.3403 9.65998C34.9183 9.23998 34.5567 8.93998 34.0744 8.75998C33.6525 8.51998 33.11 8.39998 32.5675 8.39998C31.9647 8.39998 31.4825 8.51998 31.0606 8.69998C30.6386 8.87998 30.277 9.17998 29.9756 9.53998C29.6742 9.89998 29.4934 10.32 29.3125 10.8C29.192 11.28 29.0714 11.76 29.0714 12.3C29.0714 12.84 29.1317 13.32 29.3125 13.74C29.4934 14.16 29.7345 14.58 30.0359 14.94C30.3372 15.3 30.6989 15.54 31.1811 15.72C31.6031 15.9 32.0853 16.02 32.6881 16.02C33.2908 16.02 33.7731 15.9 34.195 15.72C34.6169 15.48 35.0389 15.18 35.4005 14.82L36.9075 16.32C36.365 16.92 35.7019 17.34 34.9786 17.64C34.2553 17.88 33.4717 18.06 32.6278 18.06C31.7839 18.06 31.0003 17.94 30.277 17.64C29.5536 17.34 28.9509 16.98 28.4084 16.44C27.8659 15.96 27.5042 15.3 27.2028 14.64C26.9014 13.92 26.7809 13.14 26.7809 12.3C26.7809 11.46 26.9014 10.68 27.2028 9.95998C27.5042 9.23998 27.8659 8.63998 28.4084 8.09998C28.8906 7.55998 29.5536 7.19998 30.2167 6.89998C30.94 6.59998 31.7236 6.47998 32.6278 6.47998C33.4717 6.47998 34.195 6.59998 34.9786 6.89998C35.7019 7.19998 36.365 7.61998 36.9075 8.21998L35.3403 9.65998Z" fill="#6A56F6"/>
        <path d="M36.365 12.2401C36.365 11.4001 36.5458 10.6801 36.8472 9.96006C37.1486 9.24006 37.5705 8.64006 38.113 8.10006C38.6555 7.56006 39.2583 7.14006 39.9816 6.84006C40.705 6.54006 41.4886 6.36006 42.3324 6.36006C43.1763 6.36006 43.9599 6.54006 44.6833 6.84006C45.4066 7.14006 46.0094 7.56006 46.5519 8.10006C47.0943 8.64006 47.5163 9.24006 47.8177 9.96006C48.1191 10.6801 48.2999 11.4001 48.2999 12.2401C48.2999 13.0801 48.1191 13.8001 47.8177 14.5201C47.5163 15.2401 47.0943 15.8401 46.5519 16.3801C46.0094 16.9201 45.4066 17.3401 44.6833 17.6401C43.9599 17.9401 43.1763 18.1201 42.3324 18.1201C41.4886 18.1201 40.705 17.9401 39.9816 17.6401C39.2583 17.3401 38.6555 16.9201 38.113 16.3801C37.5705 15.8401 37.1486 15.2401 36.8472 14.5201C36.5458 13.8001 36.365 13.0201 36.365 12.2401ZM38.6555 12.2401C38.6555 12.7801 38.7158 13.3201 38.8966 13.8001C39.0775 14.2801 39.3186 14.7001 39.62 15.0001C39.9214 15.3601 40.3433 15.6001 40.7652 15.7801C41.2475 15.9601 41.7297 16.0801 42.2722 16.0801C42.8147 16.0801 43.3572 15.9601 43.7791 15.7801C44.2613 15.6001 44.623 15.3001 44.9244 15.0001C45.2257 14.6401 45.4669 14.2801 45.6477 13.8001C45.8285 13.3201 45.8888 12.7801 45.8888 12.2401C45.8888 11.7001 45.8285 11.1601 45.6477 10.6801C45.4669 10.2001 45.2257 9.78006 44.9244 9.48006C44.623 9.12006 44.201 8.88006 43.7791 8.70006C43.2969 8.52006 42.8147 8.40006 42.2722 8.40006C41.7297 8.40006 41.1872 8.52006 40.7652 8.70006C40.283 8.88006 39.9214 9.18006 39.62 9.48006C39.3186 9.84006 39.0775 10.2001 38.8966 10.6801C38.7158 11.1601 38.6555 11.7001 38.6555 12.2401ZM49.3246 6.66006H51.4343V17.7601H49.3246V6.66006ZM53.0015 6.66006H55.1112V8.40006H55.1715C55.4126 7.80006 55.8948 7.32006 56.5579 6.96006C57.2209 6.60006 58.0045 6.42006 58.8484 6.42006C59.3909 6.42006 59.8731 6.48006 60.4156 6.66006C60.8978 6.84006 61.3198 7.08006 61.7417 7.44006C62.1034 7.80006 62.4048 8.22006 62.6459 8.76006C62.887 9.30006 62.9473 9.96006 62.9473 10.6801V17.8201H60.7773V11.2201C60.7773 10.6801 60.717 10.2601 60.5362 9.90006C60.4156 9.54006 60.2348 9.24006 59.9937 9.00006C59.632 8.64006 59.5115 8.64006 59.2101 8.52006C58.9087 8.40006 58.6073 8.34006 58.2456 8.34006C57.8237 8.34006 57.4018 8.40006 57.0401 8.58006C56.6784 8.70006 56.3168 8.94006 56.0757 9.24006C55.8345 9.54006 55.5934 9.90006 55.4126 10.3801C55.2318 10.8601 55.1715 11.4001 55.1715 12.0601V17.7601H53.0618L53.0015 6.66006ZM75.5452 17.7601H73.4355V16.2001H73.3752C72.9533 16.8001 72.4108 17.2801 71.6875 17.5801C70.9641 17.8801 70.2408 18.0601 69.4572 18.0601C68.6133 18.0601 67.8297 17.9401 67.1064 17.6401C66.3831 17.3401 65.7803 16.9201 65.2981 16.3801C64.5748 15.5701 64.3939 15.2401 64.1528 14.5201C63.9117 13.8001 63.7309 13.0801 63.7309 12.2401C63.7309 11.4001 63.8514 10.6201 64.1528 9.96006C64.3939 9.24006 64.8159 8.64006 65.2981 8.10006C65.7803 7.56006 66.3831 7.14006 67.1064 6.84006C67.8297 6.54006 68.6133 6.42006 69.4572 6.42006C70.2408 6.42006 71.0244 6.60006 71.7477 6.90006C72.4711 7.26006 73.0136 7.68006 73.3752 8.28006H73.4355V0.0600586H75.5452V17.7601ZM69.7586 16.0801C70.3011 16.0801 70.8436 15.9601 71.2655 15.7801C71.7478 15.6001 72.1094 15.3001 72.4108 15.0001C72.7122 14.6401 72.9533 14.2801 73.1341 13.8001C73.315 13.3201 73.3752 12.7801 73.3752 12.2401C73.3752 11.7001 73.315 11.1601 73.1341 10.6801C72.9533 10.2001 72.7122 9.78006 72.4108 9.48006C72.1094 9.12006 71.6875 8.88006 71.2655 8.70006C70.7833 8.52006 70.3011 8.40006 69.7586 8.40006C69.2161 8.40006 68.6736 8.52006 68.2517 8.70006C67.7695 8.88006 67.4078 9.18006 67.1064 9.48006C66.805 9.84006 66.5639 10.2001 66.3831 10.6801C66.2022 11.1601 66.142 11.7001 66.142 12.2401C66.142 12.7801 66.2022 13.3201 66.3831 13.8001C66.5639 14.2801 66.805 14.7001 67.1064 15.0001C67.4078 15.3601 67.8297 15.6001 68.2517 15.7801C68.6736 16.0201 69.1558 16.0801 69.7586 16.0801ZM76.4494 12.2401C76.4494 11.4001 76.6302 10.6801 76.9316 9.96006C77.233 9.24006 77.6549 8.64006 78.1974 8.10006C78.7399 7.56006 79.3427 7.14006 80.066 6.84006C80.7893 6.54006 81.5729 6.36006 82.4168 6.36006C83.2607 6.36006 84.0443 6.54006 84.7676 6.84006C85.491 7.14006 86.0937 7.56006 86.6362 8.10006C87.1787 8.64006 87.6007 9.24006 87.9021 9.96006C88.2034 10.6801 88.3843 11.4001 88.3843 12.2401C88.3843 13.0801 88.2034 13.8001 87.9021 14.5201C87.6007 15.2401 87.1787 15.8401 86.6362 16.3801C86.0937 16.9201 85.491 17.3401 84.7676 17.6401C84.0443 17.9401 83.2607 18.1201 82.4168 18.1201C81.5729 18.1201 80.7893 17.9401 80.066 17.6401C79.3427 17.3401 78.7399 16.9201 78.1974 16.3801C77.6549 15.8401 77.233 15.2401 76.9316 14.5201C76.5699 13.8001 76.4494 13.0201 76.4494 12.2401ZM78.6796 12.2401C78.6796 12.7801 78.7399 13.3201 78.9208 13.8001C79.1016 14.2801 79.3427 14.7001 79.6441 15.0001C79.9455 15.3601 80.3674 15.6001 80.7893 15.7801C81.2716 15.9601 81.7538 16.0801 82.2963 16.0801C82.8388 16.0801 83.3813 15.9601 83.8032 15.7801C84.2854 15.6001 84.6471 15.3001 84.9485 15.0001C85.2499 14.6401 85.491 14.2801 85.6718 13.8001C85.8526 13.3201 85.9129 12.7801 85.9129 12.2401C85.9129 11.7001 85.8526 11.1601 85.6718 10.6801C85.491 10.2001 85.2499 9.78006 84.9485 9.48006C84.6471 9.12006 84.2251 8.88006 83.8032 8.70006C83.3813 8.52006 82.8388 8.40006 82.2963 8.40006C81.7538 8.40006 81.2113 8.52006 80.7893 8.70006C80.3674 8.88006 79.9455 9.18006 79.6441 9.48006C79.3427 9.84006 79.1016 10.2001 78.9208 10.6801C78.7399 11.1601 78.6796 11.7001 78.6796 12.2401ZM88.6254 12.2401C88.6254 11.4001 88.8062 10.6801 89.1076 9.96006C89.409 9.24006 89.8309 8.64006 90.3734 8.10006C90.9159 7.56006 91.5187 7.14006 92.242 6.84006C92.9654 6.54006 93.749 6.36006 94.5928 6.36006C95.4367 6.36006 96.2203 6.54006 96.9437 6.84006C97.667 7.14006 98.2698 7.56006 98.8123 8.10006C99.3547 8.64006 99.7767 9.24006 100.078 9.96006C100.379 10.6801 100.56 11.4001 100.56 12.2401C100.56 13.0801 100.379 13.8001 100.078 14.5201C99.7767 15.2401 99.3547 15.8401 98.8123 16.3801C98.2698 16.9201 97.667 17.3401 96.9437 17.6401C96.2203 17.9401 95.4367 18.1201 94.5928 18.1201C93.749 18.1201 92.9654 17.9401 92.242 17.6401C91.5187 17.3401 90.9159 16.9201 90.3734 16.3801C89.8309 15.8401 89.409 15.2401 89.1076 14.5201C88.8062 13.8001 88.6254 13.0201 88.6254 12.2401ZM90.9159 12.2401C90.9159 12.7801 90.9762 13.3201 91.157 13.8001C91.3379 14.2801 91.579 14.7001 91.8804 15.0001C92.1818 15.3601 92.6037 15.6001 93.0256 15.7801C93.5079 15.9601 93.9901 16.0801 94.5326 16.0801C95.0751 16.0801 95.6176 15.9601 96.0395 15.7801C96.5217 15.6001 96.8834 15.3001 97.1848 15.0001C97.4861 14.6401 97.7273 14.2801 97.9081 13.8001C98.0889 13.3201 98.1492 12.7801 98.1492 12.2401C98.1492 11.7001 98.0889 11.1601 97.9081 10.6801C97.7273 10.2001 97.4861 9.78006 97.1848 9.48006C96.8834 9.12006 96.4614 8.88006 96.0395 8.70006C95.5573 8.52006 95.0751 8.40006 94.5326 8.40006C93.9901 8.40006 93.4476 8.52006 93.0256 8.70006C92.5434 8.88006 92.1818 9.18006 91.8804 9.48006C91.579 9.84006 91.3379 10.2001 91.157 10.6801C90.9762 11.1601 90.9159 11.7001 90.9159 12.2401ZM51.4343 1.80006H49.3246V4.20006H51.4343V1.80006Z" fill="#6A56F6"/>
        <path fill-rule="evenodd" clip-rule="evenodd" d="M12.2541 0V4.2L18.5832 8.1V15.9L12.2541 19.8V24L21.8984 18V6L12.2541 0ZM10.1444 4.2V0L0.5 6V18L10.1444 24V19.8L3.81525 15.9V8.1L10.1444 4.2Z" fill="#6A56F6"/>
        <path fill-rule="evenodd" clip-rule="evenodd" d="M12.2541 8.09998V16.2L15.2679 14.7V9.59998L12.2541 8.09998ZM7.13049 3.59998V10.2L10.1444 8.69998V3.59998H7.13049ZM7.13049 14.1V20.7H10.1444V15.6L7.13049 14.1Z" fill="#6A56F6"/>
    </g>
    <defs>
        <clipPath id="clip0_2847_496">
            <rect width="100" height="24" fill="white" transform="translate(0.5)"/>
        </clipPath>
    </defs>
</svg>