<svg xmlns="http://www.w3.org/2000/svg" width="190" height="46" viewBox="0 0 190 46" fill="none">
  <g clip-path="url(#clip0_2834_21249)">
    <path d="M66.1965 18.515C65.3948 17.71 64.7077 17.135 63.7914 16.79C62.9898 16.33 61.959 16.1 60.9283 16.1C59.783 16.1 58.8668 16.33 58.0651 16.675C57.2634 17.02 56.5763 17.595 56.0036 18.285C55.431 18.975 55.0874 19.78 54.7438 20.7C54.5148 21.62 54.2857 22.54 54.2857 23.575C54.2857 24.61 54.4002 25.53 54.7438 26.335C55.0874 27.14 55.5455 27.945 56.1181 28.635C56.6908 29.325 57.3779 29.785 58.2942 30.13C59.0958 30.475 60.0121 30.705 61.1573 30.705C62.3026 30.705 63.2188 30.475 64.0205 30.13C64.8222 29.67 65.6239 29.095 66.311 28.405L69.1742 31.28C68.1435 32.43 66.8837 33.235 65.5093 33.81C64.135 34.27 62.6462 34.615 61.0428 34.615C59.4394 34.615 57.9506 34.385 56.5763 33.81C55.2019 33.235 54.0567 32.545 53.0259 31.51C51.9952 30.59 51.308 29.325 50.7354 28.06C50.1628 26.68 49.9337 25.185 49.9337 23.575C49.9337 21.965 50.1628 20.47 50.7354 19.09C51.308 17.71 51.9952 16.56 53.0259 15.525C53.9421 14.49 55.2019 13.8 56.4617 13.225C57.836 12.65 59.3249 12.42 61.0428 12.42C62.6462 12.42 64.0205 12.65 65.5093 13.225C66.8837 13.8 68.1435 14.605 69.1742 15.755L66.1965 18.515Z" fill="#B3B8DB"/>
    <path d="M68.1435 23.46C68.1435 21.85 68.487 20.47 69.0597 19.09C69.6323 17.71 70.434 16.56 71.4647 15.525C72.4955 14.49 73.6408 13.685 75.0151 13.11C76.3894 12.535 77.8782 12.19 79.4816 12.19C81.085 12.19 82.5738 12.535 83.9482 13.11C85.3225 13.685 86.4678 14.49 87.4985 15.525C88.5292 16.56 89.3309 17.71 89.9036 19.09C90.4762 20.47 90.8198 21.85 90.8198 23.46C90.8198 25.07 90.4762 26.45 89.9036 27.83C89.3309 29.21 88.5292 30.36 87.4985 31.395C86.4678 32.43 85.3225 33.235 83.9482 33.81C82.5738 34.385 81.085 34.73 79.4816 34.73C77.8782 34.73 76.3894 34.385 75.0151 33.81C73.6408 33.235 72.4955 32.43 71.4647 31.395C70.434 30.36 69.6323 29.21 69.0597 27.83C68.487 26.45 68.1435 24.955 68.1435 23.46ZM72.4955 23.46C72.4955 24.495 72.61 25.53 72.9536 26.45C73.2972 27.37 73.7553 28.175 74.3279 28.75C74.9005 29.44 75.7022 29.9 76.5039 30.245C77.4201 30.59 78.3364 30.82 79.3671 30.82C80.3978 30.82 81.4286 30.59 82.2303 30.245C83.1465 29.9 83.8336 29.325 84.4063 28.75C84.9789 28.06 85.437 27.37 85.7806 26.45C86.1242 25.53 86.2387 24.495 86.2387 23.46C86.2387 22.425 86.1242 21.39 85.7806 20.47C85.437 19.55 84.9789 18.745 84.4063 18.17C83.8336 17.48 83.032 17.02 82.2303 16.675C81.3141 16.33 80.3978 16.1 79.3671 16.1C78.3364 16.1 77.3056 16.33 76.5039 16.675C75.5877 17.02 74.9005 17.595 74.3279 18.17C73.7553 18.86 73.2972 19.55 72.9536 20.47C72.61 21.39 72.4955 22.425 72.4955 23.46ZM92.7667 12.765H96.7752V34.04H92.7667V12.765ZM99.7529 12.765H103.761V16.1H103.876C104.334 14.95 105.25 14.03 106.51 13.34C107.77 12.65 109.259 12.305 110.862 12.305C111.893 12.305 112.809 12.42 113.84 12.765C114.756 13.11 115.558 13.57 116.359 14.26C117.046 14.95 117.619 15.755 118.077 16.79C118.535 17.825 118.65 19.09 118.65 20.47V34.155H114.527V21.505C114.527 20.47 114.412 19.665 114.069 18.975C113.84 18.285 113.496 17.71 113.038 17.25C112.351 16.56 112.122 16.56 111.549 16.33C110.976 16.1 110.404 15.985 109.717 15.985C108.915 15.985 108.113 16.1 107.426 16.445C106.739 16.675 106.052 17.135 105.594 17.71C105.136 18.285 104.678 18.975 104.334 19.895C103.99 20.815 103.876 21.85 103.876 23.115V34.04H99.8674L99.7529 12.765ZM142.586 34.04H138.577V31.05H138.463C137.661 32.2 136.631 33.12 135.256 33.695C133.882 34.27 132.508 34.615 131.019 34.615C129.415 34.615 127.926 34.385 126.552 33.81C125.178 33.235 124.033 32.43 123.116 31.395C121.742 29.8425 121.398 29.21 120.94 27.83C120.482 26.45 120.139 25.07 120.139 23.46C120.139 21.85 120.368 20.355 120.94 19.09C121.398 17.71 122.2 16.56 123.116 15.525C124.033 14.49 125.178 13.685 126.552 13.11C127.926 12.535 129.415 12.305 131.019 12.305C132.508 12.305 133.996 12.65 135.371 13.225C136.745 13.915 137.776 14.72 138.463 15.87H138.577V0.11499H142.586V34.04ZM131.591 30.82C132.622 30.82 133.653 30.59 134.454 30.245C135.371 29.9 136.058 29.325 136.631 28.75C137.203 28.06 137.661 27.37 138.005 26.45C138.348 25.53 138.463 24.495 138.463 23.46C138.463 22.425 138.348 21.39 138.005 20.47C137.661 19.55 137.203 18.745 136.631 18.17C136.058 17.48 135.256 17.02 134.454 16.675C133.538 16.33 132.622 16.1 131.591 16.1C130.561 16.1 129.53 16.33 128.728 16.675C127.812 17.02 127.125 17.595 126.552 18.17C125.98 18.86 125.521 19.55 125.178 20.47C124.834 21.39 124.72 22.425 124.72 23.46C124.72 24.495 124.834 25.53 125.178 26.45C125.521 27.37 125.98 28.175 126.552 28.75C127.125 29.44 127.926 29.9 128.728 30.245C129.53 30.705 130.446 30.82 131.591 30.82ZM144.304 23.46C144.304 21.85 144.647 20.47 145.22 19.09C145.793 17.71 146.594 16.56 147.625 15.525C148.656 14.49 149.801 13.685 151.175 13.11C152.55 12.535 154.039 12.19 155.642 12.19C157.245 12.19 158.734 12.535 160.109 13.11C161.483 13.685 162.628 14.49 163.659 15.525C164.69 16.56 165.491 17.71 166.064 19.09C166.637 20.47 166.98 21.85 166.98 23.46C166.98 25.07 166.637 26.45 166.064 27.83C165.491 29.21 164.69 30.36 163.659 31.395C162.628 32.43 161.483 33.235 160.109 33.81C158.734 34.385 157.245 34.73 155.642 34.73C154.039 34.73 152.55 34.385 151.175 33.81C149.801 33.235 148.656 32.43 147.625 31.395C146.594 30.36 145.793 29.21 145.22 27.83C144.533 26.45 144.304 24.955 144.304 23.46ZM148.541 23.46C148.541 24.495 148.656 25.53 148.999 26.45C149.343 27.37 149.801 28.175 150.374 28.75C150.946 29.44 151.748 29.9 152.55 30.245C153.466 30.59 154.382 30.82 155.413 30.82C156.444 30.82 157.474 30.59 158.276 30.245C159.192 29.9 159.879 29.325 160.452 28.75C161.025 28.06 161.483 27.37 161.826 26.45C162.17 25.53 162.285 24.495 162.285 23.46C162.285 22.425 162.17 21.39 161.826 20.47C161.483 19.55 161.025 18.745 160.452 18.17C159.879 17.48 159.078 17.02 158.276 16.675C157.474 16.33 156.444 16.1 155.413 16.1C154.382 16.1 153.351 16.33 152.55 16.675C151.748 17.02 150.946 17.595 150.374 18.17C149.801 18.86 149.343 19.55 148.999 20.47C148.656 21.39 148.541 22.425 148.541 23.46ZM167.438 23.46C167.438 21.85 167.782 20.47 168.354 19.09C168.927 17.71 169.729 16.56 170.759 15.525C171.79 14.49 172.936 13.685 174.31 13.11C175.684 12.535 177.173 12.19 178.776 12.19C180.38 12.19 181.869 12.535 183.243 13.11C184.617 13.685 185.763 14.49 186.793 15.525C187.824 16.56 188.626 17.71 189.198 19.09C189.771 20.47 190.115 21.85 190.115 23.46C190.115 25.07 189.771 26.45 189.198 27.83C188.626 29.21 187.824 30.36 186.793 31.395C185.763 32.43 184.617 33.235 183.243 33.81C181.869 34.385 180.38 34.73 178.776 34.73C177.173 34.73 175.684 34.385 174.31 33.81C172.936 33.235 171.79 32.43 170.759 31.395C169.729 30.36 168.927 29.21 168.354 27.83C167.782 26.45 167.438 24.955 167.438 23.46ZM171.79 23.46C171.79 24.495 171.905 25.53 172.248 26.45C172.592 27.37 173.05 28.175 173.623 28.75C174.195 29.44 174.997 29.9 175.799 30.245C176.715 30.59 177.631 30.82 178.662 30.82C179.693 30.82 180.723 30.59 181.525 30.245C182.441 29.9 183.128 29.325 183.701 28.75C184.274 28.06 184.732 27.37 185.075 26.45C185.419 25.53 185.533 24.495 185.533 23.46C185.533 22.425 185.419 21.39 185.075 20.47C184.732 19.55 184.274 18.745 183.701 18.17C183.128 17.48 182.327 17.02 181.525 16.675C180.609 16.33 179.693 16.1 178.662 16.1C177.631 16.1 176.6 16.33 175.799 16.675C174.882 17.02 174.195 17.595 173.623 18.17C173.05 18.86 172.592 19.55 172.248 20.47C171.905 21.39 171.79 22.425 171.79 23.46ZM96.7752 3.44999H92.7667V8.04999H96.7752V3.44999Z" fill="#B3B8DB"/>
    <path fill-rule="evenodd" clip-rule="evenodd" d="M22.3327 0V8.05L34.3581 15.525V30.475L22.3327 37.95V46L40.657 34.5V11.5L22.3327 0ZM18.3243 8.05V0L0 11.5V34.5L18.3243 46V37.95L6.29898 30.475V15.525L18.3243 8.05Z" fill="#B3B8DB"/>
    <path fill-rule="evenodd" clip-rule="evenodd" d="M22.3327 15.525V31.05L28.0591 28.175V18.4L22.3327 15.525ZM12.598 6.90002V19.55L18.3243 16.675V6.90002H12.598ZM12.598 27.025V39.675H18.3243V29.9L12.598 27.025Z" fill="#B3B8DB"/>
  </g>
  <defs>
    <clipPath id="clip0_2834_21249">
      <rect width="190" height="46" fill="white"/>
    </clipPath>
  </defs>
</svg>