<svg xmlns="http://www.w3.org/2000/svg" width="226" height="30" viewBox="0 0 226 30" fill="none">
    <path d="M225.33 15.5879C225.056 16.6607 224.907 17.7849 224.484 18.7955C223.461 21.2449 221.672 22.8774 218.988 23.2888C217.251 23.5555 215.605 23.1345 214.052 22.3308C213.914 22.2591 213.782 22.1789 213.583 22.0665C213.568 22.2866 213.545 22.4516 213.545 22.6179C213.543 24.2707 213.549 25.9235 213.542 27.5776C213.536 28.9829 212.572 30.0162 211.302 29.9994C210.048 29.9827 209.116 28.9793 209.115 27.5907C209.108 21.3968 209.11 15.2028 209.115 9.00885C209.115 8.75291 209.135 8.48621 209.209 8.24343C209.413 7.57607 210.021 7.12758 210.717 7.08692C211.442 7.04506 212.028 7.39428 212.324 8.07599C212.431 8.32356 212.482 8.59744 212.565 8.8773C212.635 8.85098 212.698 8.845 212.734 8.81032C216.462 5.24272 223.665 6.44468 225.097 13.2283C225.187 13.6528 225.252 14.0834 225.33 14.5115V15.5879ZM213.545 15.2698C213.563 16.1835 213.863 17.2121 214.608 18.0815C216.137 19.8671 218.673 19.732 219.99 17.7885C220.627 16.8485 220.881 15.7936 220.774 14.6718C220.555 12.3815 218.947 10.8794 216.94 11.0528C214.984 11.2214 213.563 12.8982 213.547 15.271L213.545 15.2698Z" fill="#B3B8DB"/>
    <path d="M84.1557 10.7421C83.4023 11.5589 82.7702 12.2406 82.1417 12.9247C81.1466 14.0083 80.1539 15.0954 79.1564 16.1766C78.1529 17.2649 77.4114 17.2649 76.4258 16.1886C74.9212 14.5465 73.4143 12.9068 71.9109 11.2635C71.7907 11.1332 71.6859 10.9873 71.5752 10.8497C71.524 10.8665 71.4717 10.8844 71.4205 10.9011C71.4205 11.1045 71.4205 11.3078 71.4205 11.5111C71.4205 14.6206 71.4252 17.729 71.4157 20.8373C71.4133 21.7774 70.9777 22.4842 70.1385 22.9004C69.3338 23.2998 68.5542 23.1898 67.8507 22.6444C67.3412 22.2498 67.0484 21.7176 67.0044 21.0634C66.9913 20.8648 66.9901 20.6651 66.9901 20.4654C66.9901 14.1279 66.9901 7.79041 66.9865 1.45293C66.9865 0.998455 66.9782 0.567903 67.4948 0.361C68.0019 0.157683 68.3483 0.44711 68.6423 0.77122C69.885 2.14061 71.1098 3.52555 72.3382 4.9081C73.8571 6.61715 75.37 8.33338 76.8912 10.04C77.6375 10.8772 77.9411 10.8772 78.6993 10.0245C81.3144 7.08119 83.9236 4.13191 86.5388 1.18862C86.7626 0.936265 86.9804 0.64325 87.2661 0.494949C87.5136 0.365784 87.9076 0.3012 88.1374 0.414818C88.3552 0.522456 88.5671 0.895601 88.5683 1.15393C88.5909 7.71028 88.5921 14.2678 88.5802 20.8242C88.5778 22.1816 87.6267 23.1324 86.3638 23.124C85.1235 23.1168 84.1653 22.1182 84.1617 20.7907C84.1522 17.7218 84.1581 14.6529 84.1581 11.5828C84.1581 11.3664 84.1581 11.1499 84.1581 10.7421H84.1557Z" fill="#B3B8DB"/>
    <path d="M167.667 11.6334C167.727 4.89405 173.253 -0.337148 179.938 0.0611124C181.979 0.183102 183.854 0.833713 185.538 2.01175C186.618 2.76641 186.925 4.02219 186.283 5.03279C185.635 6.05415 184.449 6.30889 183.441 5.64632C181.898 4.63213 180.221 4.13581 178.369 4.31281C176.088 4.53167 174.337 5.6547 173.233 7.63523C171.704 10.374 171.678 13.2133 173.211 15.9568C175.342 19.7708 180.537 20.4908 183.959 17.5032C184.479 17.0488 185.037 16.7402 185.731 16.8251C186.544 16.9244 187.133 17.3633 187.39 18.1682C187.637 18.9396 187.487 19.662 186.887 20.193C184.45 22.3493 181.638 23.5011 178.348 23.2918C172.974 22.9497 168.5 18.7207 167.789 13.2408C167.72 12.7086 167.708 12.1692 167.669 11.6334H167.667Z" fill="#B3B8DB"/>
    <path d="M11.4786 0C13.8129 0.0358793 15.9364 0.703233 17.8576 2.01522C18.9182 2.73998 19.2324 3.98738 18.6265 4.98842C17.9933 6.03729 16.7708 6.31356 15.7495 5.64262C14.2069 4.62962 12.5285 4.13449 10.6764 4.31508C8.42188 4.53514 6.69115 5.64142 5.57463 7.59086C4.09863 10.1694 4.00102 12.8831 5.308 15.5453C7.34345 19.6906 12.6344 20.6282 16.2328 17.5354C16.7696 17.075 17.3326 16.7353 18.054 16.825C18.8717 16.9279 19.4633 17.3763 19.7097 18.1741C19.9525 18.961 19.7859 19.7025 19.1526 20.2443C15.89 23.0321 12.1904 24.1181 8.03741 22.7714C3.82843 21.408 1.18591 18.442 0.268166 14.1113C-1.11499 7.58249 2.98687 1.47823 9.47294 0.226039C10.1312 0.099266 10.8097 0.0729546 11.4774 0H11.4786Z" fill="#B3B8DB"/>
    <path d="M201.5 9.35098C201.57 9.00535 201.619 8.82116 201.642 8.63459C201.772 7.63954 202.477 6.97458 203.372 7.01165C204.26 7.04873 204.98 7.77349 205.062 8.71472C205.069 8.79366 205.068 8.87379 205.068 8.95392C205.068 13.019 205.074 17.0842 205.066 21.1493C205.063 22.4517 204.071 23.3044 202.904 23.0401C202.215 22.8835 201.804 22.4421 201.64 21.7628C201.581 21.5177 201.55 21.2665 201.488 20.9185C200.378 22.4039 198.863 22.9851 197.203 23.2219C194.17 23.6549 191.856 22.4493 190.221 19.9138C188.081 16.5926 188.428 12.03 190.983 9.18833C193.696 6.17327 198.241 6.03095 201.118 8.87498C201.228 8.98501 201.315 9.11896 201.5 9.34859V9.35098ZM193.286 15.1132C193.273 16.0556 193.521 16.9239 194.035 17.7109C195.396 19.7931 198.117 19.9031 199.595 17.901C200.677 16.4359 200.829 14.8022 200.075 13.1578C198.994 10.8041 195.927 10.3125 194.289 12.1914C193.563 13.0238 193.27 14.0189 193.286 15.1132Z" fill="#B3B8DB"/>
    <path d="M103.933 9.25076C103.98 9.00918 104.021 8.83935 104.043 8.66832C104.175 7.63619 104.894 6.95808 105.804 7.01429C106.742 7.07169 107.453 7.84669 107.47 8.85968C107.485 9.7758 107.473 10.6931 107.473 11.6092C107.473 14.7977 107.479 17.985 107.47 21.1735C107.466 22.4627 106.456 23.3107 105.288 23.0344C104.599 22.8705 104.199 22.4185 104.039 21.7415C103.982 21.5 103.952 21.2512 103.909 21.0012C101.858 23.1349 99.3886 23.7986 96.6592 23.0332C93.6691 22.1948 92.0717 19.9213 91.461 16.9851C90.7909 13.7656 91.5098 10.8617 94.0071 8.60733C96.7889 6.09697 100.863 6.25604 103.538 8.88599C103.646 8.99243 103.761 9.09289 103.933 9.25196V9.25076ZM99.2553 19.334C100.133 19.3328 100.891 19.0195 101.522 18.4263C102.739 17.2794 103.093 15.8382 102.839 14.2272C102.566 12.4907 101.122 11.1536 99.4541 11.0495C97.8197 10.9467 96.3806 12.0063 95.8843 13.7141C95.5069 15.013 95.6224 16.2831 96.2878 17.4683C96.9341 18.6212 97.8923 19.3149 99.2553 19.334Z" fill="#B3B8DB"/>
    <path d="M127.942 16.033C127.942 17.6069 127.963 19.1808 127.936 20.7535C127.91 22.3286 126.553 23.4014 125.126 22.99C124.299 22.7508 123.776 22.1815 123.564 21.3431C123.506 21.1135 123.485 20.8695 123.485 20.6327C123.48 14.654 123.476 8.67535 123.485 2.69666C123.487 1.33684 124.293 0.370489 125.457 0.267635C126.893 0.140861 127.935 1.12874 127.94 2.66078C127.951 6.14825 127.944 9.63572 127.944 13.1232C127.944 13.3325 127.944 13.5418 127.944 13.7499C128.002 13.7822 128.06 13.8133 128.119 13.8456C128.229 13.6889 128.326 13.5179 128.454 13.3755C129.916 11.7478 131.377 10.1201 132.849 8.50313C133.195 8.12161 133.554 7.7389 133.96 7.42795C134.803 6.78092 135.827 6.92444 136.565 7.7401C137.302 8.55456 137.347 9.6716 136.652 10.4466C135.563 11.6605 134.459 12.8601 133.362 14.0668C133.177 14.2701 132.995 14.477 132.789 14.7091C134.125 16.332 135.441 17.9238 136.747 19.5252C137.567 20.5323 137.427 21.7653 136.418 22.5786C135.506 23.3129 134.479 23.2603 133.592 22.3537C132.912 21.6589 132.303 20.8934 131.667 20.1555C130.578 18.889 129.492 17.6189 128.407 16.3499C128.295 16.2196 128.192 16.0808 128.086 15.9457C128.039 15.9744 127.991 16.0043 127.945 16.033H127.942Z" fill="#B3B8DB"/>
    <path d="M142.53 16.4455C142.474 18.1139 143.587 19.2932 145.401 19.5192C146.721 19.6831 148.009 19.524 149.225 18.9344C150.266 18.4309 151.258 18.6832 151.773 19.5623C152.298 20.4592 152.038 21.4053 151.086 22.1025C150.078 22.8404 148.925 23.1633 147.707 23.2937C146.052 23.4695 144.413 23.393 142.835 22.8309C139.985 21.8143 138.493 19.6998 138.088 16.7481C137.884 15.2711 137.978 13.8048 138.346 12.3637C139.21 8.98385 141.701 6.98777 145.175 6.87534C149.931 6.71987 153.117 9.74808 153.243 14.5463C153.272 15.6622 152.545 16.4372 151.414 16.4432C148.698 16.4563 145.982 16.4479 143.265 16.4479C143.031 16.4479 142.796 16.4479 142.529 16.4479L142.53 16.4455ZM148.896 13.5477C149.003 12.2058 147.552 11.0732 145.728 11.0517C144.078 11.0326 142.456 11.9774 142.526 13.5477H148.896Z" fill="#B3B8DB"/>
    <path d="M21.1533 15.0731C21.1402 10.5738 24.8255 6.87943 29.3392 6.86867C33.7017 6.8591 37.2572 10.5152 37.2667 15.0216C37.2763 19.5245 33.672 23.3528 29.4106 23.3648C24.8981 23.3779 21.1676 19.6321 21.1545 15.0731H21.1533ZM25.5908 15.3828C25.6182 16.3719 26.0134 17.4866 26.9466 18.368C28.5309 19.8642 30.8152 19.6094 32.0365 17.8011C32.6721 16.8599 32.9197 15.8014 32.8102 14.682C32.6566 13.1069 31.9853 11.8487 30.42 11.2878C27.9751 10.4123 25.5849 12.3175 25.5908 15.3828Z" fill="#B3B8DB"/>
    <path d="M52.0636 8.75908C53.6526 7.21269 55.5345 6.68526 57.6259 6.90412C60.7351 7.23063 62.7646 9.28531 63.1967 12.4881C63.2705 13.0395 63.3145 13.598 63.3181 14.1541C63.3312 16.3452 63.3288 18.5374 63.3216 20.7296C63.3169 22.1002 62.3706 23.118 61.116 23.124C59.8483 23.1299 58.9067 22.1468 58.8936 20.7559C58.877 18.7838 58.9055 16.8104 58.8794 14.8382C58.8698 14.1458 58.8127 13.4437 58.6794 12.7644C58.5115 11.9105 57.9342 11.3902 57.0986 11.1534C54.8882 10.5291 53.3693 11.5182 53.0587 13.8001C53.0075 14.1733 52.9884 14.5536 52.9873 14.9315C52.9801 16.8642 52.9908 18.7969 52.9813 20.7296C52.9742 22.1181 52.0457 23.1168 50.7828 23.1228C49.5163 23.1287 48.564 22.1301 48.5604 20.7547C48.5521 16.8295 48.5545 12.9043 48.5604 8.97914C48.5616 7.93864 49.1342 7.21508 50.0162 7.09787C50.978 6.9699 51.6279 7.45427 51.9481 8.53544C51.9636 8.58926 52.0005 8.63709 52.0648 8.76028L52.0636 8.75908Z" fill="#B3B8DB"/>
    <path d="M157.365 11.003C156.947 11.003 156.614 11.0126 156.281 11.0018C155.098 10.9623 154.169 10.033 154.19 8.92079C154.213 7.77146 155.121 6.88763 156.309 6.8661C156.625 6.86012 156.941 6.8661 157.355 6.8661C157.355 6.38891 157.355 5.94042 157.355 5.49192C157.355 4.55548 157.348 3.61903 157.358 2.68377C157.372 1.33232 158.287 0.361184 159.543 0.348029C160.806 0.334873 161.765 1.33471 161.778 2.7041C161.79 4.05675 161.781 5.4094 161.781 6.8661C162.338 6.8661 162.862 6.86371 163.387 6.8661C164.708 6.87328 165.593 7.69013 165.61 8.91122C165.626 10.0833 164.68 10.9874 163.414 11.0042C162.901 11.0114 162.388 11.0042 161.868 11.0042C161.832 11.1202 161.789 11.1943 161.789 11.2661C161.814 13.4356 161.812 15.6075 161.884 17.7758C161.926 19.0423 162.285 19.3246 163.541 19.3354C164.759 19.3449 165.501 19.7922 165.805 20.7012C166.206 21.8971 165.393 23.2211 164.102 23.2964C163.101 23.355 162.077 23.3 161.084 23.1481C159.419 22.8934 158.323 21.8541 157.869 20.2491C157.591 19.2636 157.423 18.2219 157.386 17.1993C157.312 15.1734 157.365 13.1414 157.365 11.0018V11.003Z" fill="#B3B8DB"/>
    <path d="M114.918 8.75839C115.259 8.49408 115.565 8.24771 115.882 8.01449C117.011 7.1809 118.287 6.82689 119.678 6.86994C120.822 6.90582 121.693 7.79085 121.731 8.93659C121.767 10.007 120.899 10.9171 119.758 11.0008C119.343 11.0319 118.921 11.0128 118.514 11.0834C116.846 11.3764 115.966 12.3738 115.939 14.0757C115.903 16.2859 115.929 18.4972 115.912 20.7074C115.901 22.1653 114.877 23.1938 113.543 23.1221C112.335 23.0575 111.459 22.0469 111.454 20.6655C111.443 17.7175 111.45 14.7706 111.45 11.8225C111.45 10.8466 111.428 9.86945 111.459 8.89473C111.497 7.68679 112.374 6.913 113.483 7.10555C114.358 7.25744 114.752 7.89489 114.919 8.75839H114.918Z" fill="#B3B8DB"/>
    <path d="M44.4555 15.1697C44.4555 17.0222 44.4698 18.8748 44.4507 20.7262C44.4364 22.0537 43.5925 23.0272 42.4284 23.1169C41.1547 23.2162 40.0239 22.2044 40.0168 20.8697C39.9942 17.0258 39.9977 13.182 40.0144 9.33809C40.0204 8.03088 40.9786 7.08367 42.2153 7.07889C43.4485 7.07291 44.415 7.995 44.4412 9.31416C44.4805 11.2648 44.4519 13.2178 44.4519 15.1697C44.4531 15.1697 44.4555 15.1697 44.4567 15.1697H44.4555Z" fill="#B3B8DB"/>
    <path d="M42.2688 5.32546C40.8344 5.32546 39.6596 4.14144 39.6667 2.70149C39.6727 1.23761 40.8332 0.0440276 42.2438 0.0476155C43.6757 0.0512034 44.8732 1.29263 44.8518 2.74813C44.8292 4.18091 43.6817 5.32546 42.27 5.32546H42.2688Z" fill="#B3B8DB"/>
</svg>