<svg width="213" height="54" viewBox="0 0 213 54" fill="none" xmlns="http://www.w3.org/2000/svg">
<path d="M64.9992 17.6717C69.4912 17.6717 72.45 19.985 73.4991 23.8314H70.1637C69.3567 21.5989 67.6353 20.496 64.9992 20.496C63.1702 20.496 61.6908 21.1416 60.5342 22.4596C59.3775 23.7507 58.8127 25.4184 58.8127 27.4358C58.8127 29.4531 59.3775 31.0939 60.5342 32.4119C61.6908 33.7299 63.1971 34.3755 65.053 34.3755C67.8236 34.3755 69.5719 33.0306 70.3251 30.9056H73.5529C72.4769 34.9134 69.5719 37.1998 65.053 37.1998C62.3094 37.1998 60.05 36.2852 58.2747 34.4293C56.5263 32.5733 55.6387 30.2601 55.6387 27.4358C55.6387 24.6115 56.5263 22.2982 58.2747 20.4422C60.0231 18.5863 62.2825 17.6717 64.9992 17.6717ZM83.6779 23.1052V25.9833C82.5751 25.9833 81.6605 26.2791 80.9612 26.8978C80.1811 27.5434 79.8046 28.5117 79.7777 29.7759V36.8501H76.9265V23.2397H79.428L79.6701 25.5529C80.1811 24.1542 81.526 23.1052 83.6779 23.1052ZM95.2561 23.2397H98.3224L91.1137 42.6332H88.1281L90.3068 36.6618L85.3306 23.2397H88.397L91.5441 32.3581L91.8131 33.4609L92.0821 32.3581L95.2561 23.2397ZM108.563 22.9438C110.419 22.9438 111.952 23.6162 113.136 24.988C114.319 26.3329 114.911 28.0275 114.911 30.0449C114.911 32.0622 114.319 33.7568 113.109 35.1286C111.925 36.4735 110.419 37.146 108.563 37.146C106.546 37.146 105.013 36.3121 104.259 35.1555V42.6332H101.381V23.2397H103.883L104.071 25.1763C105.066 23.6969 106.573 22.9438 108.563 22.9438ZM108.052 25.6336C107.003 25.6336 106.115 26.0371 105.335 26.8171C104.555 27.5971 104.179 28.6462 104.179 29.9373V30.0987C104.206 31.4167 104.582 32.4657 105.335 33.2726C106.115 34.0527 107.003 34.4562 108.025 34.4562C109.155 34.4562 110.096 34.0527 110.822 33.2189C111.576 32.385 111.952 31.336 111.952 30.0449C111.952 27.4358 110.338 25.6336 108.052 25.6336ZM119.113 19.9043H121.992L121.965 23.2397H125.273V25.8757H121.938L121.884 32.3312C121.884 33.8375 122.341 34.4293 123.74 34.4293C124.332 34.4293 124.843 34.3486 125.273 34.2141V36.7425C124.762 36.9308 124.063 37.0384 123.175 37.0384C120.378 37.0384 119.006 35.7742 119.033 32.9499L119.087 25.8757H116.693V23.2397H119.087L119.113 19.9043ZM129.557 24.9342C130.875 23.6162 132.543 22.9438 134.587 22.9438C136.632 22.9438 138.299 23.6162 139.617 24.9342C140.935 26.2522 141.608 27.9737 141.608 30.0449C141.608 32.116 140.935 33.8375 139.617 35.1555C138.299 36.4735 136.632 37.146 134.587 37.146C132.543 37.146 130.875 36.4735 129.557 35.1555C128.239 33.8375 127.594 32.116 127.594 30.0449C127.594 27.9737 128.239 26.2522 129.557 24.9342ZM137.519 26.844C136.793 26.0102 135.825 25.5798 134.614 25.5798C133.404 25.5798 132.436 26.0102 131.682 26.844C130.929 27.6778 130.553 28.7538 130.553 30.0449C130.553 31.336 130.929 32.4119 131.682 33.2458C132.436 34.0796 133.404 34.51 134.614 34.51C135.825 34.51 136.793 34.0796 137.519 33.2458C138.272 32.4119 138.649 31.336 138.649 30.0449C138.649 28.7538 138.272 27.6778 137.519 26.844ZM157.42 18.0214H160.433V36.8501H157.447L148.813 24.3156L148.087 23.1321V36.8501H145.074V18.0214H148.033L156.613 30.529L157.42 31.7933V18.0214ZM170.512 22.9438C174.251 22.9438 176.753 25.4184 176.753 29.9373V31.0401H166.827C166.962 33.2189 168.468 34.6176 170.593 34.6176C172.261 34.6176 173.337 33.972 173.848 32.6809H176.645C175.784 35.5052 173.659 37.146 170.512 37.146C168.549 37.146 166.935 36.5004 165.698 35.2093C164.487 33.9182 163.869 32.1967 163.869 30.0718C163.869 28.0006 164.487 26.2791 165.698 24.9611C166.908 23.6162 168.522 22.9438 170.512 22.9438ZM170.485 25.4453C168.441 25.4453 167.042 26.844 166.854 28.8076H173.875C173.848 26.7633 172.503 25.4453 170.485 25.4453ZM195.684 23.2397H198.75L194.527 36.8501H191.595L188.663 27.9199L185.678 36.8501H182.853L178.63 23.2397H181.697L184.171 32.1429L184.44 33.4878L184.736 32.1429L187.453 23.2397H189.928L192.644 32.1429L192.94 33.4878L193.209 32.1429L195.684 23.2397ZM205.674 22.9438C207.046 22.9438 208.149 23.3472 209.009 24.1273C209.897 24.9073 210.354 25.9564 210.381 27.2475H207.53C207.503 26.0102 206.858 25.3915 205.62 25.3915C204.464 25.3915 203.818 26.0371 203.818 26.9785C203.818 27.9468 204.356 28.3503 206.293 28.7807C209.521 29.4262 210.731 30.6097 210.731 32.8692C210.731 35.5859 208.66 37.146 205.755 37.146C202.554 37.146 200.698 35.4514 200.617 32.7347H203.495C203.522 33.9989 204.383 34.7251 205.809 34.7251C207.127 34.7251 207.853 34.1065 207.853 33.1382C207.853 32.0891 207.261 31.605 205.19 31.1746C202.258 30.5559 200.94 29.3993 200.94 27.2206C200.94 26.0371 201.343 25.0418 202.177 24.208C203.011 23.3741 204.195 22.9438 205.674 22.9438Z" fill="#B3B8DB"/>
<rect x="34.6124" y="33.75" width="8.775" height="6.75" fill="#B3B8DB"/>
<rect x="34.6124" y="13.5" width="8.775" height="6.75" fill="#B3B8DB"/>
<rect x="14.3624" y="40.5" width="20.25" height="13.5" fill="#B3B8DB"/>
<rect x="14.3624" width="20.25" height="13.5" fill="#B3B8DB"/>
<rect x="0.862427" y="13.5" width="13.5" height="27" fill="#B3B8DB"/>
</svg>
