<svg width="122" height="31" viewBox="0 0 122 31" fill="none" xmlns="http://www.w3.org/2000/svg">
<path d="M36.9676 9.51535C39.5463 9.51535 41.2449 10.8433 41.8471 13.0515H39.9324C39.4691 11.7698 38.4809 11.1367 36.9676 11.1367C35.9176 11.1367 35.0683 11.5073 34.4043 12.2639C33.7403 13.0051 33.4161 13.9625 33.4161 15.1206C33.4161 16.2787 33.7403 17.2207 34.4043 17.9773C35.0683 18.7339 35.933 19.1045 36.9985 19.1045C38.589 19.1045 39.5927 18.3325 40.025 17.1126H41.878C41.2603 19.4134 39.5927 20.7259 36.9985 20.7259C35.4235 20.7259 34.1264 20.2009 33.1072 19.1354C32.1035 18.0699 31.594 16.742 31.594 15.1206C31.594 13.4993 32.1035 12.1713 33.1072 11.1058C34.1109 10.0404 35.408 9.51535 36.9676 9.51535ZM47.6905 12.6345V14.2868C47.0574 14.2868 46.5324 14.4566 46.1309 14.8118C45.6831 15.1824 45.4669 15.7383 45.4515 16.464V20.5251H43.8147V12.7117H45.2508L45.3897 14.0397C45.6831 13.2368 46.4552 12.6345 47.6905 12.6345ZM54.3372 12.7117H56.0976L51.9593 23.8451H50.2452L51.496 20.4171L48.6393 12.7117H50.3997L52.2063 17.9464L52.3607 18.5795L52.5152 17.9464L54.3372 12.7117ZM61.9765 12.5419C63.0419 12.5419 63.9221 12.9279 64.6015 13.7154C65.2809 14.4875 65.6206 15.4603 65.6206 16.6184C65.6206 17.7766 65.2809 18.7494 64.5861 19.5369C63.9066 20.309 63.0419 20.695 61.9765 20.695C60.8183 20.695 59.9382 20.2163 59.5058 19.5523V23.8451H57.8536V12.7117H59.2896L59.3977 13.8235C59.9691 12.9742 60.8338 12.5419 61.9765 12.5419ZM61.6831 14.086C61.0808 14.086 60.5713 14.3177 60.1235 14.7655C59.6757 15.2133 59.4595 15.8155 59.4595 16.5567V16.6493C59.4749 17.406 59.6911 18.0082 60.1235 18.4714C60.5713 18.9192 61.0808 19.1509 61.6676 19.1509C62.3162 19.1509 62.8566 18.9192 63.2735 18.4405C63.7059 17.9619 63.9221 17.3596 63.9221 16.6184C63.9221 15.1206 62.9956 14.086 61.6831 14.086ZM68.0331 10.797H69.6854L69.6699 12.7117H71.5693V14.225H69.6545L69.6236 17.931C69.6236 18.7957 69.8861 19.1354 70.6891 19.1354C71.0288 19.1354 71.3222 19.0891 71.5693 19.0119V20.4634C71.2759 20.5715 70.8744 20.6332 70.3648 20.6332C68.7589 20.6332 67.9714 19.9075 67.9868 18.2861L68.0177 14.225H66.6434V12.7117H68.0177L68.0331 10.797ZM74.0288 13.6846C74.7854 12.9279 75.7428 12.5419 76.9164 12.5419C78.0899 12.5419 79.0473 12.9279 79.8039 13.6846C80.5605 14.4412 80.9466 15.4294 80.9466 16.6184C80.9466 17.8074 80.5605 18.7957 79.8039 19.5523C79.0473 20.309 78.0899 20.695 76.9164 20.695C75.7428 20.695 74.7854 20.309 74.0288 19.5523C73.2722 18.7957 72.9016 17.8074 72.9016 16.6184C72.9016 15.4294 73.2722 14.4412 74.0288 13.6846ZM78.5995 14.7809C78.1826 14.3022 77.6267 14.0552 76.9318 14.0552C76.2369 14.0552 75.681 14.3022 75.2487 14.7809C74.8163 15.2596 74.6001 15.8773 74.6001 16.6184C74.6001 17.3596 74.8163 17.9773 75.2487 18.456C75.681 18.9347 76.2369 19.1817 76.9318 19.1817C77.6267 19.1817 78.1826 18.9347 78.5995 18.456C79.0318 17.9773 79.248 17.3596 79.248 16.6184C79.248 15.8773 79.0318 15.2596 78.5995 14.7809ZM90.0241 9.71609H91.7536V20.5251H90.0396L85.0829 13.3294L84.6659 12.65V20.5251H82.9365V9.71609H84.6351L89.5609 16.8964L90.0241 17.6221V9.71609ZM97.5399 12.5419C99.6863 12.5419 101.122 13.9625 101.122 16.5567V17.1898H95.4245C95.5017 18.4405 96.3664 19.2435 97.5863 19.2435C98.5436 19.2435 99.1613 18.8729 99.4547 18.1317H101.061C100.566 19.7531 99.3466 20.695 97.5399 20.695C96.4127 20.695 95.4862 20.3244 94.7759 19.5832C94.081 18.842 93.7259 17.8538 93.7259 16.6339C93.7259 15.4449 94.081 14.4566 94.7759 13.7C95.4708 12.9279 96.3973 12.5419 97.5399 12.5419ZM97.5245 13.9779C96.3509 13.9779 95.548 14.7809 95.4399 15.9081H99.4701C99.4547 14.7346 98.6826 13.9779 97.5245 13.9779ZM111.99 12.7117H113.751L111.326 20.5251H109.643L107.96 15.3986L106.246 20.5251H104.625L102.2 12.7117H103.961L105.381 17.8229L105.536 18.595L105.705 17.8229L107.265 12.7117H108.686L110.245 17.8229L110.415 18.595L110.57 17.8229L111.99 12.7117ZM117.725 12.5419C118.513 12.5419 119.146 12.7735 119.64 13.2213C120.15 13.6691 120.412 14.2713 120.428 15.0125H118.791C118.775 14.3022 118.405 13.9471 117.694 13.9471C117.031 13.9471 116.66 14.3177 116.66 14.8581C116.66 15.414 116.969 15.6456 118.081 15.8927C119.934 16.2633 120.628 16.9427 120.628 18.2398C120.628 19.7994 119.439 20.695 117.772 20.695C115.934 20.695 114.869 19.7222 114.822 18.1626H116.475C116.49 18.8883 116.984 19.3053 117.803 19.3053C118.559 19.3053 118.976 18.9501 118.976 18.3942C118.976 17.792 118.636 17.5141 117.447 17.267C115.764 16.9118 115.008 16.2478 115.008 14.9971C115.008 14.3177 115.239 13.7463 115.718 13.2676C116.197 12.7889 116.876 12.5419 117.725 12.5419Z" fill="#6A56F6"/>
<rect x="19.375" y="19.375" width="5.0375" height="3.875" fill="#6A56F6"/>
<rect x="19.375" y="7.75" width="5.0375" height="3.875" fill="#6A56F6"/>
<rect x="7.74988" y="23.25" width="11.625" height="7.75" fill="#6A56F6"/>
<rect x="7.74988" width="11.625" height="7.75" fill="#6A56F6"/>
<rect y="7.75" width="7.75" height="15.5" fill="#6A56F6"/>
</svg>
