<svg xmlns="http://www.w3.org/2000/svg" width="91" height="16" viewBox="0 0 91 16" fill="none">
    <g clip-path="url(#clip0_2847_521)">
        <path d="M-0.292236 15.1315L1.06824 14.7217V2.57202C1.06843 2.15718 0.936103 1.75338 0.690965 1.4207C0.445828 1.08803 0.100984 0.844281 -0.292236 0.725738V0.624023H10.6278V4.81031H10.5272L10.3237 4.27717C9.45098 1.98002 7.96898 1.04117 5.20846 1.04117C5.20846 7.46802 5.05189 7.42574 5.02081 12.608C5.01816 13.1659 5.19002 13.7104 5.51181 14.1636C5.83361 14.6168 6.28888 14.9555 6.81255 15.1315V15.2337H-0.292236V15.1315Z" fill="#6A56F6"/>
        <path d="M9.08133 6.58861C8.60937 8.14975 6.20664 8.54632 5.06433 8.54975V8.84404C8.0419 8.72632 8.98298 10.1355 9.08133 10.8543H9.28368V6.58804L9.08133 6.58861ZM11.7119 15.1349L13.0718 14.724V1.14632L11.7119 0.736036V0.633179H18.5702V0.736036L17.2103 1.14632V14.724L18.5702 15.1349V15.2372H11.7113L11.7119 15.1349ZM20.9481 2.48518L20.9351 5.30975C21.1176 12.4475 22.8093 14.4372 25.7304 15.0726L26.0141 15.1343V15.2372H19.1778V15.1343L20.5372 14.724V2.11089L19.1778 0.716036V0.634322H24.8175L33.3128 9.53032L33.2919 7.66975C33.2512 2.80861 31.8975 1.08575 29.8887 0.778322L29.6253 0.738322V0.635464H35.0819L35.9625 1.15489L33.7225 1.14804V15.752H33.6615L20.9481 2.48518Z" fill="#6A56F6"/>
        <path d="M34.5856 15.3348L35.9631 14.9188V1.15366L34.5851 0.737655V0.634798H41.31C45.7323 0.634798 47.1103 1.92394 47.1103 3.2748C47.1103 4.7308 45.4853 5.89823 43.3878 6.20966V6.27251C45.6091 6.52223 48.4063 7.64223 48.4063 10.7394C48.4063 13.3594 46.432 15.4394 42.38 15.4394H34.5856V15.3348ZM41.1054 7.11766C42.3602 7.11766 43.4912 6.41308 43.4912 4.06394C43.4912 1.7148 42.3608 1.05251 41.0642 1.05251H40.1191V7.11766H41.1054ZM41.3722 15.0199C43.1617 15.0199 44.2718 13.9834 44.2718 11.5297C44.2718 8.78566 42.7706 7.53766 41.1461 7.53766H40.1174V15.0199H41.3722ZM49.742 8.28508C49.742 3.56508 53.1146 0.321655 58.5446 0.321655C63.665 0.321655 67.0585 3.1708 67.0585 7.76566C67.0585 12.3605 63.7068 15.7497 58.2558 15.7497C53.1146 15.7497 49.742 12.9011 49.742 8.28508ZM58.8538 15.2897C60.8072 15.2897 62.4735 13.5051 62.4735 8.7428C62.4735 3.21137 60.19 0.781655 57.9489 0.781655C55.9955 0.781655 54.3293 2.58737 54.3293 7.30737C54.3293 12.8799 56.6127 15.2897 58.8538 15.2897ZM89.3354 15.4634L67.3253 15.4382V15.3348L68.7033 14.9188V1.15366L67.3253 0.737655V0.634798H74.4826V0.737655L72.8989 1.15366V14.1862L83.6968 14.2039H85.6706L85.6553 15.4657L89.3354 15.4634Z" fill="#6A56F6"/>
        <path d="M75.8702 12.4931L77.2499 12.1817V1.01308L75.8702 0.701655V0.624512H83.655C87.4922 0.624512 90.0482 3.2668 90.0482 6.60737C90.0482 9.94794 87.7585 12.5691 84.4791 12.5691H75.8702V12.4919V12.4931ZM82.069 12.2222C84.3768 12.2222 86.3861 10.8234 86.3861 6.7628C86.3861 2.70165 84.2739 0.971369 81.4523 0.971369V12.2228H82.0701L82.069 12.2222ZM90.3426 15.4771L84.8075 15.4554L84.8368 14.2039C85.5648 14.2039 87.4747 14.3154 89.0308 13.1417C90.3489 12.1479 90.6998 11.0971 90.8886 10.6171C90.9412 10.4834 91.1102 10.0885 91.1102 10.0885H91.23L90.3426 15.4788V15.4771Z" fill="#6A56F6"/>
    </g>
    <defs>
        <clipPath id="clip0_2847_521">
            <rect width="91" height="16" fill="white"/>
        </clipPath>
    </defs>
</svg>