<svg xmlns="http://www.w3.org/2000/svg" width="193" height="34" viewBox="0 0 193 34" fill="none">
    <g clip-path="url(#clip0_2847_549)">
        <path d="M-0.619873 32.1543L2.26554 31.2837V5.46555C2.26593 4.58402 1.98529 3.72592 1.46538 3.01899C0.945472 2.31206 0.214099 1.7941 -0.619873 1.54219V1.32605H22.5401V10.2219H22.3267L21.8952 9.08898C20.0443 4.20755 16.9012 2.21248 11.0464 2.21248C11.0464 15.8696 10.7144 15.7797 10.6485 26.7921C10.6428 27.9775 11.0073 29.1345 11.6898 30.0976C12.3723 31.0606 13.3379 31.7805 14.4485 32.1543V32.3717H-0.619873V32.1543Z" fill="#B3B8DB"/>
        <path d="M19.2605 14.0007C18.2596 17.3182 13.1637 18.1609 10.741 18.1682V18.7935C17.056 18.5434 19.052 21.5378 19.2605 23.0654H19.6897V13.9995L19.2605 14.0007ZM24.8396 32.1616L27.7238 31.2885V2.43589L24.8396 1.56403V1.34546H39.3853V1.56403L36.5011 2.43589V31.2885L39.3853 32.1616V32.379H24.8384L24.8396 32.1616ZM44.4285 5.28096L44.4009 11.2832C44.7881 26.4508 48.376 30.679 54.5711 32.0292L55.1729 32.1604V32.379H40.6739V32.1604L43.557 31.2885V4.4856L40.6739 1.52153V1.34789H52.6352L70.6525 20.2519L70.6081 16.2982C70.5218 5.96825 67.6508 2.30717 63.3904 1.65389L62.8318 1.56889V1.35032H74.4046L76.2723 2.4541L71.5216 2.43953V33.473H71.3921L44.4285 5.28096Z" fill="#B3B8DB"/>
        <path d="M73.352 32.5865L76.2734 31.7025V2.45159L73.3508 1.56759V1.34902H87.6136C96.9927 1.34902 99.9153 4.08845 99.9153 6.95902C99.9153 10.053 96.4689 12.5338 92.0203 13.1956V13.3292C96.7314 13.8598 102.664 16.2398 102.664 22.8212C102.664 28.3887 98.4768 32.8087 89.8829 32.8087H73.352V32.5865ZM87.1797 15.1251C89.8409 15.1251 92.2397 13.6279 92.2397 8.63595C92.2397 3.64402 89.8421 2.23667 87.0922 2.23667H85.0879V15.1251H87.1797ZM87.7455 31.9175C91.5408 31.9175 93.8951 29.7147 93.8951 24.5006C93.8951 18.6696 90.7112 16.0176 87.266 16.0176H85.0843V31.9175H87.7455ZM105.497 17.6059C105.497 7.57588 112.65 0.683594 124.166 0.683594C135.026 0.683594 142.223 6.73802 142.223 16.5021C142.223 26.2662 135.114 33.4681 123.554 33.4681C112.65 33.4681 105.497 27.4149 105.497 17.6059ZM124.822 32.4906C128.965 32.4906 132.499 28.6984 132.499 18.5785C132.499 6.82424 127.656 1.66109 122.903 1.66109C118.76 1.66109 115.226 5.49824 115.226 15.5282C115.226 27.37 120.069 32.4906 124.822 32.4906ZM189.47 32.8597L142.789 32.8063V32.5865L145.711 31.7025V2.45159L142.789 1.56759V1.34902H157.969V1.56759L154.61 2.45159V30.1458L177.511 30.1835H181.697L181.665 32.8646L189.47 32.8597Z" fill="#B3B8DB"/>
        <path d="M160.912 26.548L163.838 25.8862V2.15298L160.912 1.4912V1.32727H177.422C185.56 1.32727 190.981 6.94213 190.981 14.0408C190.981 21.1396 186.125 26.7095 179.17 26.7095H160.912V26.5456V26.548ZM174.058 25.9724C178.953 25.9724 183.215 22.9998 183.215 14.3711C183.215 5.7412 178.735 2.06434 172.751 2.06434V25.9736H174.061L174.058 25.9724ZM191.606 32.889L179.866 32.8428L179.929 30.1836C181.473 30.1836 185.523 30.4203 188.824 27.9262C191.619 25.8146 192.363 23.5815 192.764 22.5615C192.875 22.2773 193.234 21.4383 193.234 21.4383H193.488L191.606 32.8926V32.889Z" fill="#B3B8DB"/>
    </g>
    <defs>
        <clipPath id="clip0_2847_549">
            <rect width="193" height="34" fill="white"/>
        </clipPath>
    </defs>
</svg>