<svg xmlns="http://www.w3.org/2000/svg" width="80" height="28" viewBox="0 0 80 28" fill="none">
    <g clip-path="url(#clip0_2847_410)">
        <path fill-rule="evenodd" clip-rule="evenodd" d="M4.1318 5.22092L3.38808 12.809H0L1.66925 0.268555H5.88369L7.85043 7.23545H7.88348L9.80064 0.268555H13.8829L15.5686 12.809H12.1475L11.4534 5.22092H11.3873L9.27177 12.809H6.24729L4.19791 5.22092H4.1318Z" fill="#6A56F6"/>
        <path fill-rule="evenodd" clip-rule="evenodd" d="M28.4621 12.809H24.7105L23.9006 10.3412H19.8184L19.0416 12.809H15.306L19.7518 0.268603H23.9332L28.4621 12.809ZM20.7439 7.40337H22.942L21.8343 3.97868L20.7439 7.40337ZM28.7936 12.809V0.268603H33.1898C36.2804 0.268603 38.429 1.66198 38.429 4.6334C38.429 5.80854 37.9166 7.52088 35.8673 8.39384L39.0735 12.809H34.826L32.4792 8.93105H32.3965V12.809H28.7936ZM32.3965 6.19466H33.1733C34.0823 6.19466 34.793 5.75818 34.793 4.88522C34.793 3.99547 34.0823 3.57578 33.1568 3.57578H32.3965V6.19466ZM51.193 0.268603L46.929 6.39611L51.3252 12.809H47.1108L43.2269 7.05083V12.809H39.624V0.268603H43.2269V5.92605L47.0612 0.268603H51.193ZM51.5199 12.809V0.268603H60.048V3.52541H55.1228V5.03631H59.5521V7.99094H55.1228V9.5522H60.048V12.809H51.5199ZM63.8804 12.809V3.57578H60.4758V0.268603H70.8714V3.57578H67.4834V12.809H63.8804ZM75.7855 0C77.1242 0 78.3307 0.352541 79.2232 0.87296V4.0962C78.4464 3.5422 77.1242 3.15609 76.05 3.15609C75.0749 3.15609 74.579 3.47505 74.579 3.89474C74.579 4.33122 75.1245 4.53268 76.0996 4.88522C77.7523 5.47279 80 6.26181 80 8.93105C80 11.3149 78.2316 13.0776 75.1245 13.0776C73.5213 13.0776 72.0504 12.6076 71.1414 11.9864V8.5953C72.0339 9.33396 73.3891 9.92153 74.6947 9.92153C75.8021 9.92153 76.3144 9.50183 76.3144 9.03178C76.3144 8.42742 75.4715 8.15882 74.4634 7.78949C73.1412 7.30265 71.0422 6.42969 71.0422 3.99547C71.0422 1.79628 72.7445 0 75.7855 0ZM8.2948 27.7314V15.191H11.8977V27.7314H8.2948ZM24.7004 15.191V27.7314H21.2627L16.8169 20.9995H16.8004V27.7314H13.3792V15.191H16.8169L21.2627 21.8053H21.2792V15.191H24.7004ZM30.5914 14.9224C31.9301 14.9224 33.1366 15.2749 34.0291 15.7954V19.0186C33.2518 18.4646 31.9296 18.0785 30.8554 18.0785C29.8803 18.0785 29.3844 18.3974 29.3844 18.8171C29.3844 19.2536 29.9298 19.4551 30.905 19.8076C32.5577 20.3952 34.8054 21.1842 34.8054 23.8534C34.8054 26.2373 33.037 28 29.9298 28C28.3267 28 26.8558 27.5299 25.9468 26.9088V23.5177C26.8393 24.2563 28.1945 24.8439 29.5001 24.8439C30.6075 24.8439 31.1198 24.4242 31.1198 23.9542C31.1198 23.3498 30.2769 23.0812 29.2688 22.7119C27.9466 22.225 25.8476 21.3521 25.8476 18.9179C25.8476 16.7187 27.5504 14.9224 30.5914 14.9224ZM35.7346 27.7314V15.191H39.3375V27.7314H35.7346ZM44.9838 15.191C49.0165 15.191 51.8261 17.6924 51.8261 21.4696C51.8261 25.2468 49.0165 27.7314 44.9838 27.7314H40.819V15.191H44.9838ZM44.4219 24.4242H45.1161C46.9836 24.4242 48.1901 23.3498 48.1901 21.4696C48.1901 19.5726 46.9836 18.4982 45.1161 18.4982H44.4219V24.4242ZM52.7149 27.7314V15.191H61.243V18.4478H56.3178V19.9587H60.7471V22.9133H56.3178V24.4746H61.243V27.7314H52.7149ZM62.4476 27.7314V15.191H66.8439C69.9344 15.191 72.083 16.5844 72.083 19.5558C72.083 20.7309 71.5706 22.4433 69.5213 23.3162L72.7275 27.7314H68.48L66.1332 23.8534H66.0505V27.7314H62.4476ZM66.0505 21.117H66.8273C67.7363 21.117 68.447 20.6806 68.447 19.8076C68.447 18.9179 67.7363 18.4982 66.8108 18.4982H66.0505V21.117Z" fill="#6A56F6"/>
    </g>
    <defs>
        <clipPath id="clip0_2847_410">
            <rect width="80" height="28" fill="white"/>
        </clipPath>
    </defs>
</svg>