<svg xmlns="http://www.w3.org/2000/svg" width="168" height="58" viewBox="0 0 168 58" fill="none">
    <g clip-path="url(#clip0_2834_21230)">
        <path fill-rule="evenodd" clip-rule="evenodd" d="M8.67679 10.8149L7.11497 26.5329H0L3.50542 0.556396H12.3557L16.4859 14.9878H16.5553L20.5813 0.556396H29.154L32.6941 26.5329H25.5098L24.0521 10.8149H23.9132L19.4707 26.5329H13.1193L8.81562 10.8149H8.67679Z" fill="#B3B8DB"/>
        <path fill-rule="evenodd" clip-rule="evenodd" d="M59.7705 26.5329H51.892L50.1914 21.4211H41.6187L39.9875 26.5329H32.1427L41.4789 0.556392H50.2598L59.7705 26.5329ZM43.5623 15.3356H48.1784L45.852 8.24156L43.5623 15.3356ZM60.4666 26.5329V0.556392H69.6987C76.189 0.556392 80.7009 3.44268 80.7009 9.59776C80.7009 12.032 79.625 15.579 75.3213 17.3872L82.0545 26.5329H73.1347L68.2063 18.5H68.0328V26.5329H60.4666ZM68.0328 12.8318H69.664C71.5729 12.8318 73.0653 11.9277 73.0653 10.1194C73.0653 8.27633 71.5729 7.40697 69.6293 7.40697H68.0328V12.8318ZM107.505 0.556392L98.551 13.2491L107.783 26.5329H98.9328L90.7766 14.6053V26.5329H83.2104V0.556392H90.7766V12.2754L98.8286 0.556392H107.505ZM108.192 26.5329V0.556392H126.101V7.30264H115.758V10.4324H125.06V16.5527H115.758V19.7867H126.101V26.5329H108.192ZM134.149 26.5329V7.40697H126.999V0.556392H148.83V7.40697H141.715V26.5329H134.149ZM159.15 0C161.961 0 164.495 0.730264 166.369 1.80827V8.48498C164.738 7.33742 161.961 6.53761 159.705 6.53761C157.657 6.53761 156.616 7.19832 156.616 8.06768C156.616 8.97182 157.761 9.38912 159.809 10.1194C163.28 11.3365 168 12.9709 168 18.5C168 23.438 164.286 27.0893 157.761 27.0893C154.395 27.0893 151.306 26.1156 149.397 24.829V17.8045C151.271 19.3346 154.117 20.5517 156.859 20.5517C159.184 20.5517 160.26 19.6824 160.26 18.7087C160.26 17.4568 158.49 16.9004 156.373 16.1354C153.597 15.1269 149.189 13.3186 149.189 8.27633C149.189 3.72087 152.764 0 159.15 0ZM17.4191 57.4436V31.4671H24.9853V57.4436H17.4191ZM51.8708 31.4671V57.4436H44.6517L35.3155 43.499H35.2808V57.4436H28.0964V31.4671H35.3155L44.6517 45.1682H44.6864V31.4671H51.8708ZM64.242 30.9107C67.0533 30.9107 69.5869 31.6409 71.4611 32.7189V39.3956C69.8289 38.2481 67.0523 37.4483 64.7963 37.4483C62.7486 37.4483 61.7074 38.109 61.7074 38.9783C61.7074 39.8825 62.8527 40.2998 64.9005 41.03C68.3712 42.2472 73.0913 43.8815 73.0913 49.4107C73.0913 54.3487 69.3777 58 62.8527 58C59.4861 58 56.3972 57.0263 54.4883 55.7397V48.7152C56.3625 50.2453 59.2085 51.4624 61.9503 51.4624C64.2757 51.4624 65.3517 50.593 65.3517 49.6193C65.3517 48.3675 63.5816 47.8111 61.4645 47.046C58.6879 46.0376 54.2801 44.2293 54.2801 39.187C54.2801 34.6315 57.8559 30.9107 64.242 30.9107ZM75.0427 57.4436V31.4671H82.6088V57.4436H75.0427ZM94.4661 31.4671C102.935 31.4671 108.835 36.6485 108.835 44.4727C108.835 52.297 102.935 57.4436 94.4661 57.4436H85.7199V31.4671H94.4661ZM93.2861 50.593H94.7438C98.6657 50.593 101.199 48.3675 101.199 44.4727C101.199 40.5432 98.6657 38.3176 94.7438 38.3176H93.2861V50.593ZM110.701 57.4436V31.4671H128.61V38.2133H118.268V41.343H127.569V47.4633H118.268V50.6974H128.61V57.4436H110.701ZM131.14 57.4436V31.4671H140.372C146.862 31.4671 151.374 34.3533 151.374 40.5084C151.374 42.9426 150.298 46.4896 145.995 48.2979L152.728 57.4436H143.808L138.88 49.4107H138.706V57.4436H131.14ZM138.706 43.7425H140.337C142.246 43.7425 143.739 42.8383 143.739 41.03C143.739 39.187 142.246 38.3176 140.303 38.3176H138.706V43.7425Z" fill="#B3B8DB"/>
    </g>
    <defs>
        <clipPath id="clip0_2834_21230">
            <rect width="168" height="58" fill="white"/>
        </clipPath>
    </defs>
</svg>