<svg width="232" height="200" viewBox="0 0 232 200" fill="none" xmlns="http://www.w3.org/2000/svg">
<circle cx="21" cy="173" r="20" stroke="url(#paint0_linear_1393_108)" stroke-opacity="0.48" stroke-width="2" stroke-dasharray="6 6"/>
<circle cx="200" cy="53" r="31" stroke="url(#paint1_linear_1393_108)" stroke-opacity="0.48" stroke-width="2" stroke-dasharray="6 6"/>
<g clip-path="url(#clip0_1393_108)">
<rect x="14" width="200" height="200" rx="16" fill="#B9C0D4" fill-opacity="0.02"/>
<path d="M44 54C44 51.7909 45.7909 50 48 50H169C177.837 50 185 57.1634 185 66V154C185 162.837 177.837 170 169 170H48C45.7909 170 44 168.209 44 166V54Z" fill="#4E5BA6" fill-opacity="0.34"/>
<path d="M44 54C44 51.7909 45.7909 50 48 50H169C177.837 50 185 57.1634 185 66V154C185 162.837 177.837 170 169 170H48C45.7909 170 44 168.209 44 166V54Z" fill="url(#paint2_radial_1393_108)" fill-opacity="0.64"/>
<g style="mix-blend-mode:overlay">
<path d="M45 54C45 52.3431 46.3431 51 48 51H169C177.284 51 184 57.7157 184 66V154C184 162.284 177.284 169 169 169H48C46.3431 169 45 167.657 45 166V54Z" stroke="url(#paint3_linear_1393_108)" stroke-width="2"/>
</g>
<circle cx="167" cy="110" r="6" fill="#4E5BA6" fill-opacity="0.34"/>
<path d="M51 50L145.216 27.5265C152.757 25.7276 160 31.4457 160 39.199V50H51Z" fill="#4E5BA6" fill-opacity="0.34"/>
<g style="mix-blend-mode:hard-light" opacity="0.32" filter="url(#filter0_f_1393_108)">
<ellipse cx="159" cy="195.5" rx="55" ry="32.5" fill="#A656F6"/>
</g>
<g opacity="0.64" filter="url(#filter1_f_1393_108)">
<ellipse cx="65" cy="191.5" rx="48" ry="28.5" fill="#4E5BA6"/>
</g>
<g filter="url(#filter2_b_1393_108)">
<circle cx="178" cy="163" r="24" fill="#0F0B21"/>
<circle cx="178" cy="163" r="25" stroke="url(#paint4_linear_1393_108)" stroke-width="2" stroke-miterlimit="10"/>
</g>
<path d="M179.502 165.851H172.391L166.261 160.035V157.982C166.261 157.982 170.673 153.931 172.636 152.167H179.747L173.617 157.888V160.114L179.502 165.851Z" fill="#6A56F6"/>
<path d="M177.05 160.149L184.161 160.149L190.29 165.965V168.018C190.29 168.018 185.878 172.069 183.915 173.833H176.805L182.935 168.112V165.886L177.05 160.149Z" fill="#6A56F6"/>
<path d="M190.999 158.012H176.498C176.498 158.012 180.637 154.1 182.689 152.167H184.896L191 158.011L190.999 158.012Z" fill="#6A56F6"/>
<path d="M165.001 167.988L179.502 167.988C179.502 167.988 175.363 171.9 173.311 173.833H171.104L165 167.989L165.001 167.988Z" fill="#6A56F6"/>
<path d="M52.5714 33.5691H47.7143C47.6768 33.5691 47.6396 33.5617 47.605 33.5473C47.5703 33.5329 47.5388 33.5118 47.5123 33.4852C47.4857 33.4587 47.4647 33.4271 47.4504 33.3924C47.436 33.3577 47.4286 33.3205 47.4286 33.2829V28.4185C47.4254 28.0412 47.2734 27.6804 47.0059 27.4147C46.7383 27.1491 46.3768 27 46 27C45.6232 27 45.2617 27.1491 44.9941 27.4147C44.7266 27.6804 44.5746 28.0412 44.5714 28.4185V33.2829C44.5714 33.3588 44.5413 33.4316 44.4877 33.4852C44.4341 33.5389 44.3615 33.5691 44.2857 33.5691H39.4286C39.0497 33.5691 38.6863 33.7198 38.4184 33.9881C38.1505 34.2564 38 34.6203 38 34.9997C38 35.3792 38.1505 35.7431 38.4184 36.0114C38.6863 36.2797 39.0497 36.4304 39.4286 36.4304H44.2857C44.3232 36.4304 44.3604 36.4378 44.3951 36.4522C44.4297 36.4666 44.4612 36.4877 44.4877 36.5143C44.5143 36.5408 44.5353 36.5724 44.5497 36.6071C44.564 36.6419 44.5714 36.6791 44.5714 36.7166V41.5815C44.5746 41.9588 44.7266 42.3196 44.9941 42.5853C45.2617 42.8509 45.6232 43 46 43C46.3768 43 46.7383 42.8509 47.0059 42.5853C47.2734 42.3196 47.4254 41.9588 47.4286 41.5815V36.7166C47.4286 36.6791 47.436 36.6419 47.4503 36.6071C47.4647 36.5724 47.4857 36.5408 47.5123 36.5143C47.5388 36.4877 47.5703 36.4666 47.6049 36.4522C47.6396 36.4378 47.6768 36.4304 47.7143 36.4304H52.5714C52.9503 36.4304 53.3137 36.2797 53.5816 36.0114C53.8495 35.7431 54 35.3792 54 34.9997C54 34.6203 53.8495 34.2564 53.5816 33.9881C53.3137 33.7198 52.9503 33.5691 52.5714 33.5691Z" fill="#6A56F6"/>
<path d="M204.929 51.9268H201.286C201.258 51.9268 201.23 51.9212 201.204 51.9105C201.178 51.8997 201.154 51.8839 201.134 51.8639C201.114 51.844 201.099 51.8204 201.088 51.7943C201.077 51.7683 201.071 51.7404 201.071 51.7122V48.0639C201.069 47.7809 200.955 47.5103 200.754 47.3111C200.554 47.1118 200.283 47 200 47C199.717 47 199.446 47.1118 199.246 47.3111C199.045 47.5103 198.931 47.7809 198.929 48.0639V51.7122C198.929 51.7691 198.906 51.8237 198.866 51.8639C198.826 51.9042 198.771 51.9268 198.714 51.9268H195.071C194.787 51.9268 194.515 52.0398 194.314 52.2411C194.113 52.4423 194 52.7152 194 52.9998C194 53.2844 194.113 53.5573 194.314 53.7585C194.515 53.9598 194.787 54.0728 195.071 54.0728H198.714C198.742 54.0728 198.77 54.0784 198.796 54.0892C198.822 54.1 198.846 54.1158 198.866 54.1357C198.886 54.1556 198.901 54.1793 198.912 54.2053C198.923 54.2314 198.929 54.2593 198.929 54.2875V57.9361C198.931 58.2191 199.045 58.4897 199.246 58.6889C199.446 58.8882 199.717 59 200 59C200.283 59 200.554 58.8882 200.754 58.6889C200.955 58.4897 201.069 58.2191 201.071 57.9361V54.2875C201.071 54.2593 201.077 54.2314 201.088 54.2053C201.099 54.1793 201.114 54.1556 201.134 54.1357C201.154 54.1158 201.178 54.1 201.204 54.0892C201.23 54.0784 201.258 54.0728 201.286 54.0728H204.929C205.213 54.0728 205.485 53.9598 205.686 53.7585C205.887 53.5573 206 53.2844 206 52.9998C206 52.7152 205.887 52.4423 205.686 52.2411C205.485 52.0398 205.213 51.9268 204.929 51.9268Z" fill="#6A56F6"/>
</g>
<circle cx="57.5" cy="19.5" r="2.5" fill="#6A56F6" fill-opacity="0.42"/>
<circle cx="146.5" cy="26.5" r="2.5" fill="#6A56F6" fill-opacity="0.42"/>
<circle cx="193.5" cy="93.5" r="2.5" fill="#6A56F6" fill-opacity="0.42"/>
<circle cx="30.5" cy="116.5" r="2.5" fill="#6A56F6" fill-opacity="0.42"/>
<circle cx="35.5" cy="110.5" r="1.5" fill="#6A56F6" fill-opacity="0.42"/>
<path d="M72.9286 167.927H69.2857C69.2576 167.927 69.2297 167.921 69.2037 167.91C69.1777 167.9 69.1541 167.884 69.1342 167.864C69.1143 167.844 69.0985 167.82 69.0878 167.794C69.077 167.768 69.0715 167.74 69.0715 167.712V164.064C69.069 163.781 68.9551 163.51 68.7544 163.311C68.5537 163.112 68.2826 163 68 163C67.7174 163 67.4463 163.112 67.2456 163.311C67.0449 163.51 66.931 163.781 66.9285 164.064V167.712C66.9285 167.769 66.906 167.824 66.8658 167.864C66.8256 167.904 66.7711 167.927 66.7143 167.927H63.0714C62.7873 167.927 62.5147 168.04 62.3138 168.241C62.1129 168.442 62 168.715 62 169C62 169.284 62.1129 169.557 62.3138 169.759C62.5147 169.96 62.7873 170.073 63.0714 170.073H66.7143C66.7424 170.073 66.7703 170.078 66.7963 170.089C66.8223 170.1 66.8459 170.116 66.8658 170.136C66.8857 170.156 66.9015 170.179 66.9123 170.205C66.923 170.231 66.9286 170.259 66.9285 170.287V173.936C66.931 174.219 67.0449 174.49 67.2456 174.689C67.4463 174.888 67.7174 175 68 175C68.2826 175 68.5537 174.888 68.7544 174.689C68.9551 174.49 69.069 174.219 69.0715 173.936V170.287C69.0714 170.259 69.077 170.231 69.0877 170.205C69.0985 170.179 69.1143 170.156 69.1342 170.136C69.1541 170.116 69.1777 170.1 69.2037 170.089C69.2297 170.078 69.2576 170.073 69.2857 170.073H72.9286C73.2127 170.073 73.4853 169.96 73.6862 169.759C73.8871 169.557 74 169.284 74 169C74 168.715 73.8871 168.442 73.6862 168.241C73.4853 168.04 73.2127 167.927 72.9286 167.927Z" fill="#6A56F6"/>
<defs>
<filter id="filter0_f_1393_108" x="48" y="107" width="222" height="177" filterUnits="userSpaceOnUse" color-interpolation-filters="sRGB">
<feFlood flood-opacity="0" result="BackgroundImageFix"/>
<feBlend mode="normal" in="SourceGraphic" in2="BackgroundImageFix" result="shape"/>
<feGaussianBlur stdDeviation="28" result="effect1_foregroundBlur_1393_108"/>
</filter>
<filter id="filter1_f_1393_108" x="-39" y="107" width="208" height="169" filterUnits="userSpaceOnUse" color-interpolation-filters="sRGB">
<feFlood flood-opacity="0" result="BackgroundImageFix"/>
<feBlend mode="normal" in="SourceGraphic" in2="BackgroundImageFix" result="shape"/>
<feGaussianBlur stdDeviation="28" result="effect1_foregroundBlur_1393_108"/>
</filter>
<filter id="filter2_b_1393_108" x="144" y="129" width="68" height="68" filterUnits="userSpaceOnUse" color-interpolation-filters="sRGB">
<feFlood flood-opacity="0" result="BackgroundImageFix"/>
<feGaussianBlur in="BackgroundImageFix" stdDeviation="4"/>
<feComposite in2="SourceAlpha" operator="in" result="effect1_backgroundBlur_1393_108"/>
<feBlend mode="normal" in="SourceGraphic" in2="effect1_backgroundBlur_1393_108" result="shape"/>
</filter>
<linearGradient id="paint0_linear_1393_108" x1="40.0714" y1="155.487" x2="48.1919" y2="195.534" gradientUnits="userSpaceOnUse">
<stop stop-color="#5D4CD5"/>
<stop offset="1" stop-color="#3F3397"/>
</linearGradient>
<linearGradient id="paint1_linear_1393_108" x1="229.061" y1="26.3139" x2="241.435" y2="87.338" gradientUnits="userSpaceOnUse">
<stop stop-color="#5D4CD5"/>
<stop offset="1" stop-color="#3F3397"/>
</linearGradient>
<radialGradient id="paint2_radial_1393_108" cx="0" cy="0" r="1" gradientUnits="userSpaceOnUse" gradientTransform="translate(109.5 221) rotate(-90) scale(208.5 188.823)">
<stop stop-color="#020106" stop-opacity="0"/>
<stop offset="0.29" stop-color="#020106" stop-opacity="0.64"/>
<stop offset="0.634521" stop-color="#020106" stop-opacity="0.9"/>
<stop offset="1" stop-color="#020106" stop-opacity="0.5"/>
</radialGradient>
<linearGradient id="paint3_linear_1393_108" x1="114.5" y1="50" x2="114.5" y2="170" gradientUnits="userSpaceOnUse">
<stop stop-color="white"/>
<stop offset="0.515" stop-color="white" stop-opacity="0.24"/>
<stop offset="1" stop-color="white"/>
</linearGradient>
<linearGradient id="paint4_linear_1393_108" x1="199.796" y1="142.985" x2="209.076" y2="188.753" gradientUnits="userSpaceOnUse">
<stop stop-color="#5D4CD5"/>
<stop offset="1" stop-color="#3F3397"/>
</linearGradient>
<clipPath id="clip0_1393_108">
<rect x="14" width="200" height="200" rx="16" fill="white"/>
</clipPath>
</defs>
</svg>
