<svg width="96" height="96" viewBox="0 0 96 96" fill="none" xmlns="http://www.w3.org/2000/svg">
    <mask id="path-1-inside-1_654_6781" fill="white">
        <path d="M84 1.43099e-07C90.6274 6.40674e-08 96 5.37258 96 12L96 96L1.14479e-06 96L0 1.14479e-06L84 1.43099e-07Z"/>
    </mask>
    <path d="M84 -1C91.1797 -1 97 4.8203 97 12L97 96L95 96L95 12C95 5.92487 90.0751 1 84 1L84 -1ZM1.14479e-06 96L0 1.14479e-06L1.14479e-06 96ZM-1.19249e-08 -0.999999L84 -1C91.1797 -1 97 4.8203 97 12L95 12C95 5.92487 90.0751 1 84 1L1.19249e-08 1L-1.19249e-08 -0.999999ZM96 96L1.14479e-06 96L96 96Z" fill="url(#paint0_linear_654_6781)" fill-opacity="0.64" mask="url(#path-1-inside-1_654_6781)"/>
    <mask id="path-3-inside-2_654_6781" fill="white">
        <path d="M84 1.43099e-07C90.6274 6.40674e-08 96 5.37258 96 12L96 56L40 56L40 6.67793e-07L84 1.43099e-07Z"/>
    </mask>
    <path d="M84 -1C91.1797 -1 97 4.8203 97 12L97 56L95 56L95 12C95 5.92487 90.0751 1 84 1L84 -1ZM40 56L40 6.67793e-07L40 56ZM40 -0.999999L84 -1C91.1797 -1 97 4.8203 97 12L95 12C95 5.92487 90.0751 1 84 1L40 1L40 -0.999999ZM96 56L40 56L96 56Z" fill="url(#paint1_linear_654_6781)" fill-opacity="0.64" mask="url(#path-3-inside-2_654_6781)"/>
    <defs>
        <linearGradient id="paint0_linear_654_6781" x1="96" y1="96.5748" x2="24.4825" y2="-16.0105" gradientUnits="userSpaceOnUse">
            <stop stop-color="#6A56F6" stop-opacity="0"/>
            <stop offset="0.159668" stop-color="#6A56F6"/>
            <stop offset="0.796115" stop-color="#6A56F6"/>
            <stop offset="1" stop-color="#6A56F6" stop-opacity="0"/>
        </linearGradient>
        <linearGradient id="paint1_linear_654_6781" x1="98.7654" y1="55.3979" x2="50.7512" y2="-7.79701" gradientUnits="userSpaceOnUse">
            <stop stop-color="white" stop-opacity="0"/>
            <stop offset="0.37" stop-color="white"/>
            <stop offset="0.565" stop-color="white"/>
            <stop offset="1" stop-color="white" stop-opacity="0"/>
        </linearGradient>
    </defs>
</svg>